<svg width="3010" height="416" viewBox="0 0 3010 416" fill="none" xmlns="http://www.w3.org/2000/svg">
<rect width="3010" height="416" fill="url(#paint0_linear)"/>
<g filter="url(#filter0_f)">
<path d="M171.4 290L217.8 142H255.2L301.6 290H270.8L261.4 259H211L201.8 290H171.4ZM218 232.4H254.4L236.2 167.4L218 232.4ZM312.314 290V182.6H335.114L341.914 199C345.781 194.067 350.114 189.867 354.914 186.4C359.847 182.933 365.647 181.2 372.314 181.2C373.781 181.2 375.247 181.267 376.714 181.4C378.314 181.533 379.781 181.8 381.114 182.2V212.6C378.981 212.333 376.781 212.133 374.514 212C372.381 211.733 370.381 211.6 368.514 211.6C362.647 211.6 357.647 212.6 353.514 214.6C349.381 216.467 345.514 219.333 341.914 223.2V290H312.314ZM435.638 290C423.238 290 414.304 287.2 408.838 281.6C403.504 276 401.038 266.067 401.438 251.8L402.438 206.4H385.638V187.4L403.438 182.6L407.438 152.6H430.838V182.6H456.038V206.4H430.838V251.6C430.838 257.467 431.904 261.4 434.038 263.4C436.171 265.267 438.638 266.4 441.438 266.8L455.038 268V290H435.638ZM513.772 291C501.905 291 492.439 289.467 485.372 286.4C478.305 283.2 473.172 277.667 469.972 269.8C466.905 261.8 465.372 250.667 465.372 236.4C465.372 221.867 466.839 210.6 469.772 202.6C472.705 194.6 477.639 189 484.572 185.8C491.505 182.6 500.905 181 512.772 181C523.305 181 531.772 182.067 538.172 184.2C544.705 186.333 549.372 190.067 552.172 195.4C555.105 200.733 556.572 208.267 556.572 218C556.572 228.933 553.439 236.467 547.172 240.6C540.905 244.733 532.439 246.8 521.772 246.8H494.772C494.905 252.267 495.705 256.6 497.172 259.8C498.639 263 501.239 265.333 504.972 266.8C508.839 268.267 514.372 269 521.572 269H552.972V286.4C547.772 287.467 542.039 288.533 535.772 289.6C529.639 290.533 522.305 291 513.772 291ZM494.372 229.2H518.772C522.772 229.2 525.705 228.4 527.572 226.8C529.439 225.067 530.372 222.2 530.372 218.2C530.372 212.333 528.972 208.267 526.172 206C523.505 203.6 519.039 202.4 512.772 202.4C505.972 202.4 501.172 204.267 498.372 208C495.705 211.6 494.372 218.667 494.372 229.2ZM571.994 290V182.6H596.394L601.594 193.6C606.26 190.133 611.394 187.133 616.994 184.6C622.594 182.067 629.394 180.8 637.394 180.8C644.194 180.8 649.794 182.267 654.194 185.2C658.594 188 661.994 191.6 664.394 196C667.46 193.733 670.994 191.467 674.994 189.2C679.127 186.8 683.527 184.8 688.194 183.2C692.86 181.6 697.46 180.8 701.994 180.8C710.66 180.8 717.46 182.467 722.394 185.8C727.327 189 730.794 193.6 732.794 199.6C734.927 205.467 735.994 212.4 735.994 220.4V290H706.394V223C706.394 217.8 704.994 213.933 702.194 211.4C699.394 208.733 695.66 207.4 690.994 207.4C686.994 207.4 682.927 208.267 678.794 210C674.794 211.6 671.194 213.533 667.994 215.8C668.527 218.467 668.794 221.067 668.794 223.6V290H639.194V223C639.194 217.8 637.794 213.933 634.994 211.4C632.194 208.733 628.46 207.4 623.794 207.4C619.527 207.4 615.527 208.133 611.794 209.6C608.194 211.067 604.794 213 601.594 215.4V290H571.994ZM757.727 166.8C754.927 166.8 753.527 165.467 753.527 162.8V143.2C753.527 140.4 754.927 139 757.727 139H780.527C783.06 139 784.327 140.4 784.327 143.2V162.8C784.327 165.467 783.06 166.8 780.527 166.8H757.727ZM754.127 290V182.6H783.727V290H754.127ZM841.47 291.2C836.937 291.2 832.004 291 826.67 290.6C821.47 290.333 816.47 289.867 811.67 289.2C806.87 288.4 802.937 287.467 799.87 286.4V269H847.47C851.604 269 854.67 268.467 856.67 267.4C858.67 266.2 859.67 263.8 859.67 260.2V256.8C859.67 254.133 858.804 252.067 857.07 250.6C855.337 249.133 852.137 248.4 847.47 248.4H830.67C824.537 248.4 819.004 247.533 814.07 245.8C809.137 243.933 805.204 240.867 802.27 236.6C799.47 232.333 798.07 226.533 798.07 219.2V213C798.07 206.2 799.404 200.467 802.07 195.8C804.737 191.133 809.204 187.6 815.47 185.2C821.737 182.8 830.337 181.6 841.27 181.6C845.67 181.6 850.337 181.867 855.27 182.4C860.337 182.8 865.07 183.4 869.47 184.2C874.004 185 877.604 185.8 880.27 186.6V204H835.27C831.404 204 828.47 204.667 826.47 206C824.47 207.2 823.47 209.533 823.47 213V216.2C823.47 219.667 824.537 221.933 826.67 223C828.804 224.067 832.07 224.6 836.47 224.6H853.67C864.604 224.6 872.537 227.133 877.47 232.2C882.537 237.133 885.07 244 885.07 252.8V262.4C885.07 273.333 881.27 280.867 873.67 285C866.204 289.133 855.47 291.2 841.47 291.2ZM948.409 290V142H1010.81C1015.61 142 1020.48 142.6 1025.41 143.8C1030.48 144.867 1035.08 147.133 1039.21 150.6C1043.48 153.933 1046.88 159 1049.41 165.8C1052.08 172.6 1053.41 181.6 1053.41 192.8C1053.41 204.133 1052.08 213.267 1049.41 220.2C1046.88 227 1043.54 232.2 1039.41 235.8C1035.28 239.4 1030.81 241.8 1026.01 243C1021.21 244.2 1016.54 244.8 1012.01 244.8C1008.81 244.8 1004.94 244.6 1000.41 244.2C996.009 243.8 991.743 243.333 987.609 242.8C983.476 242.267 980.276 241.867 978.009 241.6V290H948.409ZM978.009 218.2H1007.41C1012.61 218.2 1016.61 216.267 1019.41 212.4C1022.21 208.533 1023.61 202.067 1023.61 193C1023.61 184.067 1022.14 177.8 1019.21 174.2C1016.41 170.467 1012.68 168.6 1008.01 168.6H978.009V218.2ZM1067.23 290V182.6H1090.03L1096.83 199C1100.69 194.067 1105.03 189.867 1109.83 186.4C1114.76 182.933 1120.56 181.2 1127.23 181.2C1128.69 181.2 1130.16 181.267 1131.63 181.4C1133.23 181.533 1134.69 181.8 1136.03 182.2V212.6C1133.89 212.333 1131.69 212.133 1129.43 212C1127.29 211.733 1125.29 211.6 1123.43 211.6C1117.56 211.6 1112.56 212.6 1108.43 214.6C1104.29 216.467 1100.43 219.333 1096.83 223.2V290H1067.23ZM1193.8 291C1181.93 291 1172.4 289.333 1165.2 286C1158 282.533 1152.73 276.8 1149.4 268.8C1146.2 260.8 1144.6 249.867 1144.6 236C1144.6 221.333 1146.27 210.067 1149.6 202.2C1152.93 194.2 1158.2 188.667 1165.4 185.6C1172.6 182.533 1182.07 181 1193.8 181C1205.67 181 1215.2 182.6 1222.4 185.8C1229.73 189 1235 194.6 1238.2 202.6C1241.53 210.6 1243.2 221.733 1243.2 236C1243.2 250.267 1241.6 261.4 1238.4 269.4C1235.2 277.4 1230 283 1222.8 286.2C1215.6 289.4 1205.93 291 1193.8 291ZM1193.8 267.4C1198.47 267.4 1202.27 266.733 1205.2 265.4C1208.13 264.067 1210.27 261.2 1211.6 256.8C1212.93 252.267 1213.6 245.333 1213.6 236C1213.6 226.533 1212.93 219.6 1211.6 215.2C1210.27 210.8 1208.13 207.933 1205.2 206.6C1202.27 205.267 1198.47 204.6 1193.8 204.6C1189.13 204.6 1185.33 205.267 1182.4 206.6C1179.6 207.933 1177.53 210.8 1176.2 215.2C1174.87 219.6 1174.2 226.533 1174.2 236C1174.2 245.333 1174.87 252.267 1176.2 256.8C1177.53 261.2 1179.6 264.067 1182.4 265.4C1185.33 266.733 1189.13 267.4 1193.8 267.4ZM1299.64 290C1287.24 290 1278.3 287.2 1272.84 281.6C1267.5 276 1265.04 266.067 1265.44 251.8L1266.44 206.4H1249.64V187.4L1267.44 182.6L1271.44 152.6H1294.84V182.6H1320.04V206.4H1294.84V251.6C1294.84 257.467 1295.9 261.4 1298.04 263.4C1300.17 265.267 1302.64 266.4 1305.44 266.8L1319.04 268V290H1299.64ZM1378.57 291C1366.71 291 1357.17 289.333 1349.97 286C1342.77 282.533 1337.51 276.8 1334.17 268.8C1330.97 260.8 1329.37 249.867 1329.37 236C1329.37 221.333 1331.04 210.067 1334.37 202.2C1337.71 194.2 1342.97 188.667 1350.17 185.6C1357.37 182.533 1366.84 181 1378.57 181C1390.44 181 1399.97 182.6 1407.17 185.8C1414.51 189 1419.77 194.6 1422.97 202.6C1426.31 210.6 1427.97 221.733 1427.97 236C1427.97 250.267 1426.37 261.4 1423.17 269.4C1419.97 277.4 1414.77 283 1407.57 286.2C1400.37 289.4 1390.71 291 1378.57 291ZM1378.57 267.4C1383.24 267.4 1387.04 266.733 1389.97 265.4C1392.91 264.067 1395.04 261.2 1396.37 256.8C1397.71 252.267 1398.37 245.333 1398.37 236C1398.37 226.533 1397.71 219.6 1396.37 215.2C1395.04 210.8 1392.91 207.933 1389.97 206.6C1387.04 205.267 1383.24 204.6 1378.57 204.6C1373.91 204.6 1370.11 205.267 1367.17 206.6C1364.37 207.933 1362.31 210.8 1360.97 215.2C1359.64 219.6 1358.97 226.533 1358.97 236C1358.97 245.333 1359.64 252.267 1360.97 256.8C1362.31 261.2 1364.37 264.067 1367.17 265.4C1370.11 266.733 1373.91 267.4 1378.57 267.4ZM1485.41 291.2C1476.61 291.2 1468.81 289.6 1462.01 286.4C1455.34 283.2 1450.08 277.667 1446.21 269.8C1442.34 261.933 1440.41 250.933 1440.41 236.8C1440.41 222.133 1442.21 210.8 1445.81 202.8C1449.41 194.667 1454.61 189 1461.41 185.8C1468.21 182.6 1476.48 181 1486.21 181C1492.74 181 1498.94 181.4 1504.81 182.2C1510.81 182.867 1517.08 184.133 1523.61 186V203H1495.41C1489.28 203 1484.34 203.933 1480.61 205.8C1476.88 207.533 1474.14 210.867 1472.41 215.8C1470.81 220.6 1470.01 227.533 1470.01 236.6C1470.01 245.667 1470.81 252.533 1472.41 257.2C1474.14 261.733 1476.88 264.8 1480.61 266.4C1484.48 268 1489.54 268.8 1495.81 268.8H1525.21V285.6C1520.28 287.2 1514.14 288.533 1506.81 289.6C1499.48 290.667 1492.34 291.2 1485.41 291.2ZM1583.66 291C1571.79 291 1562.26 289.333 1555.06 286C1547.86 282.533 1542.59 276.8 1539.26 268.8C1536.06 260.8 1534.46 249.867 1534.46 236C1534.46 221.333 1536.12 210.067 1539.46 202.2C1542.79 194.2 1548.06 188.667 1555.26 185.6C1562.46 182.533 1571.92 181 1583.66 181C1595.52 181 1605.06 182.6 1612.26 185.8C1619.59 189 1624.86 194.6 1628.06 202.6C1631.39 210.6 1633.06 221.733 1633.06 236C1633.06 250.267 1631.46 261.4 1628.26 269.4C1625.06 277.4 1619.86 283 1612.66 286.2C1605.46 289.4 1595.79 291 1583.66 291ZM1583.66 267.4C1588.32 267.4 1592.12 266.733 1595.06 265.4C1597.99 264.067 1600.12 261.2 1601.46 256.8C1602.79 252.267 1603.46 245.333 1603.46 236C1603.46 226.533 1602.79 219.6 1601.46 215.2C1600.12 210.8 1597.99 207.933 1595.06 206.6C1592.12 205.267 1588.32 204.6 1583.66 204.6C1578.99 204.6 1575.19 205.267 1572.26 206.6C1569.46 207.933 1567.39 210.8 1566.06 215.2C1564.72 219.6 1564.06 226.533 1564.06 236C1564.06 245.333 1564.72 252.267 1566.06 256.8C1567.39 261.2 1569.46 264.067 1572.26 265.4C1575.19 266.733 1578.99 267.4 1583.66 267.4ZM1682.3 290.4C1670.96 290.4 1662.5 287.6 1656.9 282C1651.43 276.4 1648.7 267.533 1648.7 255.4V137.4H1678.3V251C1678.3 257 1679.23 261.2 1681.1 263.6C1682.96 265.867 1685.76 267.267 1689.5 267.8L1697.7 269V290.4H1682.3Z" fill="white"/>
</g>
<path d="M171.4 290L217.8 142H255.2L301.6 290H270.8L261.4 259H211L201.8 290H171.4ZM218 232.4H254.4L236.2 167.4L218 232.4ZM312.314 290V182.6H335.114L341.914 199C345.781 194.067 350.114 189.867 354.914 186.4C359.847 182.933 365.647 181.2 372.314 181.2C373.781 181.2 375.247 181.267 376.714 181.4C378.314 181.533 379.781 181.8 381.114 182.2V212.6C378.981 212.333 376.781 212.133 374.514 212C372.381 211.733 370.381 211.6 368.514 211.6C362.647 211.6 357.647 212.6 353.514 214.6C349.381 216.467 345.514 219.333 341.914 223.2V290H312.314ZM435.638 290C423.238 290 414.304 287.2 408.838 281.6C403.504 276 401.038 266.067 401.438 251.8L402.438 206.4H385.638V187.4L403.438 182.6L407.438 152.6H430.838V182.6H456.038V206.4H430.838V251.6C430.838 257.467 431.904 261.4 434.038 263.4C436.171 265.267 438.638 266.4 441.438 266.8L455.038 268V290H435.638ZM513.772 291C501.905 291 492.439 289.467 485.372 286.4C478.305 283.2 473.172 277.667 469.972 269.8C466.905 261.8 465.372 250.667 465.372 236.4C465.372 221.867 466.839 210.6 469.772 202.6C472.705 194.6 477.639 189 484.572 185.8C491.505 182.6 500.905 181 512.772 181C523.305 181 531.772 182.067 538.172 184.2C544.705 186.333 549.372 190.067 552.172 195.4C555.105 200.733 556.572 208.267 556.572 218C556.572 228.933 553.439 236.467 547.172 240.6C540.905 244.733 532.439 246.8 521.772 246.8H494.772C494.905 252.267 495.705 256.6 497.172 259.8C498.639 263 501.239 265.333 504.972 266.8C508.839 268.267 514.372 269 521.572 269H552.972V286.4C547.772 287.467 542.039 288.533 535.772 289.6C529.639 290.533 522.305 291 513.772 291ZM494.372 229.2H518.772C522.772 229.2 525.705 228.4 527.572 226.8C529.439 225.067 530.372 222.2 530.372 218.2C530.372 212.333 528.972 208.267 526.172 206C523.505 203.6 519.039 202.4 512.772 202.4C505.972 202.4 501.172 204.267 498.372 208C495.705 211.6 494.372 218.667 494.372 229.2ZM571.994 290V182.6H596.394L601.594 193.6C606.26 190.133 611.394 187.133 616.994 184.6C622.594 182.067 629.394 180.8 637.394 180.8C644.194 180.8 649.794 182.267 654.194 185.2C658.594 188 661.994 191.6 664.394 196C667.46 193.733 670.994 191.467 674.994 189.2C679.127 186.8 683.527 184.8 688.194 183.2C692.86 181.6 697.46 180.8 701.994 180.8C710.66 180.8 717.46 182.467 722.394 185.8C727.327 189 730.794 193.6 732.794 199.6C734.927 205.467 735.994 212.4 735.994 220.4V290H706.394V223C706.394 217.8 704.994 213.933 702.194 211.4C699.394 208.733 695.66 207.4 690.994 207.4C686.994 207.4 682.927 208.267 678.794 210C674.794 211.6 671.194 213.533 667.994 215.8C668.527 218.467 668.794 221.067 668.794 223.6V290H639.194V223C639.194 217.8 637.794 213.933 634.994 211.4C632.194 208.733 628.46 207.4 623.794 207.4C619.527 207.4 615.527 208.133 611.794 209.6C608.194 211.067 604.794 213 601.594 215.4V290H571.994ZM757.727 166.8C754.927 166.8 753.527 165.467 753.527 162.8V143.2C753.527 140.4 754.927 139 757.727 139H780.527C783.06 139 784.327 140.4 784.327 143.2V162.8C784.327 165.467 783.06 166.8 780.527 166.8H757.727ZM754.127 290V182.6H783.727V290H754.127ZM841.47 291.2C836.937 291.2 832.004 291 826.67 290.6C821.47 290.333 816.47 289.867 811.67 289.2C806.87 288.4 802.937 287.467 799.87 286.4V269H847.47C851.604 269 854.67 268.467 856.67 267.4C858.67 266.2 859.67 263.8 859.67 260.2V256.8C859.67 254.133 858.804 252.067 857.07 250.6C855.337 249.133 852.137 248.4 847.47 248.4H830.67C824.537 248.4 819.004 247.533 814.07 245.8C809.137 243.933 805.204 240.867 802.27 236.6C799.47 232.333 798.07 226.533 798.07 219.2V213C798.07 206.2 799.404 200.467 802.07 195.8C804.737 191.133 809.204 187.6 815.47 185.2C821.737 182.8 830.337 181.6 841.27 181.6C845.67 181.6 850.337 181.867 855.27 182.4C860.337 182.8 865.07 183.4 869.47 184.2C874.004 185 877.604 185.8 880.27 186.6V204H835.27C831.404 204 828.47 204.667 826.47 206C824.47 207.2 823.47 209.533 823.47 213V216.2C823.47 219.667 824.537 221.933 826.67 223C828.804 224.067 832.07 224.6 836.47 224.6H853.67C864.604 224.6 872.537 227.133 877.47 232.2C882.537 237.133 885.07 244 885.07 252.8V262.4C885.07 273.333 881.27 280.867 873.67 285C866.204 289.133 855.47 291.2 841.47 291.2ZM948.409 290V142H1010.81C1015.61 142 1020.48 142.6 1025.41 143.8C1030.48 144.867 1035.08 147.133 1039.21 150.6C1043.48 153.933 1046.88 159 1049.41 165.8C1052.08 172.6 1053.41 181.6 1053.41 192.8C1053.41 204.133 1052.08 213.267 1049.41 220.2C1046.88 227 1043.54 232.2 1039.41 235.8C1035.28 239.4 1030.81 241.8 1026.01 243C1021.21 244.2 1016.54 244.8 1012.01 244.8C1008.81 244.8 1004.94 244.6 1000.41 244.2C996.009 243.8 991.743 243.333 987.609 242.8C983.476 242.267 980.276 241.867 978.009 241.6V290H948.409ZM978.009 218.2H1007.41C1012.61 218.2 1016.61 216.267 1019.41 212.4C1022.21 208.533 1023.61 202.067 1023.61 193C1023.61 184.067 1022.14 177.8 1019.21 174.2C1016.41 170.467 1012.68 168.6 1008.01 168.6H978.009V218.2ZM1067.23 290V182.6H1090.03L1096.83 199C1100.69 194.067 1105.03 189.867 1109.83 186.4C1114.76 182.933 1120.56 181.2 1127.23 181.2C1128.69 181.2 1130.16 181.267 1131.63 181.4C1133.23 181.533 1134.69 181.8 1136.03 182.2V212.6C1133.89 212.333 1131.69 212.133 1129.43 212C1127.29 211.733 1125.29 211.6 1123.43 211.6C1117.56 211.6 1112.56 212.6 1108.43 214.6C1104.29 216.467 1100.43 219.333 1096.83 223.2V290H1067.23ZM1193.8 291C1181.93 291 1172.4 289.333 1165.2 286C1158 282.533 1152.73 276.8 1149.4 268.8C1146.2 260.8 1144.6 249.867 1144.6 236C1144.6 221.333 1146.27 210.067 1149.6 202.2C1152.93 194.2 1158.2 188.667 1165.4 185.6C1172.6 182.533 1182.07 181 1193.8 181C1205.67 181 1215.2 182.6 1222.4 185.8C1229.73 189 1235 194.6 1238.2 202.6C1241.53 210.6 1243.2 221.733 1243.2 236C1243.2 250.267 1241.6 261.4 1238.4 269.4C1235.2 277.4 1230 283 1222.8 286.2C1215.6 289.4 1205.93 291 1193.8 291ZM1193.8 267.4C1198.47 267.4 1202.27 266.733 1205.2 265.4C1208.13 264.067 1210.27 261.2 1211.6 256.8C1212.93 252.267 1213.6 245.333 1213.6 236C1213.6 226.533 1212.93 219.6 1211.6 215.2C1210.27 210.8 1208.13 207.933 1205.2 206.6C1202.27 205.267 1198.47 204.6 1193.8 204.6C1189.13 204.6 1185.33 205.267 1182.4 206.6C1179.6 207.933 1177.53 210.8 1176.2 215.2C1174.87 219.6 1174.2 226.533 1174.2 236C1174.2 245.333 1174.87 252.267 1176.2 256.8C1177.53 261.2 1179.6 264.067 1182.4 265.4C1185.33 266.733 1189.13 267.4 1193.8 267.4ZM1299.64 290C1287.24 290 1278.3 287.2 1272.84 281.6C1267.5 276 1265.04 266.067 1265.44 251.8L1266.44 206.4H1249.64V187.4L1267.44 182.6L1271.44 152.6H1294.84V182.6H1320.04V206.4H1294.84V251.6C1294.84 257.467 1295.9 261.4 1298.04 263.4C1300.17 265.267 1302.64 266.4 1305.44 266.8L1319.04 268V290H1299.64ZM1378.57 291C1366.71 291 1357.17 289.333 1349.97 286C1342.77 282.533 1337.51 276.8 1334.17 268.8C1330.97 260.8 1329.37 249.867 1329.37 236C1329.37 221.333 1331.04 210.067 1334.37 202.2C1337.71 194.2 1342.97 188.667 1350.17 185.6C1357.37 182.533 1366.84 181 1378.57 181C1390.44 181 1399.97 182.6 1407.17 185.8C1414.51 189 1419.77 194.6 1422.97 202.6C1426.31 210.6 1427.97 221.733 1427.97 236C1427.97 250.267 1426.37 261.4 1423.17 269.4C1419.97 277.4 1414.77 283 1407.57 286.2C1400.37 289.4 1390.71 291 1378.57 291ZM1378.57 267.4C1383.24 267.4 1387.04 266.733 1389.97 265.4C1392.91 264.067 1395.04 261.2 1396.37 256.8C1397.71 252.267 1398.37 245.333 1398.37 236C1398.37 226.533 1397.71 219.6 1396.37 215.2C1395.04 210.8 1392.91 207.933 1389.97 206.6C1387.04 205.267 1383.24 204.6 1378.57 204.6C1373.91 204.6 1370.11 205.267 1367.17 206.6C1364.37 207.933 1362.31 210.8 1360.97 215.2C1359.64 219.6 1358.97 226.533 1358.97 236C1358.97 245.333 1359.64 252.267 1360.97 256.8C1362.31 261.2 1364.37 264.067 1367.17 265.4C1370.11 266.733 1373.91 267.4 1378.57 267.4ZM1485.41 291.2C1476.61 291.2 1468.81 289.6 1462.01 286.4C1455.34 283.2 1450.08 277.667 1446.21 269.8C1442.34 261.933 1440.41 250.933 1440.41 236.8C1440.41 222.133 1442.21 210.8 1445.81 202.8C1449.41 194.667 1454.61 189 1461.41 185.8C1468.21 182.6 1476.48 181 1486.21 181C1492.74 181 1498.94 181.4 1504.81 182.2C1510.81 182.867 1517.08 184.133 1523.61 186V203H1495.41C1489.28 203 1484.34 203.933 1480.61 205.8C1476.88 207.533 1474.14 210.867 1472.41 215.8C1470.81 220.6 1470.01 227.533 1470.01 236.6C1470.01 245.667 1470.81 252.533 1472.41 257.2C1474.14 261.733 1476.88 264.8 1480.61 266.4C1484.48 268 1489.54 268.8 1495.81 268.8H1525.21V285.6C1520.28 287.2 1514.14 288.533 1506.81 289.6C1499.48 290.667 1492.34 291.2 1485.41 291.2ZM1583.66 291C1571.79 291 1562.26 289.333 1555.06 286C1547.86 282.533 1542.59 276.8 1539.26 268.8C1536.06 260.8 1534.46 249.867 1534.46 236C1534.46 221.333 1536.12 210.067 1539.46 202.2C1542.79 194.2 1548.06 188.667 1555.26 185.6C1562.46 182.533 1571.92 181 1583.66 181C1595.52 181 1605.06 182.6 1612.26 185.8C1619.59 189 1624.86 194.6 1628.06 202.6C1631.39 210.6 1633.06 221.733 1633.06 236C1633.06 250.267 1631.46 261.4 1628.26 269.4C1625.06 277.4 1619.86 283 1612.66 286.2C1605.46 289.4 1595.79 291 1583.66 291ZM1583.66 267.4C1588.32 267.4 1592.12 266.733 1595.06 265.4C1597.99 264.067 1600.12 261.2 1601.46 256.8C1602.79 252.267 1603.46 245.333 1603.46 236C1603.46 226.533 1602.79 219.6 1601.46 215.2C1600.12 210.8 1597.99 207.933 1595.06 206.6C1592.12 205.267 1588.32 204.6 1583.66 204.6C1578.99 204.6 1575.19 205.267 1572.26 206.6C1569.46 207.933 1567.39 210.8 1566.06 215.2C1564.72 219.6 1564.06 226.533 1564.06 236C1564.06 245.333 1564.72 252.267 1566.06 256.8C1567.39 261.2 1569.46 264.067 1572.26 265.4C1575.19 266.733 1578.99 267.4 1583.66 267.4ZM1682.3 290.4C1670.96 290.4 1662.5 287.6 1656.9 282C1651.43 276.4 1648.7 267.533 1648.7 255.4V137.4H1678.3V251C1678.3 257 1679.23 261.2 1681.1 263.6C1682.96 265.867 1685.76 267.267 1689.5 267.8L1697.7 269V290.4H1682.3Z" fill="white"/>
<defs>
<filter id="filter0_f" x="154.4" y="120.4" width="1560.3" height="187.8" filterUnits="userSpaceOnUse" color-interpolation-filters="sRGB">
<feFlood flood-opacity="0" result="BackgroundImageFix"/>
<feBlend mode="normal" in="SourceGraphic" in2="BackgroundImageFix" result="shape"/>
<feGaussianBlur stdDeviation="8.5" result="effect1_foregroundBlur"/>
</filter>
<linearGradient id="paint0_linear" x1="5.60657e-06" y1="208" x2="3010" y2="208" gradientUnits="userSpaceOnUse">
<stop stop-color="#333859"/>
<stop offset="0.607292" stop-color="#373C5F"/>
<stop offset="1" stop-color="#1F2237" stop-opacity="0"/>
</linearGradient>
</defs>
</svg>
