<svg width="1344" height="186" viewBox="0 0 1344 186" fill="none" xmlns="http://www.w3.org/2000/svg">
<rect width="1344" height="185.611" fill="url(#paint0_linear)"/>
<path d="M287.7 135L310.9 61H329.6L352.8 135H337.4L332.7 119.5H307.5L302.9 135H287.7ZM311 106.2H329.2L320.1 73.7L311 106.2ZM358.157 135V81.3H369.557L372.957 89.5C374.89 87.0333 377.057 84.9333 379.457 83.2C381.924 81.4667 384.824 80.6 388.157 80.6C388.89 80.6 389.624 80.6333 390.357 80.7C391.157 80.7667 391.89 80.9 392.557 81.1V96.3C391.49 96.1667 390.39 96.0667 389.257 96C388.19 95.8667 387.19 95.8 386.257 95.8C383.324 95.8 380.824 96.3 378.757 97.3C376.69 98.2333 374.757 99.6667 372.957 101.6V135H358.157ZM419.819 135C413.619 135 409.152 133.6 406.419 130.8C403.752 128 402.519 123.033 402.719 115.9L403.219 93.2H394.819V83.7L403.719 81.3L405.719 66.3H417.419V81.3H430.019V93.2H417.419V115.8C417.419 118.733 417.952 120.7 419.019 121.7C420.085 122.633 421.319 123.2 422.719 123.4L429.519 124V135H419.819ZM458.886 135.5C452.953 135.5 448.219 134.733 444.686 133.2C441.153 131.6 438.586 128.833 436.986 124.9C435.453 120.9 434.686 115.333 434.686 108.2C434.686 100.933 435.419 95.3 436.886 91.3C438.353 87.3 440.819 84.5 444.286 82.9C447.753 81.3 452.453 80.5 458.386 80.5C463.653 80.5 467.886 81.0333 471.086 82.1C474.353 83.1667 476.686 85.0333 478.086 87.7C479.553 90.3667 480.286 94.1333 480.286 99C480.286 104.467 478.719 108.233 475.586 110.3C472.453 112.367 468.219 113.4 462.886 113.4H449.386C449.453 116.133 449.853 118.3 450.586 119.9C451.319 121.5 452.619 122.667 454.486 123.4C456.419 124.133 459.186 124.5 462.786 124.5H478.486V133.2C475.886 133.733 473.019 134.267 469.886 134.8C466.819 135.267 463.153 135.5 458.886 135.5ZM449.186 104.6H461.386C463.386 104.6 464.853 104.2 465.786 103.4C466.719 102.533 467.186 101.1 467.186 99.1C467.186 96.1667 466.486 94.1333 465.086 93C463.753 91.8 461.519 91.2 458.386 91.2C454.986 91.2 452.586 92.1333 451.186 94C449.853 95.8 449.186 99.3333 449.186 104.6ZM487.997 135V81.3H500.197L502.797 86.8C505.13 85.0667 507.697 83.5667 510.497 82.3C513.297 81.0333 516.697 80.4 520.697 80.4C524.097 80.4 526.897 81.1333 529.097 82.6C531.297 84 532.997 85.8 534.197 88C535.73 86.8667 537.497 85.7333 539.497 84.6C541.564 83.4 543.764 82.4 546.097 81.6C548.43 80.8 550.73 80.4 552.997 80.4C557.33 80.4 560.73 81.2333 563.197 82.9C565.664 84.5 567.397 86.8 568.397 89.8C569.464 92.7333 569.997 96.2 569.997 100.2V135H555.197V101.5C555.197 98.9 554.497 96.9667 553.097 95.7C551.697 94.3667 549.83 93.7 547.497 93.7C545.497 93.7 543.464 94.1333 541.397 95C539.397 95.8 537.597 96.7667 535.997 97.9C536.264 99.2333 536.397 100.533 536.397 101.8V135H521.597V101.5C521.597 98.9 520.897 96.9667 519.497 95.7C518.097 94.3667 516.23 93.7 513.897 93.7C511.764 93.7 509.764 94.0667 507.897 94.8C506.097 95.5333 504.397 96.5 502.797 97.7V135H487.997ZM580.863 73.4C579.463 73.4 578.763 72.7333 578.763 71.4V61.6C578.763 60.2 579.463 59.5 580.863 59.5H592.263C593.53 59.5 594.163 60.2 594.163 61.6V71.4C594.163 72.7333 593.53 73.4 592.263 73.4H580.863ZM579.063 135V81.3H593.863V135H579.063ZM622.735 135.6C620.468 135.6 618.002 135.5 615.335 135.3C612.735 135.167 610.235 134.933 607.835 134.6C605.435 134.2 603.468 133.733 601.935 133.2V124.5H625.735C627.802 124.5 629.335 124.233 630.335 123.7C631.335 123.1 631.835 121.9 631.835 120.1V118.4C631.835 117.067 631.402 116.033 630.535 115.3C629.668 114.567 628.068 114.2 625.735 114.2H617.335C614.268 114.2 611.502 113.767 609.035 112.9C606.568 111.967 604.602 110.433 603.135 108.3C601.735 106.167 601.035 103.267 601.035 99.6V96.5C601.035 93.1 601.702 90.2333 603.035 87.9C604.368 85.5667 606.602 83.8 609.735 82.6C612.868 81.4 617.168 80.8 622.635 80.8C624.835 80.8 627.168 80.9333 629.635 81.2C632.168 81.4 634.535 81.7 636.735 82.1C639.002 82.5 640.802 82.9 642.135 83.3V92H619.635C617.702 92 616.235 92.3333 615.235 93C614.235 93.6 613.735 94.7667 613.735 96.5V98.1C613.735 99.8333 614.268 100.967 615.335 101.5C616.402 102.033 618.035 102.3 620.235 102.3H628.835C634.302 102.3 638.268 103.567 640.735 106.1C643.268 108.567 644.535 112 644.535 116.4V121.2C644.535 126.667 642.635 130.433 638.835 132.5C635.102 134.567 629.735 135.6 622.735 135.6ZM676.205 135V61H707.405C709.805 61 712.238 61.3 714.705 61.9C717.238 62.4333 719.538 63.5667 721.605 65.3C723.738 66.9667 725.438 69.5 726.705 72.9C728.038 76.3 728.705 80.8 728.705 86.4C728.705 92.0667 728.038 96.6333 726.705 100.1C725.438 103.5 723.771 106.1 721.705 107.9C719.638 109.7 717.405 110.9 715.005 111.5C712.605 112.1 710.271 112.4 708.005 112.4C706.405 112.4 704.471 112.3 702.205 112.1C700.005 111.9 697.871 111.667 695.805 111.4C693.738 111.133 692.138 110.933 691.005 110.8V135H676.205ZM691.005 99.1H705.705C708.305 99.1 710.305 98.1333 711.705 96.2C713.105 94.2667 713.805 91.0333 713.805 86.5C713.805 82.0333 713.071 78.9 711.605 77.1C710.205 75.2333 708.338 74.3 706.005 74.3H691.005V99.1ZM735.614 135V81.3H747.014L750.414 89.5C752.347 87.0333 754.514 84.9333 756.914 83.2C759.381 81.4667 762.281 80.6 765.614 80.6C766.347 80.6 767.081 80.6333 767.814 80.7C768.614 80.7667 769.347 80.9 770.014 81.1V96.3C768.947 96.1667 767.847 96.0667 766.714 96C765.647 95.8667 764.647 95.8 763.714 95.8C760.781 95.8 758.281 96.3 756.214 97.3C754.147 98.2333 752.214 99.6667 750.414 101.6V135H735.614ZM798.899 135.5C792.966 135.5 788.199 134.667 784.599 133C780.999 131.267 778.366 128.4 776.699 124.4C775.099 120.4 774.299 114.933 774.299 108C774.299 100.667 775.133 95.0333 776.799 91.1C778.466 87.1 781.099 84.3333 784.699 82.8C788.299 81.2667 793.033 80.5 798.899 80.5C804.833 80.5 809.599 81.3 813.199 82.9C816.866 84.5 819.499 87.3 821.099 91.3C822.766 95.3 823.599 100.867 823.599 108C823.599 115.133 822.799 120.7 821.199 124.7C819.599 128.7 816.999 131.5 813.399 133.1C809.799 134.7 804.966 135.5 798.899 135.5ZM798.899 123.7C801.233 123.7 803.133 123.367 804.599 122.7C806.066 122.033 807.133 120.6 807.799 118.4C808.466 116.133 808.799 112.667 808.799 108C808.799 103.267 808.466 99.8 807.799 97.6C807.133 95.4 806.066 93.9667 804.599 93.3C803.133 92.6333 801.233 92.3 798.899 92.3C796.566 92.3 794.666 92.6333 793.199 93.3C791.799 93.9667 790.766 95.4 790.099 97.6C789.433 99.8 789.099 103.267 789.099 108C789.099 112.667 789.433 116.133 790.099 118.4C790.766 120.6 791.799 122.033 793.199 122.7C794.666 123.367 796.566 123.7 798.899 123.7ZM851.819 135C845.619 135 841.152 133.6 838.419 130.8C835.752 128 834.519 123.033 834.719 115.9L835.219 93.2H826.819V83.7L835.719 81.3L837.719 66.3H849.419V81.3H862.019V93.2H849.419V115.8C849.419 118.733 849.952 120.7 851.019 121.7C852.085 122.633 853.319 123.2 854.719 123.4L861.519 124V135H851.819ZM891.286 135.5C885.353 135.5 880.586 134.667 876.986 133C873.386 131.267 870.753 128.4 869.086 124.4C867.486 120.4 866.686 114.933 866.686 108C866.686 100.667 867.519 95.0333 869.186 91.1C870.853 87.1 873.486 84.3333 877.086 82.8C880.686 81.2667 885.419 80.5 891.286 80.5C897.219 80.5 901.986 81.3 905.586 82.9C909.253 84.5 911.886 87.3 913.486 91.3C915.153 95.3 915.986 100.867 915.986 108C915.986 115.133 915.186 120.7 913.586 124.7C911.986 128.7 909.386 131.5 905.786 133.1C902.186 134.7 897.353 135.5 891.286 135.5ZM891.286 123.7C893.619 123.7 895.519 123.367 896.986 122.7C898.453 122.033 899.519 120.6 900.186 118.4C900.853 116.133 901.186 112.667 901.186 108C901.186 103.267 900.853 99.8 900.186 97.6C899.519 95.4 898.453 93.9667 896.986 93.3C895.519 92.6333 893.619 92.3 891.286 92.3C888.953 92.3 887.053 92.6333 885.586 93.3C884.186 93.9667 883.153 95.4 882.486 97.6C881.819 99.8 881.486 103.267 881.486 108C881.486 112.667 881.819 116.133 882.486 118.4C883.153 120.6 884.186 122.033 885.586 122.7C887.053 123.367 888.953 123.7 891.286 123.7ZM944.705 135.6C940.305 135.6 936.405 134.8 933.005 133.2C929.672 131.6 927.039 128.833 925.105 124.9C923.172 120.967 922.205 115.467 922.205 108.4C922.205 101.067 923.105 95.4 924.905 91.4C926.705 87.3333 929.305 84.5 932.705 82.9C936.105 81.3 940.239 80.5 945.105 80.5C948.372 80.5 951.472 80.7 954.405 81.1C957.405 81.4333 960.539 82.0667 963.805 83V91.5H949.705C946.639 91.5 944.172 91.9667 942.305 92.9C940.439 93.7667 939.072 95.4333 938.205 97.9C937.405 100.3 937.005 103.767 937.005 108.3C937.005 112.833 937.405 116.267 938.205 118.6C939.072 120.867 940.439 122.4 942.305 123.2C944.239 124 946.772 124.4 949.905 124.4H964.605V132.8C962.139 133.6 959.072 134.267 955.405 134.8C951.739 135.333 948.172 135.6 944.705 135.6ZM993.829 135.5C987.896 135.5 983.129 134.667 979.529 133C975.929 131.267 973.296 128.4 971.629 124.4C970.029 120.4 969.229 114.933 969.229 108C969.229 100.667 970.062 95.0333 971.729 91.1C973.396 87.1 976.029 84.3333 979.629 82.8C983.229 81.2667 987.962 80.5 993.829 80.5C999.762 80.5 1004.53 81.3 1008.13 82.9C1011.8 84.5 1014.43 87.3 1016.03 91.3C1017.7 95.3 1018.53 100.867 1018.53 108C1018.53 115.133 1017.73 120.7 1016.13 124.7C1014.53 128.7 1011.93 131.5 1008.33 133.1C1004.73 134.7 999.896 135.5 993.829 135.5ZM993.829 123.7C996.162 123.7 998.062 123.367 999.529 122.7C1001 122.033 1002.06 120.6 1002.73 118.4C1003.4 116.133 1003.73 112.667 1003.73 108C1003.73 103.267 1003.4 99.8 1002.73 97.6C1002.06 95.4 1001 93.9667 999.529 93.3C998.062 92.6333 996.162 92.3 993.829 92.3C991.496 92.3 989.596 92.6333 988.129 93.3C986.729 93.9667 985.696 95.4 985.029 97.6C984.362 99.8 984.029 103.267 984.029 108C984.029 112.667 984.362 116.133 985.029 118.4C985.696 120.6 986.729 122.033 988.129 122.7C989.596 123.367 991.496 123.7 993.829 123.7ZM1043.15 135.2C1037.48 135.2 1033.25 133.8 1030.45 131C1027.72 128.2 1026.35 123.767 1026.35 117.7V58.7H1041.15V115.5C1041.15 118.5 1041.62 120.6 1042.55 121.8C1043.48 122.933 1044.88 123.633 1046.75 123.9L1050.85 124.5V135.2H1043.15Z" fill="white"/>
<defs>
<linearGradient id="paint0_linear" x1="2.5034e-06" y1="92.8052" x2="1344" y2="92.8052" gradientUnits="userSpaceOnUse">
<stop stop-color="#333859" stop-opacity="0.04"/>
<stop offset="0.320833" stop-color="#34395A"/>
<stop offset="0.721875" stop-color="#363B5D"/>
<stop offset="1" stop-color="#373C5F" stop-opacity="0.02"/>
</linearGradient>
</defs>
</svg>
