<svg width="1438" height="796" viewBox="0 0 1438 796" fill="none" xmlns="http://www.w3.org/2000/svg">
<rect width="1414" height="138" transform="matrix(1 0 0 -1 24 415)" fill="url(#paint0_linear)"/>
<g filter="url(#filter0_f)">
<path d="M76.96 378.45C75.52 378.45 73.87 378.3 72.01 378C70.15 377.76 68.35 377.16 66.61 376.2C64.93 375.24 63.52 373.8 62.38 371.88C61.3 369.9 60.76 367.2 60.76 363.78V326.61C60.76 322.65 61.54 319.56 63.1 317.34C64.66 315.12 66.61 313.59 68.95 312.75C71.29 311.85 73.63 311.4 75.97 311.4C82.69 311.4 88.3 311.52 92.8 311.76C97.3 312 101.29 312.27 104.77 312.57V323.73H79.93C78.07 323.73 76.63 324.18 75.61 325.08C74.59 325.98 74.08 327.36 74.08 329.22V338.85L100.45 339.57V350.1L74.08 350.82V360C74.08 362.34 74.62 363.93 75.7 364.77C76.84 365.55 78.16 365.94 79.66 365.94H104.77V377.1C100.75 377.52 96.22 377.85 91.18 378.09C86.14 378.33 81.4 378.45 76.96 378.45ZM122.291 378.54C118.631 378.54 115.661 377.46 113.381 375.3C111.101 373.14 109.961 370.14 109.961 366.3V361.98C109.961 358.32 111.251 355.32 113.831 352.98C116.411 350.58 120.431 349.38 125.891 349.38H138.221V346.05C138.221 344.55 137.951 343.32 137.411 342.36C136.931 341.34 135.941 340.62 134.441 340.2C132.941 339.72 130.691 339.48 127.691 339.48H113.201V331.74C115.601 331.02 118.331 330.39 121.391 329.85C124.451 329.31 128.171 329.04 132.551 329.04C136.571 329.04 139.991 329.52 142.811 330.48C145.631 331.44 147.791 333.09 149.291 335.43C150.791 337.77 151.541 341.01 151.541 345.15V378H141.011L138.851 372.87C138.311 373.47 137.231 374.22 135.611 375.12C133.991 375.96 132.011 376.74 129.671 377.46C127.391 378.18 124.931 378.54 122.291 378.54ZM129.041 369.27C130.061 369.27 131.231 369.12 132.551 368.82C133.931 368.46 135.161 368.1 136.241 367.74C137.381 367.32 138.041 367.05 138.221 366.93V355.68L130.121 356.22C125.561 356.58 123.281 358.56 123.281 362.16V364.14C123.281 366.06 123.821 367.41 124.901 368.19C126.041 368.91 127.421 369.27 129.041 369.27ZM159.714 378V329.67H169.974L173.034 337.05C174.774 334.83 176.724 332.94 178.884 331.38C181.104 329.82 183.714 329.04 186.714 329.04C187.374 329.04 188.034 329.07 188.694 329.13C189.414 329.19 190.074 329.31 190.674 329.49V343.17C189.714 343.05 188.724 342.96 187.704 342.9C186.744 342.78 185.844 342.72 185.004 342.72C182.364 342.72 180.114 343.17 178.254 344.07C176.394 344.91 174.654 346.2 173.034 347.94V378H159.714ZM195.97 378V329.67H206.95L209.29 334.62C211.09 333.18 213.37 331.86 216.13 330.66C218.89 329.46 221.68 328.86 224.5 328.86C228.46 328.86 231.52 329.64 233.68 331.2C235.84 332.76 237.34 334.86 238.18 337.5C239.08 340.08 239.53 342.96 239.53 346.14V378H226.21V347.85C226.21 345.51 225.58 343.77 224.32 342.63C223.06 341.43 221.38 340.83 219.28 340.83C217.36 340.83 215.56 341.16 213.88 341.82C212.26 342.48 210.73 343.35 209.29 344.43V378H195.97ZM264.779 378L281.159 353.16L264.779 329.67H278.189L288.899 344.97L298.439 329.67H311.939L295.559 354.6L311.939 378H298.439L287.819 362.79L278.279 378H264.779ZM330.57 378V323.37H312.3V311.4H362.25V323.37H343.89V378H330.57ZM383.23 378.45C377.89 378.45 373.6 377.7 370.36 376.2C367.12 374.64 364.75 372.06 363.25 368.46C361.81 364.86 361.09 359.94 361.09 353.7C361.09 347.1 361.84 342.03 363.34 338.49C364.84 334.89 367.21 332.4 370.45 331.02C373.69 329.64 377.95 328.95 383.23 328.95C388.57 328.95 392.86 329.67 396.1 331.11C399.4 332.55 401.77 335.07 403.21 338.67C404.71 342.27 405.46 347.28 405.46 353.7C405.46 360.12 404.74 365.13 403.3 368.73C401.86 372.33 399.52 374.85 396.28 376.29C393.04 377.73 388.69 378.45 383.23 378.45ZM383.23 367.83C385.33 367.83 387.04 367.53 388.36 366.93C389.68 366.33 390.64 365.04 391.24 363.06C391.84 361.02 392.14 357.9 392.14 353.7C392.14 349.44 391.84 346.32 391.24 344.34C390.64 342.36 389.68 341.07 388.36 340.47C387.04 339.87 385.33 339.57 383.23 339.57C381.13 339.57 379.42 339.87 378.1 340.47C376.84 341.07 375.91 342.36 375.31 344.34C374.71 346.32 374.41 349.44 374.41 353.7C374.41 357.9 374.71 361.02 375.31 363.06C375.91 365.04 376.84 366.33 378.1 366.93C379.42 367.53 381.13 367.83 383.23 367.83ZM412.498 378V309.33H425.818V346.41H431.488L442.108 329.67H455.608L441.388 352.44L457.048 378H443.548L431.308 358.38H425.818V378H412.498ZM480.872 378.45C475.532 378.45 471.272 377.76 468.092 376.38C464.912 374.94 462.602 372.45 461.162 368.91C459.782 365.31 459.092 360.3 459.092 353.88C459.092 347.34 459.752 342.27 461.072 338.67C462.392 335.07 464.612 332.55 467.732 331.11C470.852 329.67 475.082 328.95 480.422 328.95C485.162 328.95 488.972 329.43 491.852 330.39C494.792 331.35 496.892 333.03 498.152 335.43C499.472 337.83 500.132 341.22 500.132 345.6C500.132 350.52 498.722 353.91 495.902 355.77C493.082 357.63 489.272 358.56 484.472 358.56H472.322C472.382 361.02 472.742 362.97 473.402 364.41C474.062 365.85 475.232 366.9 476.912 367.56C478.652 368.22 481.142 368.55 484.382 368.55H498.512V376.38C496.172 376.86 493.592 377.34 490.772 377.82C488.012 378.24 484.712 378.45 480.872 378.45ZM472.142 350.64H483.122C484.922 350.64 486.242 350.28 487.082 349.56C487.922 348.78 488.342 347.49 488.342 345.69C488.342 343.05 487.712 341.22 486.452 340.2C485.252 339.12 483.242 338.58 480.422 338.58C477.362 338.58 475.202 339.42 473.942 341.1C472.742 342.72 472.142 345.9 472.142 350.64ZM507.071 378V329.67H518.051L520.391 334.62C522.191 333.18 524.471 331.86 527.231 330.66C529.991 329.46 532.781 328.86 535.601 328.86C539.561 328.86 542.621 329.64 544.781 331.2C546.941 332.76 548.441 334.86 549.281 337.5C550.181 340.08 550.631 342.96 550.631 346.14V378H537.311V347.85C537.311 345.51 536.681 343.77 535.421 342.63C534.161 341.43 532.481 340.83 530.381 340.83C528.461 340.83 526.661 341.16 524.981 341.82C523.361 342.48 521.831 343.35 520.391 344.43V378H507.071Z" fill="white"/>
</g>
<path d="M80.83 248.54C77.41 248.54 73.75 248.36 69.85 248C66.01 247.58 62.71 247.01 59.95 246.29V235.76C62.59 236 65.77 236.21 69.49 236.39C73.27 236.51 76.84 236.57 80.2 236.57C83.62 236.57 86.32 236.12 88.3 235.22C90.28 234.26 91.27 232.46 91.27 229.82V227.39C91.27 225.41 90.67 223.91 89.47 222.89C88.27 221.81 86.62 221.27 84.52 221.27H78.85C72.49 221.27 67.6 219.89 64.18 217.13C60.82 214.31 59.14 209.54 59.14 202.82V199.58C59.14 193.1 60.97 188.36 64.63 185.36C68.35 182.36 73.69 180.86 80.65 180.86C84.31 180.86 87.94 181.1 91.54 181.58C95.2 182.06 98.29 182.57 100.81 183.11V193.64C98.05 193.46 94.96 193.28 91.54 193.1C88.18 192.92 85.06 192.83 82.18 192.83C79.06 192.83 76.54 193.31 74.62 194.27C72.76 195.23 71.83 197.21 71.83 200.21V202.01C71.83 204.35 72.49 206.03 73.81 207.05C75.13 208.07 77.08 208.58 79.66 208.58H86.23C92.17 208.58 96.61 210.2 99.55 213.44C102.49 216.68 103.96 220.76 103.96 225.68V229.46C103.96 234.68 102.97 238.67 100.99 241.43C99.07 244.19 96.37 246.08 92.89 247.1C89.47 248.06 85.45 248.54 80.83 248.54ZM129.688 248C124.108 248 120.088 246.74 117.628 244.22C115.228 241.7 114.118 237.23 114.298 230.81L114.748 210.38H107.188V201.83L115.198 199.67L116.998 186.17H127.528V199.67H138.868V210.38H127.528V230.72C127.528 233.36 128.008 235.13 128.968 236.03C129.928 236.87 131.038 237.38 132.298 237.56L138.418 238.1V248H129.688ZM154.769 248.54C151.109 248.54 148.139 247.46 145.859 245.3C143.579 243.14 142.439 240.14 142.439 236.3V231.98C142.439 228.32 143.729 225.32 146.309 222.98C148.889 220.58 152.909 219.38 158.369 219.38H170.699V216.05C170.699 214.55 170.429 213.32 169.889 212.36C169.409 211.34 168.419 210.62 166.919 210.2C165.419 209.72 163.169 209.48 160.169 209.48H145.679V201.74C148.079 201.02 150.809 200.39 153.869 199.85C156.929 199.31 160.649 199.04 165.029 199.04C169.049 199.04 172.469 199.52 175.289 200.48C178.109 201.44 180.269 203.09 181.769 205.43C183.269 207.77 184.019 211.01 184.019 215.15V248H173.489L171.329 242.87C170.789 243.47 169.709 244.22 168.089 245.12C166.469 245.96 164.489 246.74 162.149 247.46C159.869 248.18 157.409 248.54 154.769 248.54ZM161.519 239.27C162.539 239.27 163.709 239.12 165.029 238.82C166.409 238.46 167.639 238.1 168.719 237.74C169.859 237.32 170.519 237.05 170.699 236.93V225.68L162.599 226.22C158.039 226.58 155.759 228.56 155.759 232.16V234.14C155.759 236.06 156.299 237.41 157.379 238.19C158.519 238.91 159.899 239.27 161.519 239.27ZM192.191 248V179.33H205.511V216.41H211.181L221.801 199.67H235.301L221.081 222.44L236.741 248H223.241L211.001 228.38H205.511V248H192.191ZM260.565 248.45C255.225 248.45 250.965 247.76 247.785 246.38C244.605 244.94 242.295 242.45 240.855 238.91C239.475 235.31 238.785 230.3 238.785 223.88C238.785 217.34 239.445 212.27 240.765 208.67C242.085 205.07 244.305 202.55 247.425 201.11C250.545 199.67 254.775 198.95 260.115 198.95C264.855 198.95 268.665 199.43 271.545 200.39C274.485 201.35 276.585 203.03 277.845 205.43C279.165 207.83 279.825 211.22 279.825 215.6C279.825 220.52 278.415 223.91 275.595 225.77C272.775 227.63 268.965 228.56 264.165 228.56H252.015C252.075 231.02 252.435 232.97 253.095 234.41C253.755 235.85 254.925 236.9 256.605 237.56C258.345 238.22 260.835 238.55 264.075 238.55H278.205V246.38C275.865 246.86 273.285 247.34 270.465 247.82C267.705 248.24 264.405 248.45 260.565 248.45ZM251.835 220.64H262.815C264.615 220.64 265.935 220.28 266.775 219.56C267.615 218.78 268.035 217.49 268.035 215.69C268.035 213.05 267.405 211.22 266.145 210.2C264.945 209.12 262.935 208.58 260.115 208.58C257.055 208.58 254.895 209.42 253.635 211.1C252.435 212.72 251.835 215.9 251.835 220.64ZM306.998 248L314.738 181.4H327.518L342.818 232.43L358.028 181.4H370.718L378.548 248H365.678L360.548 204.35L348.938 248H336.428L324.818 204.89L319.868 248H306.998ZM386.451 248V181.4H399.771V248H386.451ZM429.594 248.54C426.174 248.54 422.514 248.36 418.614 248C414.774 247.58 411.474 247.01 408.714 246.29V235.76C411.354 236 414.534 236.21 418.254 236.39C422.034 236.51 425.604 236.57 428.964 236.57C432.384 236.57 435.084 236.12 437.064 235.22C439.044 234.26 440.034 232.46 440.034 229.82V227.39C440.034 225.41 439.434 223.91 438.234 222.89C437.034 221.81 435.384 221.27 433.284 221.27H427.614C421.254 221.27 416.364 219.89 412.944 217.13C409.584 214.31 407.904 209.54 407.904 202.82V199.58C407.904 193.1 409.734 188.36 413.394 185.36C417.114 182.36 422.454 180.86 429.414 180.86C433.074 180.86 436.704 181.1 440.304 181.58C443.964 182.06 447.054 182.57 449.574 183.11V193.64C446.814 193.46 443.724 193.28 440.304 193.1C436.944 192.92 433.824 192.83 430.944 192.83C427.824 192.83 425.304 193.31 423.384 194.27C421.524 195.23 420.594 197.21 420.594 200.21V202.01C420.594 204.35 421.254 206.03 422.574 207.05C423.894 208.07 425.844 208.58 428.424 208.58H434.994C440.934 208.58 445.374 210.2 448.314 213.44C451.254 216.68 452.724 220.76 452.724 225.68V229.46C452.724 234.68 451.734 238.67 449.754 241.43C447.834 244.19 445.134 246.08 441.654 247.1C438.234 248.06 434.214 248.54 429.594 248.54ZM458.26 227.3V216.5H485.8V227.3H458.26ZM486.755 248L503.135 223.16L486.755 199.67H500.165L510.875 214.97L520.415 199.67H533.915L517.535 224.6L533.915 248H520.415L509.795 232.79L500.255 248H486.755ZM552.547 248V193.37H534.277V181.4H584.227V193.37H565.867V248H552.547ZM605.207 248.45C599.867 248.45 595.577 247.7 592.337 246.2C589.097 244.64 586.727 242.06 585.227 238.46C583.787 234.86 583.067 229.94 583.067 223.7C583.067 217.1 583.817 212.03 585.317 208.49C586.817 204.89 589.187 202.4 592.427 201.02C595.667 199.64 599.927 198.95 605.207 198.95C610.547 198.95 614.837 199.67 618.077 201.11C621.377 202.55 623.747 205.07 625.187 208.67C626.687 212.27 627.437 217.28 627.437 223.7C627.437 230.12 626.717 235.13 625.277 238.73C623.837 242.33 621.497 244.85 618.257 246.29C615.017 247.73 610.667 248.45 605.207 248.45ZM605.207 237.83C607.307 237.83 609.017 237.53 610.337 236.93C611.657 236.33 612.617 235.04 613.217 233.06C613.817 231.02 614.117 227.9 614.117 223.7C614.117 219.44 613.817 216.32 613.217 214.34C612.617 212.36 611.657 211.07 610.337 210.47C609.017 209.87 607.307 209.57 605.207 209.57C603.107 209.57 601.397 209.87 600.077 210.47C598.817 211.07 597.887 212.36 597.287 214.34C596.687 216.32 596.387 219.44 596.387 223.7C596.387 227.9 596.687 231.02 597.287 233.06C597.887 235.04 598.817 236.33 600.077 236.93C601.397 237.53 603.107 237.83 605.207 237.83ZM634.474 248V179.33H647.794V216.41H653.464L664.084 199.67H677.584L663.364 222.44L679.024 248H665.524L653.284 228.38H647.794V248H634.474ZM702.848 248.45C697.508 248.45 693.248 247.76 690.068 246.38C686.888 244.94 684.578 242.45 683.138 238.91C681.758 235.31 681.068 230.3 681.068 223.88C681.068 217.34 681.728 212.27 683.048 208.67C684.368 205.07 686.588 202.55 689.708 201.11C692.828 199.67 697.058 198.95 702.398 198.95C707.138 198.95 710.948 199.43 713.828 200.39C716.768 201.35 718.868 203.03 720.128 205.43C721.448 207.83 722.108 211.22 722.108 215.6C722.108 220.52 720.698 223.91 717.878 225.77C715.058 227.63 711.248 228.56 706.448 228.56H694.298C694.358 231.02 694.718 232.97 695.378 234.41C696.038 235.85 697.208 236.9 698.888 237.56C700.628 238.22 703.118 238.55 706.358 238.55H720.488V246.38C718.148 246.86 715.568 247.34 712.748 247.82C709.988 248.24 706.688 248.45 702.848 248.45ZM694.118 220.64H705.098C706.898 220.64 708.218 220.28 709.058 219.56C709.898 218.78 710.318 217.49 710.318 215.69C710.318 213.05 709.688 211.22 708.428 210.2C707.228 209.12 705.218 208.58 702.398 208.58C699.338 208.58 697.178 209.42 695.918 211.1C694.718 212.72 694.118 215.9 694.118 220.64ZM729.048 248V199.67H740.028L742.368 204.62C744.168 203.18 746.448 201.86 749.208 200.66C751.968 199.46 754.758 198.86 757.578 198.86C761.538 198.86 764.598 199.64 766.758 201.2C768.918 202.76 770.418 204.86 771.258 207.5C772.158 210.08 772.608 212.96 772.608 216.14V248H759.288V217.85C759.288 215.51 758.658 213.77 757.398 212.63C756.138 211.43 754.458 210.83 752.358 210.83C750.438 210.83 748.638 211.16 746.958 211.82C745.338 212.48 743.808 213.35 742.368 214.43V248H729.048Z" fill="#272727"/>
<path d="M76.96 378.45C75.52 378.45 73.87 378.3 72.01 378C70.15 377.76 68.35 377.16 66.61 376.2C64.93 375.24 63.52 373.8 62.38 371.88C61.3 369.9 60.76 367.2 60.76 363.78V326.61C60.76 322.65 61.54 319.56 63.1 317.34C64.66 315.12 66.61 313.59 68.95 312.75C71.29 311.85 73.63 311.4 75.97 311.4C82.69 311.4 88.3 311.52 92.8 311.76C97.3 312 101.29 312.27 104.77 312.57V323.73H79.93C78.07 323.73 76.63 324.18 75.61 325.08C74.59 325.98 74.08 327.36 74.08 329.22V338.85L100.45 339.57V350.1L74.08 350.82V360C74.08 362.34 74.62 363.93 75.7 364.77C76.84 365.55 78.16 365.94 79.66 365.94H104.77V377.1C100.75 377.52 96.22 377.85 91.18 378.09C86.14 378.33 81.4 378.45 76.96 378.45ZM122.291 378.54C118.631 378.54 115.661 377.46 113.381 375.3C111.101 373.14 109.961 370.14 109.961 366.3V361.98C109.961 358.32 111.251 355.32 113.831 352.98C116.411 350.58 120.431 349.38 125.891 349.38H138.221V346.05C138.221 344.55 137.951 343.32 137.411 342.36C136.931 341.34 135.941 340.62 134.441 340.2C132.941 339.72 130.691 339.48 127.691 339.48H113.201V331.74C115.601 331.02 118.331 330.39 121.391 329.85C124.451 329.31 128.171 329.04 132.551 329.04C136.571 329.04 139.991 329.52 142.811 330.48C145.631 331.44 147.791 333.09 149.291 335.43C150.791 337.77 151.541 341.01 151.541 345.15V378H141.011L138.851 372.87C138.311 373.47 137.231 374.22 135.611 375.12C133.991 375.96 132.011 376.74 129.671 377.46C127.391 378.18 124.931 378.54 122.291 378.54ZM129.041 369.27C130.061 369.27 131.231 369.12 132.551 368.82C133.931 368.46 135.161 368.1 136.241 367.74C137.381 367.32 138.041 367.05 138.221 366.93V355.68L130.121 356.22C125.561 356.58 123.281 358.56 123.281 362.16V364.14C123.281 366.06 123.821 367.41 124.901 368.19C126.041 368.91 127.421 369.27 129.041 369.27ZM159.714 378V329.67H169.974L173.034 337.05C174.774 334.83 176.724 332.94 178.884 331.38C181.104 329.82 183.714 329.04 186.714 329.04C187.374 329.04 188.034 329.07 188.694 329.13C189.414 329.19 190.074 329.31 190.674 329.49V343.17C189.714 343.05 188.724 342.96 187.704 342.9C186.744 342.78 185.844 342.72 185.004 342.72C182.364 342.72 180.114 343.17 178.254 344.07C176.394 344.91 174.654 346.2 173.034 347.94V378H159.714ZM195.97 378V329.67H206.95L209.29 334.62C211.09 333.18 213.37 331.86 216.13 330.66C218.89 329.46 221.68 328.86 224.5 328.86C228.46 328.86 231.52 329.64 233.68 331.2C235.84 332.76 237.34 334.86 238.18 337.5C239.08 340.08 239.53 342.96 239.53 346.14V378H226.21V347.85C226.21 345.51 225.58 343.77 224.32 342.63C223.06 341.43 221.38 340.83 219.28 340.83C217.36 340.83 215.56 341.16 213.88 341.82C212.26 342.48 210.73 343.35 209.29 344.43V378H195.97ZM264.779 378L281.159 353.16L264.779 329.67H278.189L288.899 344.97L298.439 329.67H311.939L295.559 354.6L311.939 378H298.439L287.819 362.79L278.279 378H264.779ZM330.57 378V323.37H312.3V311.4H362.25V323.37H343.89V378H330.57ZM383.23 378.45C377.89 378.45 373.6 377.7 370.36 376.2C367.12 374.64 364.75 372.06 363.25 368.46C361.81 364.86 361.09 359.94 361.09 353.7C361.09 347.1 361.84 342.03 363.34 338.49C364.84 334.89 367.21 332.4 370.45 331.02C373.69 329.64 377.95 328.95 383.23 328.95C388.57 328.95 392.86 329.67 396.1 331.11C399.4 332.55 401.77 335.07 403.21 338.67C404.71 342.27 405.46 347.28 405.46 353.7C405.46 360.12 404.74 365.13 403.3 368.73C401.86 372.33 399.52 374.85 396.28 376.29C393.04 377.73 388.69 378.45 383.23 378.45ZM383.23 367.83C385.33 367.83 387.04 367.53 388.36 366.93C389.68 366.33 390.64 365.04 391.24 363.06C391.84 361.02 392.14 357.9 392.14 353.7C392.14 349.44 391.84 346.32 391.24 344.34C390.64 342.36 389.68 341.07 388.36 340.47C387.04 339.87 385.33 339.57 383.23 339.57C381.13 339.57 379.42 339.87 378.1 340.47C376.84 341.07 375.91 342.36 375.31 344.34C374.71 346.32 374.41 349.44 374.41 353.7C374.41 357.9 374.71 361.02 375.31 363.06C375.91 365.04 376.84 366.33 378.1 366.93C379.42 367.53 381.13 367.83 383.23 367.83ZM412.498 378V309.33H425.818V346.41H431.488L442.108 329.67H455.608L441.388 352.44L457.048 378H443.548L431.308 358.38H425.818V378H412.498ZM480.872 378.45C475.532 378.45 471.272 377.76 468.092 376.38C464.912 374.94 462.602 372.45 461.162 368.91C459.782 365.31 459.092 360.3 459.092 353.88C459.092 347.34 459.752 342.27 461.072 338.67C462.392 335.07 464.612 332.55 467.732 331.11C470.852 329.67 475.082 328.95 480.422 328.95C485.162 328.95 488.972 329.43 491.852 330.39C494.792 331.35 496.892 333.03 498.152 335.43C499.472 337.83 500.132 341.22 500.132 345.6C500.132 350.52 498.722 353.91 495.902 355.77C493.082 357.63 489.272 358.56 484.472 358.56H472.322C472.382 361.02 472.742 362.97 473.402 364.41C474.062 365.85 475.232 366.9 476.912 367.56C478.652 368.22 481.142 368.55 484.382 368.55H498.512V376.38C496.172 376.86 493.592 377.34 490.772 377.82C488.012 378.24 484.712 378.45 480.872 378.45ZM472.142 350.64H483.122C484.922 350.64 486.242 350.28 487.082 349.56C487.922 348.78 488.342 347.49 488.342 345.69C488.342 343.05 487.712 341.22 486.452 340.2C485.252 339.12 483.242 338.58 480.422 338.58C477.362 338.58 475.202 339.42 473.942 341.1C472.742 342.72 472.142 345.9 472.142 350.64ZM507.071 378V329.67H518.051L520.391 334.62C522.191 333.18 524.471 331.86 527.231 330.66C529.991 329.46 532.781 328.86 535.601 328.86C539.561 328.86 542.621 329.64 544.781 331.2C546.941 332.76 548.441 334.86 549.281 337.5C550.181 340.08 550.631 342.96 550.631 346.14V378H537.311V347.85C537.311 345.51 536.681 343.77 535.421 342.63C534.161 341.43 532.481 340.83 530.381 340.83C528.461 340.83 526.661 341.16 524.981 341.82C523.361 342.48 521.831 343.35 520.391 344.43V378H507.071Z" fill="white"/>
<path d="M841.293 144.644L803.195 147.65L1042.92 8.30325C1061.96 -2.76775 1085.48 -2.76775 1104.52 8.30325L856.147 153.282L841.293 144.644Z" fill="url(#paint1_linear)"/>
<path d="M543.527 576.417V694.379L547.794 696.829V691.893L572.476 677.489V559.281C572.487 557.38 571.928 555.519 570.871 553.939L572.035 553.446L567.839 551.048L567.345 550.766C564.371 549.171 560.773 549.275 557.896 551.039C549 556.397 543.564 566.025 543.571 576.408L543.527 576.417Z" fill="url(#paint2_linear)"/>
<path d="M576.706 561.677V679.947L547.828 696.827V578.866C547.83 568.48 553.268 558.852 562.161 553.488C565.125 551.696 568.823 551.637 571.842 553.335C574.861 555.032 576.732 558.223 576.741 561.686L576.706 561.677Z" fill="url(#paint3_linear)"/>
<path d="M1024.48 569.214L1137.47 503.102L997.311 420.427L956.656 532.191L1024.48 569.214Z" fill="url(#paint4_linear)"/>
<path d="M1024.48 589.11L841.293 482.45V465.278L1024.48 569.215V589.11Z" fill="url(#paint5_linear)"/>
<path d="M841.293 385.934L1060.26 256.672V46.1543L841.293 174.27" fill="url(#paint6_linear)"/>
<path d="M790.898 173.653V453.086L841.293 482.44V144.669C830.924 138.611 818.105 138.567 807.695 144.555C797.285 150.542 790.876 161.644 790.898 173.653Z" fill="url(#paint7_linear)"/>
<path d="M531 571.207C530.975 573.942 532.175 576.546 534.271 578.303C534.685 578.629 535.152 578.973 535.655 579.299L701.419 676.537L697.012 668.929L1322.87 295.177L1162.92 200.857C1156.52 197.111 1148.59 197.111 1142.18 200.857L543.509 549.47C535.773 553.978 531.011 562.253 531 571.207Z" fill="url(#paint8_linear)"/>
<path opacity="0.2" d="M556.51 541.896L549.996 545.696L729.635 649.421L736.079 645.578L556.51 541.896Z" fill="white"/>
<path opacity="0.2" d="M612.105 509.503L605.582 513.302L784.525 616.613L790.951 612.779L612.105 509.503Z" fill="white"/>
<path opacity="0.2" d="M667.709 477.142L661.203 480.941L839.441 583.846L845.876 580.012L667.709 477.142Z" fill="white"/>
<path opacity="0.2" d="M723.308 444.748L716.785 448.547L894.344 551.065L900.788 547.23L723.308 444.748Z" fill="white"/>
<path opacity="0.2" d="M778.894 412.37L772.371 416.169L949.243 518.317L955.686 514.482L778.894 412.37Z" fill="white"/>
<path opacity="0.2" d="M996.311 480.978C996.803 481.266 997.364 481.416 997.933 481.41C999.466 481.477 1000.84 480.469 1001.24 478.987C1001.63 477.504 1000.94 475.946 999.582 475.24L834.478 379.924L827.938 383.723L996.311 480.978Z" fill="white"/>
<path opacity="0.2" d="M1039.86 441.626C1040.36 441.902 1040.92 442.05 1041.5 442.058C1042.97 442.047 1044.26 441.051 1044.64 439.625C1045.02 438.199 1044.4 436.695 1043.13 435.95L890.084 347.615L883.543 351.414L1039.86 441.626Z" fill="white"/>
<path opacity="0.2" d="M1083.41 402.313C1083.91 402.595 1084.48 402.744 1085.05 402.745C1086.53 402.746 1087.82 401.758 1088.21 400.333C1088.6 398.909 1087.98 397.401 1086.71 396.654L945.671 315.23L939.121 319.03L1083.41 402.313Z" fill="white"/>
<path d="M1326.04 302.175C1326.04 311.364 1321.16 319.862 1313.22 324.494L710.446 676.43C707.629 678.024 704.18 678.014 701.372 676.403C698.564 674.793 696.813 671.821 696.766 668.585C696.768 659.4 701.643 650.907 709.574 646.274L1312.34 294.32C1315.16 292.718 1318.61 292.723 1321.43 294.334C1324.24 295.946 1325.99 298.924 1326.04 302.166V302.175Z" fill="url(#paint9_linear)"/>
<path d="M1147.16 321.72L1147.35 336.123C1147.15 342.815 1144.17 349.119 1139.12 353.524C1122.79 369.391 1087.56 374.75 1060.4 365.503C1056.74 364.289 1053.2 362.743 1049.82 360.884C1038.73 354.714 1032.68 346.199 1032.58 337.463L1032.4 323.06C1032.52 331.795 1038.57 340.293 1049.65 346.481C1053.03 348.341 1056.57 349.887 1060.23 351.1C1087.37 360.347 1122.62 355.023 1138.96 339.12C1144.02 334.734 1147 328.416 1147.16 321.72Z" fill="url(#paint10_linear)"/>
<path d="M1147.16 321.719L1147.35 336.122V336.625L1147.18 322.23V321.719" fill="url(#paint11_linear)"/>
<path d="M1146.84 325.483C1146.63 326.575 1146.34 327.649 1145.96 328.692C1145.55 329.818 1145.06 330.912 1144.48 331.962C1143.82 333.169 1143.07 334.327 1142.24 335.426C1141.22 336.732 1140.12 337.964 1138.93 339.111L1138.67 339.358C1136.45 341.451 1134.02 343.309 1131.42 344.902C1127.3 347.409 1122.9 349.44 1118.32 350.958C1114.76 352.164 1111.12 353.127 1107.43 353.841C1105.02 354.317 1102.56 354.722 1100.07 354.978C1097.98 355.225 1095.86 355.401 1093.74 355.507C1091.61 355.613 1089.81 355.639 1087.9 355.613C1085.99 355.586 1084.15 355.533 1082.29 355.401C1080.43 355.269 1078.59 355.101 1076.76 354.863C1074.92 354.625 1072.96 354.326 1071.09 353.982C1069.22 353.638 1067.02 353.1 1065.04 352.598C1063.39 352.148 1061.76 351.663 1060.16 351.126C1059.42 350.879 1058.71 350.614 1058 350.35C1055.11 349.276 1052.31 347.988 1049.62 346.498C1038.51 340.327 1032.48 331.812 1032.38 323.077L1032.54 337.48C1032.65 346.216 1038.71 354.713 1049.78 360.901C1052.48 362.392 1055.28 363.679 1058.17 364.754C1058.87 365.018 1059.59 365.283 1060.33 365.529C1061.93 366.076 1063.55 366.561 1065.21 367.001C1067.2 367.53 1069.21 367.992 1071.26 368.385C1073.29 368.773 1075.02 369.055 1076.93 369.267C1078.83 369.478 1080.62 369.672 1082.46 369.805C1084.3 369.937 1086.19 369.998 1088.07 370.016C1089.95 370.034 1091.99 370.016 1093.9 369.91C1095.82 369.805 1098.16 369.619 1100.26 369.381C1102.74 369.099 1105.2 368.72 1107.61 368.244C1111.3 367.535 1114.94 366.574 1118.5 365.371C1123.08 363.853 1127.47 361.821 1131.6 359.315C1134.19 357.714 1136.62 355.856 1138.85 353.77L1139.1 353.532C1140.28 352.377 1141.38 351.143 1142.39 349.839C1143.22 348.741 1143.97 347.586 1144.64 346.383C1145.22 345.334 1145.71 344.24 1146.11 343.113C1146.5 342.071 1146.8 340.997 1147 339.904C1147.19 338.83 1147.3 337.743 1147.32 336.652L1147.14 322.248C1147.13 323.333 1147.03 324.416 1146.84 325.483Z" fill="#4C68EF"/>
<path d="M1065.12 354.573C1067.1 355.111 1069.13 355.569 1071.17 355.957C1073.2 356.345 1074.94 356.627 1076.84 356.839C1078.73 357.05 1080.52 357.244 1082.38 357.368C1084.24 357.491 1086.11 357.57 1087.98 357.579C1089.85 357.588 1091.9 357.579 1093.82 357.473C1095.74 357.368 1098.06 357.191 1100.16 356.953C1102.65 356.662 1105.11 356.283 1107.51 355.807C1111.2 355.093 1114.84 354.133 1118.41 352.934C1122.98 351.409 1127.38 349.374 1131.5 346.869C1134.1 345.277 1136.54 343.416 1138.75 341.316L1139.02 341.069C1140.21 339.917 1141.31 338.68 1142.31 337.366C1143.15 336.283 1143.91 335.137 1144.57 333.937C1145.14 332.883 1145.64 331.787 1146.04 330.658C1146.42 329.616 1146.71 328.547 1146.92 327.458C1147.13 326.383 1147.24 325.292 1147.25 324.197V322.311C1147.21 324.485 1146.81 326.638 1146.07 328.684C1145.67 329.81 1145.18 330.903 1144.61 331.954C1143.94 333.16 1143.18 334.315 1142.35 335.41C1141.34 336.72 1140.24 337.954 1139.05 339.103L1138.79 339.35C1136.57 341.44 1134.14 343.295 1131.53 344.886C1127.41 347.398 1123.02 349.433 1118.43 350.95C1114.87 352.157 1111.24 353.12 1107.55 353.833C1105.13 354.3 1102.67 354.714 1100.19 354.97C1098.1 355.217 1095.97 355.393 1093.86 355.499C1091.74 355.605 1089.94 355.622 1088.01 355.605C1086.09 355.587 1084.27 355.508 1082.41 355.393C1080.55 355.278 1078.7 355.093 1076.87 354.855C1075.04 354.617 1073.07 354.318 1071.2 353.974C1069.33 353.63 1067.13 353.092 1065.16 352.581C1063.51 352.14 1061.87 351.655 1060.27 351.109C1059.53 350.871 1058.82 350.606 1058.11 350.342C1055.23 349.266 1052.43 347.978 1049.73 346.49C1038.63 340.319 1032.59 331.804 1032.49 323.069V325.193C1032.66 333.867 1038.66 342.312 1049.73 348.482C1052.42 349.973 1055.23 351.258 1058.11 352.325C1058.82 352.59 1059.53 352.854 1060.27 353.101C1061.86 353.675 1063.48 354.166 1065.12 354.573Z" fill="white"/>
<path d="M1129.92 298.087C1148.51 308.453 1152.93 325.316 1138.95 338.891C1122.61 354.758 1087.37 360.117 1060.23 350.87C1056.57 349.658 1053.03 348.111 1049.65 346.251C1031.04 335.885 1026.63 319.004 1040.62 305.429C1056.94 289.562 1092.19 284.203 1119.32 293.45C1122.99 294.674 1126.53 296.226 1129.92 298.087Z" fill="#4C68EF"/>
<path d="M1121.9 302.564C1136.78 310.859 1140.32 324.363 1129.12 335.232C1116.03 347.917 1087.83 352.254 1066.09 344.814C1063.17 343.833 1060.35 342.595 1057.65 341.112C1042.77 332.808 1039.24 319.312 1050.42 308.444C1063.52 295.75 1091.72 291.422 1113.45 298.853C1116.37 299.831 1119.2 301.073 1121.9 302.564Z" fill="#4C68EF"/>
<path d="M1123.73 301.436C1120.88 299.867 1117.89 298.554 1114.8 297.513C1091.82 289.668 1062.01 294.225 1048.18 307.65C1036.4 319.11 1040.1 333.39 1055.82 342.169C1058.67 343.747 1061.66 345.06 1064.74 346.092C1087.72 353.937 1117.54 349.38 1131.37 335.972C1143.2 324.478 1139.48 310.206 1123.73 301.436ZM1129.12 335.197C1116.03 347.89 1087.83 352.218 1066.09 344.779C1063.17 343.806 1060.34 342.567 1057.65 341.076C1042.77 332.781 1039.24 319.277 1050.42 308.408C1063.52 295.724 1091.72 291.387 1113.45 298.826C1116.37 299.805 1119.2 301.044 1121.9 302.529C1136.78 310.832 1140.31 324.337 1129.12 335.206V335.197Z" fill="white"/>
<path d="M1072.95 314.905C1077.92 312.874 1083.36 312.264 1088.66 313.142C1089.83 313.338 1090.99 313.6 1092.13 313.927C1093.36 314.314 1094.7 314.245 1095.88 313.733L1104.45 309.325L1112.3 314.561L1103.72 318.969C1102.73 319.462 1102.41 320.282 1102.84 321.023C1105.39 325.174 1103.44 329.67 1097.68 332.597C1089.05 336.476 1079.08 335.917 1070.94 331.098C1063.82 326.338 1064.25 319.313 1071.92 315.381C1072.22 315.231 1072.58 315.081 1072.95 314.905Z" fill="white"/>
<path d="M1104.16 309.66L1111.67 314.658C1111.76 314.705 1111.8 314.818 1111.75 314.913C1111.74 314.953 1111.71 314.985 1111.67 315.002C1111.49 315.09 1111.27 315.09 1111.09 315.002L1103.57 310.004C1103.48 309.953 1103.45 309.843 1103.49 309.748C1103.51 309.71 1103.54 309.68 1103.57 309.66C1103.76 309.571 1103.97 309.571 1104.16 309.66ZM1105.75 308.849C1104.65 308.18 1103.28 308.1 1102.1 308.637C1101.5 308.82 1101.16 309.453 1101.34 310.056C1101.43 310.378 1101.66 310.64 1101.97 310.77L1109.47 315.777C1110.58 316.445 1111.95 316.521 1113.12 315.98C1113.58 315.845 1113.9 315.437 1113.93 314.96C1113.96 314.482 1113.69 314.038 1113.25 313.847L1105.75 308.849Z" fill="white"/>
<path d="M1074.05 317.92C1068.27 320.864 1067.98 326.18 1073.4 329.794C1076.45 331.68 1079.94 332.732 1083.53 332.844C1086.61 333.071 1089.7 332.626 1092.6 331.539C1091.91 329.819 1090.67 328.377 1089.07 327.44C1086.05 325.457 1080.71 324.937 1076.95 321.675C1075.72 320.649 1074.73 319.368 1074.05 317.92Z" fill="#4C68EF"/>
<path d="M1320.01 305.664C1320.02 311.131 1317.12 316.189 1312.4 318.94L710.903 670.814C709.228 671.794 707.156 671.802 705.473 670.835C703.791 669.868 702.755 668.074 702.758 666.133C702.753 660.679 705.633 655.63 710.33 652.858L1311.81 300.984C1313.04 300.248 1314.51 300.031 1315.9 300.382C1317.29 300.732 1318.49 301.621 1319.22 302.852C1319.74 303.697 1320.02 304.671 1320.01 305.664Z" fill="#4C68EF"/>
<path d="M838.141 144.643L1018.11 249.382C1055.08 270.907 1077.83 310.46 1077.83 353.239V622.006L1326.5 477.23V208.507C1326.5 165.73 1303.76 126.175 1266.8 104.641L1101.3 8.32025L1075.12 6.01074L838.141 144.643Z" fill="url(#paint12_linear)"/>
<path d="M831.543 138.783V191.981L1033.46 309.552V256.344L831.543 138.783Z" fill="url(#paint13_linear)"/>
<path d="M698.688 675.46V793.422L702.954 795.855V790.936L727.636 776.532V658.315C727.648 656.413 727.086 654.551 726.023 652.974L727.204 652.489L722.999 650.091L722.514 649.8C719.536 648.212 715.941 648.312 713.056 650.065C704.167 655.437 698.734 665.066 698.732 675.452L698.688 675.46Z" fill="url(#paint14_linear)"/>
<path d="M731.864 660.758V779.019L702.969 795.856V677.868C702.971 667.48 708.408 657.85 717.302 652.481C720.274 650.69 723.981 650.64 727.001 652.349C730.021 654.058 731.886 657.262 731.882 660.732L731.864 660.758Z" fill="url(#paint15_linear)"/>
<path d="M965.516 519.04V637.01L969.782 639.46V634.533L994.464 620.129V501.903C994.476 500.001 993.914 498.139 992.851 496.562L994.014 496.068L989.801 493.635L989.316 493.353C987.926 492.621 986.382 492.235 984.811 492.225C983.062 492.224 981.347 492.709 979.857 493.626C970.961 498.988 965.523 508.617 965.524 519.004L965.516 519.04Z" fill="url(#paint16_linear)"/>
<path d="M998.703 504.346V622.616L969.781 639.452V521.491C969.783 511.105 975.221 501.477 984.114 496.113C987.085 494.317 990.793 494.262 993.814 495.971C996.836 497.679 998.701 500.884 998.694 504.355L998.703 504.346Z" fill="url(#paint17_linear)"/>
<path d="M826.856 272.152L796.109 254.258V324.971L826.865 342.901L826.856 272.152Z" fill="url(#paint18_linear)"/>
<path d="M831.986 269.243L801.231 251.349L796.109 254.258L826.856 272.152L831.986 269.243Z" fill="url(#paint19_linear)"/>
<path d="M831.985 269.242V339.956L826.863 342.864V272.151L831.985 269.242Z" fill="url(#paint20_linear)"/>
<path d="M822.518 274.584L800.48 261.74V283.619L822.518 296.462V274.584Z" fill="#4C68EF"/>
<path d="M822.517 302.351L817.043 299.16V304.581L822.517 307.772V302.351Z" fill="white"/>
<path d="M814.215 297.539L808.75 294.348V299.786L814.206 302.969L814.215 297.539Z" fill="white"/>
<path d="M805.927 292.601L800.453 289.41V294.831L805.927 298.022V292.601Z" fill="white"/>
<path d="M822.517 311.458L817.043 308.267V313.688L822.517 316.879V311.458Z" fill="white"/>
<path d="M814.215 306.681L808.75 303.499V308.929L814.206 312.111L814.215 306.681Z" fill="white"/>
<path d="M805.927 301.752L800.453 298.569V303.999L805.927 307.182V301.752Z" fill="white"/>
<path d="M822.517 320.608L817.043 317.426V322.847L822.517 326.029V320.608Z" fill="white"/>
<path d="M814.215 315.838L808.75 312.656V318.086L814.206 321.277L814.215 315.838Z" fill="white"/>
<path d="M805.927 310.92L800.453 307.729V313.159L805.927 316.35V310.92Z" fill="white"/>
<path d="M822.517 329.757L817.043 326.575V331.996L822.517 335.179V329.757Z" fill="#ED1B1C"/>
<path d="M814.215 324.989L808.75 321.807V327.237L814.206 330.428L814.215 324.989Z" fill="#D7E4F9"/>
<path d="M805.927 320.071L800.453 316.88V322.319L805.927 325.501V320.071Z" fill="#7CED14"/>
<path d="M990.944 247.523V271.967L868.734 200.743V176.299L990.944 247.523Z" fill="url(#paint21_linear)"/>
<path d="M994.436 245.496V269.922L990.91 271.967V247.524L994.436 245.496Z" fill="url(#paint22_linear)"/>
<path d="M994.436 245.495L872.217 174.271L868.691 176.316L990.937 247.523L994.436 245.495Z" fill="url(#paint23_linear)"/>
<path d="M985.472 261.153V263.471L873.98 198.091V184.868L875.832 185.952V196.865L985.472 261.153Z" fill="url(#paint24_linear)"/>
<path d="M985.47 250.255V261.15L875.848 196.872V185.994L985.47 250.255Z" fill="#4C68EF"/>
<path d="M1093.2 561.589V602.79L1112.25 591.719V550.5L1093.2 561.589Z" fill="url(#paint25_linear)"/>
<path opacity="0.28" d="M1197.19 469.933H1115.76V577.722H1197.19V469.933Z" fill="url(#paint26_linear)"/>
<path d="M1197.19 610.346V627.535C1197.19 641.048 1178.97 651.996 1156.47 651.996C1133.98 651.996 1115.76 641.048 1115.76 627.535V610.346H1197.19Z" fill="url(#paint27_linear)"/>
<path d="M1156.47 634.797C1178.96 634.797 1197.19 623.849 1197.19 610.344C1197.19 596.839 1178.96 585.892 1156.47 585.892C1133.99 585.892 1115.76 596.839 1115.76 610.344C1115.76 623.849 1133.99 634.797 1156.47 634.797Z" fill="url(#paint28_linear)"/>
<path d="M1156.47 629.412C1174.01 629.412 1188.23 620.875 1188.23 610.345C1188.23 599.815 1174.01 591.278 1156.47 591.278C1138.94 591.278 1124.72 599.815 1124.72 610.345C1124.72 620.875 1138.94 629.412 1156.47 629.412Z" fill="url(#paint29_linear)"/>
<path d="M1124.58 532.685L1122.13 534.307C1122.54 533.972 1123.01 533.645 1123.43 533.346V533.24L1124.58 532.685Z" fill="#F39600"/>
<path d="M1156.47 624.045C1169.06 624.045 1179.27 617.912 1179.27 610.347C1179.27 602.781 1169.06 596.648 1156.47 596.648C1143.88 596.648 1133.68 602.781 1133.68 610.347C1133.68 617.912 1143.88 624.045 1156.47 624.045Z" fill="#475254"/>
<path d="M1197.19 577.738V595.007C1197.19 608.511 1178.97 619.468 1156.47 619.468C1133.98 619.468 1115.76 608.511 1115.76 595.007V577.738H1197.19Z" fill="url(#paint30_linear)"/>
<path d="M1156.47 602.191C1178.96 602.191 1197.19 591.244 1197.19 577.739C1197.19 564.234 1178.96 553.286 1156.47 553.286C1133.99 553.286 1115.76 564.234 1115.76 577.739C1115.76 591.244 1133.99 602.191 1156.47 602.191Z" fill="#FEED00"/>
<path d="M1200.31 471.916V484.345C1200.31 498.89 1180.67 510.675 1156.47 510.675C1132.28 510.675 1112.64 498.89 1112.64 484.345V471.916H1200.31Z" fill="url(#paint31_linear)"/>
<path d="M1156.47 498.245C1180.68 498.245 1200.31 486.457 1200.31 471.915C1200.31 457.373 1180.68 445.585 1156.47 445.585C1132.26 445.585 1112.64 457.373 1112.64 471.915C1112.64 486.457 1132.26 498.245 1156.47 498.245Z" fill="url(#paint32_linear)"/>
<path d="M1174.57 459.874V467.534C1174.57 473.546 1166.47 478.412 1156.45 478.412C1146.42 478.412 1138.33 473.546 1138.33 467.534V459.874H1174.57Z" fill="url(#paint33_linear)"/>
<path d="M1156.47 470.751C1166.48 470.751 1174.59 465.881 1174.59 459.874C1174.59 453.866 1166.48 448.996 1156.47 448.996C1146.46 448.996 1138.35 453.866 1138.35 459.874C1138.35 465.881 1146.46 470.751 1156.47 470.751Z" fill="url(#paint34_linear)"/>
<path d="M1156.47 465.357C1161.51 465.357 1165.59 462.903 1165.59 459.874C1165.59 456.846 1161.51 454.392 1156.47 454.392C1151.43 454.392 1147.35 456.846 1147.35 459.874C1147.35 462.903 1151.43 465.357 1156.47 465.357Z" fill="#F39600"/>
<path d="M1166.23 459.873V428.722C1166.79 415.405 1159.92 402.875 1148.4 396.177L1113.55 375.947C1110.31 374.078 1106.32 374.078 1103.08 375.947C1100.87 377.23 1099.27 379.338 1098.62 381.807C1097.96 384.276 1098.32 386.902 1099.61 389.107C1100.41 390.499 1101.56 391.664 1102.94 392.492L1137.45 413.419C1143.15 416.893 1146.63 423.093 1146.62 429.77V459.882C1146.62 459.882 1147.92 465.339 1156.88 465.339C1165.83 465.339 1166.23 459.873 1166.23 459.873Z" fill="url(#paint35_linear)"/>
<path opacity="0.28" d="M1280.51 435.086H1199.07V542.875H1280.51V435.086Z" fill="url(#paint36_linear)"/>
<path d="M1280.52 575.499V592.688C1280.52 606.193 1262.28 617.141 1239.8 617.141C1217.32 617.141 1199.07 606.193 1199.07 592.688V575.499H1280.52Z" fill="url(#paint37_linear)"/>
<path d="M1239.8 599.952C1262.29 599.952 1280.51 589.004 1280.51 575.499C1280.51 561.995 1262.29 551.047 1239.8 551.047C1217.31 551.047 1199.08 561.995 1199.08 575.499C1199.08 589.004 1217.31 599.952 1239.8 599.952Z" fill="url(#paint38_linear)"/>
<path d="M1239.8 594.566C1257.33 594.566 1271.55 586.03 1271.55 575.499C1271.55 564.969 1257.33 556.433 1239.8 556.433C1222.26 556.433 1208.05 564.969 1208.05 575.499C1208.05 586.03 1222.26 594.566 1239.8 594.566Z" fill="url(#paint39_linear)"/>
<path d="M1207.89 497.84L1205.42 499.453L1206.74 498.501V498.395L1207.89 497.84Z" fill="#F39600"/>
<path d="M1239.8 589.189C1252.39 589.189 1262.59 583.056 1262.59 575.49C1262.59 567.925 1252.39 561.792 1239.8 561.792C1227.21 561.792 1217 567.925 1217 575.49C1217 583.056 1227.21 589.189 1239.8 589.189Z" fill="#475254"/>
<path d="M1280.52 542.885V560.153C1280.52 573.658 1262.28 584.606 1239.8 584.606C1217.32 584.606 1199.07 573.658 1199.07 560.153V542.885H1280.52Z" fill="url(#paint40_linear)"/>
<path d="M1239.8 567.336C1262.29 567.336 1280.51 556.388 1280.51 542.883C1280.51 529.378 1262.29 518.431 1239.8 518.431C1217.31 518.431 1199.08 529.378 1199.08 542.883C1199.08 556.388 1217.31 567.336 1239.8 567.336Z" fill="#FEED00"/>
<path d="M1283.64 437.078V449.49C1283.64 464.034 1264 475.837 1239.8 475.837C1215.6 475.837 1195.95 464.052 1195.95 449.49V437.078H1283.64Z" fill="url(#paint41_linear)"/>
<path d="M1239.8 463.409C1264.01 463.409 1283.63 451.621 1283.63 437.079C1283.63 422.537 1264.01 410.749 1239.8 410.749C1215.59 410.749 1195.96 422.537 1195.96 437.079C1195.96 451.621 1215.59 463.409 1239.8 463.409Z" fill="url(#paint42_linear)"/>
<path d="M1257.91 425.028V432.68C1257.91 438.7 1249.8 443.575 1239.8 443.575C1229.79 443.575 1221.68 438.7 1221.68 432.68V425.028H1257.91Z" fill="url(#paint43_linear)"/>
<path d="M1239.8 435.907C1249.81 435.907 1257.92 431.037 1257.92 425.029C1257.92 419.021 1249.81 414.151 1239.8 414.151C1229.79 414.151 1221.68 419.021 1221.68 425.029C1221.68 431.037 1229.79 435.907 1239.8 435.907Z" fill="url(#paint44_linear)"/>
<path d="M1239.8 430.52C1244.84 430.52 1248.92 428.066 1248.92 425.038C1248.92 422.009 1244.84 419.555 1239.8 419.555C1234.76 419.555 1230.68 422.009 1230.68 425.038C1230.68 428.066 1234.76 430.52 1239.8 430.52Z" fill="#F39600"/>
<path d="M1249.55 425.029V393.877C1250.08 380.579 1243.21 368.079 1231.69 361.411L1196.84 341.137C1193.6 339.268 1189.61 339.268 1186.37 341.137C1183.44 342.847 1181.62 345.978 1181.59 349.376C1181.56 352.774 1183.32 355.937 1186.22 357.7L1220.72 378.653C1226.42 382.131 1229.89 388.329 1229.88 395.005V425.117C1229.88 425.117 1231.2 430.564 1240.15 430.564C1249.11 430.564 1249.55 425.029 1249.55 425.029Z" fill="url(#paint45_linear)"/>
<path opacity="0.28" d="M1361.52 390.968H1280.09V498.757H1361.52V390.968Z" fill="url(#paint46_linear)"/>
<path d="M1361.52 531.371V548.587C1361.52 562.091 1343.3 573.048 1320.8 573.048C1298.31 573.048 1280.09 562.091 1280.09 548.587V531.371H1361.52Z" fill="url(#paint47_linear)"/>
<path d="M1320.8 555.824C1343.29 555.824 1361.52 544.876 1361.52 531.372C1361.52 517.867 1343.29 506.919 1320.8 506.919C1298.32 506.919 1280.09 517.867 1280.09 531.372C1280.09 544.876 1298.32 555.824 1320.8 555.824Z" fill="url(#paint48_linear)"/>
<path d="M1320.8 550.439C1338.33 550.439 1352.55 541.903 1352.55 531.372C1352.55 520.842 1338.33 512.306 1320.8 512.306C1303.26 512.306 1289.05 520.842 1289.05 531.372C1289.05 541.903 1303.26 550.439 1320.8 550.439Z" fill="url(#paint49_linear)"/>
<path d="M1288.9 453.721L1286.45 455.343C1286.87 455.017 1287.33 454.69 1287.75 454.382V454.32L1288.9 453.721Z" fill="#F39600"/>
<path d="M1320.8 545.071C1333.39 545.071 1343.59 538.938 1343.59 531.372C1343.59 523.807 1333.39 517.674 1320.8 517.674C1308.21 517.674 1298 523.807 1298 531.372C1298 538.938 1308.21 545.071 1320.8 545.071Z" fill="#475254"/>
<path d="M1361.52 498.757V516.025C1361.52 529.539 1343.3 540.487 1320.8 540.487C1298.31 540.487 1280.09 529.539 1280.09 516.025V498.757H1361.52Z" fill="url(#paint50_linear)"/>
<path d="M1320.8 523.21C1343.29 523.21 1361.52 512.262 1361.52 498.757C1361.52 485.252 1343.29 474.305 1320.8 474.305C1298.32 474.305 1280.09 485.252 1280.09 498.757C1280.09 512.262 1298.32 523.21 1320.8 523.21Z" fill="#FEED00"/>
<path d="M1364.64 392.96V405.389C1364.64 419.934 1345 431.719 1320.8 431.719C1296.6 431.719 1276.96 419.934 1276.96 405.389V392.96H1364.64Z" fill="url(#paint51_linear)"/>
<path d="M1320.8 419.29C1345.01 419.29 1364.64 407.502 1364.64 392.96C1364.64 378.418 1345.01 366.63 1320.8 366.63C1296.59 366.63 1276.96 378.418 1276.96 392.96C1276.96 407.502 1296.59 419.29 1320.8 419.29Z" fill="url(#paint52_linear)"/>
<path d="M1338.92 380.91V388.57C1338.92 394.582 1330.8 399.448 1320.8 399.448C1310.79 399.448 1302.68 394.582 1302.68 388.57V380.91H1338.92Z" fill="url(#paint53_linear)"/>
<path d="M1320.8 391.786C1330.81 391.786 1338.92 386.916 1338.92 380.909C1338.92 374.901 1330.81 370.031 1320.8 370.031C1310.79 370.031 1302.68 374.901 1302.68 380.909C1302.68 386.916 1310.79 391.786 1320.8 391.786Z" fill="url(#paint54_linear)"/>
<path d="M1320.8 386.393C1325.84 386.393 1329.92 383.938 1329.92 380.91C1329.92 377.882 1325.84 375.427 1320.8 375.427C1315.76 375.427 1311.68 377.882 1311.68 380.91C1311.68 383.938 1315.76 386.393 1320.8 386.393Z" fill="#F39600"/>
<path d="M1330.59 380.911V349.768C1331.15 336.448 1324.29 323.914 1312.76 317.214L1277.93 296.94C1274.68 295.071 1270.69 295.071 1267.45 296.94C1264.51 298.643 1262.69 301.774 1262.66 305.172C1262.63 308.571 1264.4 311.732 1267.31 313.485L1301.82 334.438C1307.52 337.933 1310.98 344.151 1310.94 350.834V380.946C1310.94 380.946 1312.25 386.402 1321.21 386.402C1330.16 386.402 1330.59 380.911 1330.59 380.911Z" fill="url(#paint55_linear)"/>
<path d="M1257.73 126.52C1264.19 130.249 1264.21 136.287 1257.73 140.016L1089.45 237.861C1082.13 241.59 1073.46 241.59 1066.14 237.861L896.685 140.016C890.233 136.287 890.206 130.249 896.623 126.52L1064.99 28.6745C1072.31 24.9457 1080.97 24.9457 1088.3 28.6745L1257.73 126.52Z" fill="url(#paint56_linear)"/>
<path d="M1064.07 42.1177L896.168 139.69L896.688 140.025L1066.15 237.836C1073.47 241.573 1082.13 241.573 1089.45 237.836L1257.34 140.263L1256.83 139.937L1087.43 42.0913C1080.08 38.3887 1071.41 38.3985 1064.07 42.1177Z" fill="url(#paint57_linear)"/>
<path d="M1077.15 158.245C1076.94 158.255 1076.73 158.199 1076.55 158.087L992.223 109.402C991.648 109.071 991.448 108.339 991.773 107.762C992.103 107.192 992.831 106.995 993.404 107.321L1077.74 156.024C1078.02 156.179 1078.22 156.438 1078.3 156.743C1078.39 157.048 1078.34 157.373 1078.19 157.646C1077.98 158.023 1077.58 158.254 1077.15 158.245H1077.15Z" fill="white"/>
<path d="M1123.89 131.289C1123.68 131.287 1123.48 131.226 1123.3 131.112L1039 82.4892C1038.72 82.3372 1038.52 82.0821 1038.44 81.7808C1038.35 81.4795 1038.39 81.1569 1038.55 80.8849C1038.89 80.321 1039.61 80.1296 1040.19 80.453L1124.48 129.085C1124.95 129.355 1125.18 129.91 1125.04 130.435C1124.9 130.961 1124.42 131.325 1123.88 131.324L1123.89 131.289Z" fill="white"/>
<path d="M983.34 151.37L1018.11 171.644L1141.74 91.8341L1116.39 75.8086L1112.15 82.5344L1105.37 91.9223L1094.21 101.196L1087.82 106.388L1077.25 111.483L1063.47 115.969L1039.31 121.858L1015.87 125.243L998.272 132.709L986.698 144.107L983.34 151.37Z" fill="url(#paint58_linear)"/>
<path d="M983.339 151.369C983.185 151.366 983.033 151.337 982.89 151.28C982.279 151.039 981.979 150.349 982.22 149.738C982.572 148.856 991.237 128.106 1020.3 123.293C1023.74 122.72 1027.35 122.226 1031.11 121.689C1058.43 117.766 1092.52 112.962 1114.7 76.2389C1115.1 75.7684 1115.78 75.6646 1116.3 75.9959C1116.82 76.3272 1117.02 76.9919 1116.76 77.5524C1093.96 115.183 1059.29 120.102 1031.44 124.06C1027.67 124.598 1024.11 125.091 1020.7 125.664C1009.9 127.227 999.88 132.196 992.101 139.847C988.938 142.953 986.353 146.598 984.468 150.61C984.277 151.066 983.833 151.364 983.339 151.369Z" fill="url(#paint59_linear)"/>
<path d="M1003.56 163.261L1007.86 153.979L1012.76 148.743L1016.59 146.098L1032.27 137.512L1038.33 135.423L1045.93 133.025L1052.62 127.789L1056.15 123.047L1058.79 117.476L1063.09 101.098C1063.09 101.098 1066 86.9323 1067.84 84.5346C1069.67 82.1369 1075.55 74.1506 1075.55 74.1506L1079.54 72.0527L1083.19 68.9498L1089.42 67.5747L1094.11 65.6178L1096.8 65.0889L1137.35 87.9195L1021.43 173.424L1003.56 163.261Z" fill="url(#paint60_linear)"/>
<path d="M1003.34 164.556H1003.2C1002.55 164.478 1002.08 163.894 1002.15 163.243C1002.24 162.459 1004.79 143.85 1039.84 133.951C1055.05 129.685 1058.17 116.621 1061.46 102.781C1065.54 85.6805 1069.78 67.9978 1096.3 64.5159C1096.61 64.4839 1096.93 64.5784 1097.17 64.7785C1097.42 64.9786 1097.57 65.2679 1097.6 65.5825C1097.66 66.2108 1097.23 66.7794 1096.61 66.8871C1071.73 70.1574 1067.69 87.0292 1063.79 103.346C1060.46 117.238 1057.03 131.615 1040.5 136.261C1022.95 141.179 1014.14 148.355 1009.79 153.503C1007.18 156.312 1005.37 159.77 1004.55 163.516C1004.47 164.126 1003.94 164.575 1003.33 164.556H1003.34Z" fill="#4C68EF"/>
<path d="M1034.95 182.54C1034.74 182.539 1034.53 182.488 1034.35 182.39L949.963 133.696C949.434 133.346 949.269 132.645 949.587 132.096C949.905 131.547 950.595 131.34 951.162 131.625L1035.5 180.318C1036.07 180.648 1036.26 181.37 1035.94 181.94C1035.73 182.319 1035.33 182.549 1034.9 182.54H1034.95Z" fill="white"/>
<path d="M1167.31 106.369C1167.1 106.373 1166.89 106.314 1166.72 106.202L1082.31 57.5084C1081.91 57.3119 1081.65 56.9043 1081.64 56.4535C1081.63 56.0027 1081.87 55.5849 1082.27 55.3722C1082.67 55.1595 1083.15 55.1879 1083.52 55.4457L1167.85 104.13C1168.43 104.461 1168.63 105.193 1168.3 105.77C1168.09 106.125 1167.72 106.35 1167.31 106.369Z" fill="white"/>
<path d="M1097 178.22C1087.68 173.487 1076.67 173.487 1067.35 178.22C1064.45 179.633 1062.29 182.227 1061.43 185.342L1066.67 184.963C1067.5 182.942 1069.02 181.285 1070.97 180.291C1078.04 176.685 1086.4 176.685 1093.47 180.291C1099.7 183.888 1099.73 189.732 1093.54 193.381C1090.52 195.015 1087.16 195.921 1083.73 196.026L1083.61 198.952C1088.33 198.874 1092.97 197.665 1097.13 195.426C1105.28 190.658 1105.23 182.962 1097 178.22Z" fill="url(#paint61_linear)"/>
<path d="M1070.04 194.112C1077.71 198.044 1086.81 198.044 1094.48 194.112C1096.88 192.955 1098.66 190.818 1099.37 188.25L1095.08 188.568C1094.4 190.232 1093.15 191.597 1091.55 192.411C1085.74 195.39 1078.86 195.41 1073.04 192.464C1067.89 189.493 1067.87 184.689 1072.98 181.71C1075.46 180.36 1078.23 179.612 1081.06 179.524L1081.17 177.108C1077.27 177.171 1073.45 178.166 1070.02 180.009C1063.23 183.869 1063.26 190.216 1070.04 194.112Z" fill="url(#paint62_linear)"/>
<path d="M1094.27 179.993C1086.59 176.07 1077.5 176.07 1069.82 179.993C1067.42 181.162 1065.63 183.306 1064.92 185.881L1069.21 185.546C1069.9 183.889 1071.14 182.527 1072.74 181.703C1078.57 178.741 1085.47 178.741 1091.3 181.703C1096.43 184.673 1096.45 189.495 1091.3 192.448C1088.81 193.802 1086.04 194.559 1083.21 194.661L1083.1 197.067C1087 197.007 1090.83 196.01 1094.26 194.158C1101.06 190.236 1101.02 183.907 1094.27 179.993Z" fill="#4C68EF"/>
<path d="M1141.3 149.739C1131.99 144.996 1120.97 144.996 1111.66 149.739C1108.75 151.15 1106.59 153.745 1105.73 156.861L1110.96 156.465C1111.8 154.448 1113.33 152.797 1115.27 151.81C1122.34 148.205 1130.71 148.205 1137.78 151.81C1144.01 155.407 1144.04 161.251 1137.86 164.901C1134.83 166.528 1131.47 167.433 1128.04 167.545L1127.9 170.463C1132.63 170.397 1137.28 169.188 1141.44 166.937C1149.55 162.194 1149.51 154.499 1141.3 149.739Z" fill="#4C68EF"/>
<path d="M1114.29 165.64C1121.97 169.571 1131.06 169.571 1138.74 165.64C1141.13 164.469 1142.91 162.328 1143.62 159.76L1139.33 160.087C1138.65 161.748 1137.4 163.113 1135.8 163.939C1129.98 166.88 1123.11 166.88 1117.29 163.939C1112.14 160.959 1112.12 156.146 1117.22 153.184C1119.71 151.835 1122.48 151.08 1125.31 150.981L1125.42 148.565C1121.52 148.625 1117.7 149.623 1114.27 151.474C1107.5 155.388 1107.58 161.726 1114.29 165.64Z" fill="url(#paint63_linear)"/>
<path d="M1138.5 151.52C1130.82 147.589 1121.73 147.589 1114.05 151.52C1111.66 152.683 1109.87 154.816 1109.14 157.382L1113.45 157.073C1114.12 155.406 1115.37 154.037 1116.97 153.221C1122.8 150.25 1129.7 150.25 1135.54 153.221C1140.68 156.192 1140.68 160.996 1135.54 163.966C1133.05 165.32 1130.28 166.077 1127.45 166.179L1127.35 168.585C1131.24 168.529 1135.07 167.531 1138.5 165.676C1145.33 161.763 1145.3 155.416 1138.5 151.52Z" fill="url(#paint64_linear)"/>
<path d="M1183.01 124.387C1173.7 119.644 1162.68 119.644 1153.37 124.387C1150.46 125.8 1148.3 128.394 1147.44 131.51L1152.67 131.131C1153.51 129.107 1155.04 127.447 1156.98 126.45C1164.05 122.854 1172.42 122.854 1179.49 126.45C1185.72 130.055 1185.76 135.891 1179.57 139.549C1176.55 141.176 1173.19 142.081 1169.77 142.193L1169.63 145.138C1174.31 145.031 1178.89 143.823 1183.01 141.612C1191.21 136.808 1191.17 129.112 1183.01 124.387Z" fill="url(#paint65_linear)"/>
<path d="M1155.96 140.271C1163.64 144.193 1172.73 144.193 1180.4 140.271C1182.81 139.117 1184.59 136.974 1185.29 134.4L1181.01 134.717C1180.33 136.375 1179.08 137.736 1177.49 138.561C1171.66 141.54 1164.75 141.54 1158.92 138.561C1153.79 135.608 1153.77 130.786 1158.92 127.815C1161.4 126.495 1164.15 125.768 1166.95 125.691L1167.07 123.267C1163.17 123.332 1159.35 124.329 1155.92 126.176C1149.15 130.019 1149.19 136.366 1155.96 140.271Z" fill="#00FFFF"/>
<path d="M1180.2 126.142C1172.52 122.22 1163.43 122.22 1155.75 126.142C1153.35 127.313 1151.57 129.457 1150.87 132.03L1155.15 131.695C1155.84 130.042 1157.09 128.683 1158.68 127.852C1164.51 124.89 1171.41 124.89 1177.25 127.852C1182.38 130.823 1182.4 135.697 1177.31 138.598C1174.82 139.947 1172.05 140.704 1169.22 140.81L1169.11 143.217C1173 143.16 1176.83 142.162 1180.26 140.308C1187.01 136.394 1186.91 130.056 1180.2 126.142Z" fill="url(#paint66_linear)"/>
<path d="M1090.67 206.56L1093.31 208.103L1111.47 197.631L1108.83 196.07L1090.67 206.56Z" fill="white"/>
<path d="M1095.77 209.54L1098.42 211.082L1116.58 200.592L1113.93 199.05L1095.77 209.54Z" fill="white"/>
<path d="M1101.77 212.986L1104.42 214.529L1114.11 208.949L1111.47 207.354L1101.77 212.986Z" fill="white"/>
<path d="M1137.9 176.74L1140.54 178.3L1158.7 167.819L1156.06 166.268L1137.9 176.74Z" fill="white"/>
<path d="M1143 179.719L1145.65 181.279L1163.81 170.79L1161.16 169.229L1143 179.719Z" fill="white"/>
<path d="M1149 183.174L1151.65 184.734L1161.34 179.136L1158.7 177.559L1149 183.174Z" fill="white"/>
<path d="M1180.48 149.853L1183.13 151.404L1201.29 140.915L1198.64 139.372L1180.48 149.853Z" fill="white"/>
<path d="M1185.59 152.797L1188.23 154.358L1206.39 143.868L1203.75 142.325L1185.59 152.797Z" fill="white"/>
<path d="M1191.57 156.253L1194.22 157.813L1203.92 152.233L1201.27 150.638L1191.57 156.253Z" fill="white"/>
<path d="M954.039 130.029L956.684 131.572L966.38 126.001L963.735 124.414L954.039 130.029Z" fill="white"/>
<path d="M959.148 133.617L961.793 135.16L971.489 129.589L968.845 127.984L959.148 133.617Z" fill="white"/>
<path d="M995.016 104.817L997.66 106.369L1007.36 100.78L1004.71 99.2021L995.016 104.817Z" fill="white"/>
<path d="M1041.81 78.6366L1044.45 80.1968L1054.15 74.6082L1051.51 73.0215L1041.81 78.6366Z" fill="white"/>
<path d="M926.332 130.029L928.977 131.572L938.673 126.001L936.081 124.414L926.332 130.029Z" fill="white"/>
<path d="M930.816 133.324L933.461 134.884L943.157 129.304L940.566 127.709L930.816 133.324Z" fill="white"/>
<path d="M923.774 135.846C926.005 137.151 926.013 139.204 923.774 140.483C921.263 141.761 918.291 141.761 915.779 140.483C913.567 139.169 913.549 137.124 915.779 135.846C918.289 134.559 921.265 134.559 923.774 135.846Z" fill="white"/>
<path d="M1267.13 224.896C1278.44 218.355 1287.63 223.591 1287.66 236.619C1287.7 249.648 1278.51 265.418 1267.26 271.967L1143.72 343.28C1132.41 349.829 1123.2 344.593 1123.16 331.583C1123.12 318.572 1132.32 302.775 1143.58 296.235L1267.13 224.896Z" fill="url(#paint67_linear)"/>
<path d="M1274.48 222.25C1271.88 222.647 1269.38 223.545 1267.13 224.894L1143.59 296.295C1132.28 302.845 1123.14 318.659 1123.17 331.643C1122.93 335.751 1124.26 339.798 1126.89 342.962C1129.49 342.558 1131.98 341.66 1134.24 340.317L1257.77 268.969C1269.08 262.428 1278.22 246.623 1278.19 233.621C1278.44 229.497 1277.11 225.432 1274.48 222.25Z" fill="url(#paint68_linear)"/>
<path d="M1155.58 305.798C1152.8 307.611 1151.04 310.649 1150.87 313.97C1150.87 316.976 1153 318.192 1155.61 316.676C1158.4 314.859 1160.15 311.825 1160.33 308.504C1160.33 305.499 1158.2 304.291 1155.58 305.798Z" fill="url(#paint69_linear)"/>
<path d="M985.453 512.243C982.659 514.049 980.907 517.091 980.746 520.414C980.746 523.42 982.879 524.637 985.48 523.12C988.266 521.304 990.02 518.27 990.204 514.949C990.196 511.925 988.071 510.735 985.453 512.243Z" fill="url(#paint70_linear)"/>
<path d="M717.4 666.118C714.615 667.934 712.863 670.969 712.684 674.289C712.684 677.304 714.808 678.52 717.426 677.013C720.214 675.197 721.964 672.156 722.133 668.833C722.151 665.827 720.018 664.646 717.4 666.118Z" fill="url(#paint71_linear)"/>
<path d="M1183.96 287.612C1181.16 289.42 1179.41 292.46 1179.24 295.784C1179.24 298.79 1181.37 300.015 1183.98 298.49C1186.77 296.681 1188.52 293.645 1188.69 290.327C1188.67 287.313 1186.58 286.105 1183.96 287.612Z" fill="url(#paint72_linear)"/>
<path d="M1212.31 269.427C1209.53 271.251 1207.78 274.282 1207.59 277.599C1207.59 280.596 1209.72 281.821 1212.35 280.305C1215.14 278.491 1216.89 275.454 1217.07 272.133C1217.06 269.127 1214.93 267.92 1212.31 269.427Z" fill="url(#paint73_linear)"/>
<path d="M1240.68 251.225C1237.89 253.032 1236.13 256.073 1235.96 259.397C1235.96 262.394 1238.1 263.61 1240.71 262.103C1243.49 260.28 1245.25 257.239 1245.43 253.914C1245.42 250.943 1243.33 249.727 1240.68 251.225Z" fill="url(#paint74_linear)"/>
<path d="M1197.19 544.823V578.778C1197.19 592.292 1178.97 603.24 1156.47 603.24C1133.98 603.24 1115.76 592.292 1115.76 578.778V544.823H1197.19Z" fill="url(#paint75_linear)"/>
<path d="M1156.47 569.275C1178.96 569.275 1197.19 558.328 1197.19 544.823C1197.19 531.318 1178.96 520.37 1156.47 520.37C1133.99 520.37 1115.76 531.318 1115.76 544.823C1115.76 558.328 1133.99 569.275 1156.47 569.275Z" fill="url(#paint76_linear)"/>
<path d="M1280.52 509.828V543.783C1280.52 557.297 1262.29 568.245 1239.8 568.245C1217.31 568.245 1199.07 557.297 1199.07 543.783V509.828H1280.52Z" fill="url(#paint77_linear)"/>
<path d="M1239.8 534.282C1262.29 534.282 1280.51 523.334 1280.51 509.83C1280.51 496.325 1262.29 485.377 1239.8 485.377C1217.31 485.377 1199.08 496.325 1199.08 509.83C1199.08 523.334 1217.31 534.282 1239.8 534.282Z" fill="#4C68EF"/>
<path d="M1361.52 464.802V498.757C1361.52 512.27 1343.3 523.218 1320.8 523.218C1298.31 523.218 1280.09 512.27 1280.09 498.757V464.802H1361.52Z" fill="url(#paint78_linear)"/>
<path d="M1320.8 489.254C1343.29 489.254 1361.52 478.306 1361.52 464.801C1361.52 451.296 1343.29 440.349 1320.8 440.349C1298.32 440.349 1280.09 451.296 1280.09 464.801C1280.09 478.306 1298.32 489.254 1320.8 489.254Z" fill="#FFCB33"/>
<path d="M1081.26 622.017L1024.76 589.181V251.385C1059.71 271.745 1081.22 309.133 1081.26 349.583V622.017Z" fill="url(#paint79_linear)"/>
<defs>
<filter id="filter0_f" x="0.761719" y="249.33" width="609.871" height="189.21" filterUnits="userSpaceOnUse" color-interpolation-filters="sRGB">
<feFlood flood-opacity="0" result="BackgroundImageFix"/>
<feBlend mode="normal" in="SourceGraphic" in2="BackgroundImageFix" result="shape"/>
<feGaussianBlur stdDeviation="30" result="effect1_foregroundBlur"/>
</filter>
<linearGradient id="paint0_linear" x1="1.31715e-06" y1="58.7105" x2="1407.77" y2="157.62" gradientUnits="userSpaceOnUse">
<stop stop-color="#8096FE"/>
<stop offset="0.337665" stop-color="#7B91FF"/>
<stop offset="0.620183" stop-color="#879CFF" stop-opacity="0"/>
</linearGradient>
<linearGradient id="paint1_linear" x1="808.449" y1="75.0798" x2="1109.65" y2="75.0798" gradientUnits="userSpaceOnUse">
<stop stop-color="#F4F9FF"/>
<stop offset="0.02" stop-color="#EFF5FE"/>
<stop offset="0.13" stop-color="#DEE8F9"/>
<stop offset="0.27" stop-color="#D3DFF5"/>
<stop offset="0.46" stop-color="#CCD9F4"/>
<stop offset="1" stop-color="#CAD8F3"/>
</linearGradient>
<linearGradient id="paint2_linear" x1="562.37" y1="549.383" x2="562.37" y2="696.514" gradientUnits="userSpaceOnUse">
<stop stop-color="#F4F9FF"/>
<stop offset="0.02" stop-color="#EFF5FE"/>
<stop offset="0.13" stop-color="#DEE8F9"/>
<stop offset="0.27" stop-color="#D3DFF5"/>
<stop offset="0.46" stop-color="#CCD9F4"/>
<stop offset="1" stop-color="#CAD8F3"/>
</linearGradient>
<linearGradient id="paint3_linear" x1="568.301" y1="551.342" x2="568.301" y2="695.998" gradientUnits="userSpaceOnUse">
<stop stop-color="#F4F9FF"/>
<stop offset="1" stop-color="#CAD8F3"/>
</linearGradient>
<linearGradient id="paint4_linear" x1="1082.91" y1="646.298" x2="880.075" y2="-138.644" gradientUnits="userSpaceOnUse">
<stop stop-color="#4C68EF"/>
<stop offset="1" stop-color="#4C68EF" stop-opacity="0"/>
</linearGradient>
<linearGradient id="paint5_linear" x1="839.048" y1="526.612" x2="1022.15" y2="526.612" gradientUnits="userSpaceOnUse">
<stop stop-color="#F4F9FF"/>
<stop offset="1" stop-color="#CAD8F3"/>
</linearGradient>
<linearGradient id="paint6_linear" x1="1051.1" y1="652.059" x2="848.753" y2="-133.526" gradientUnits="userSpaceOnUse">
<stop stop-color="#4C68EF"/>
<stop offset="1" stop-color="white"/>
</linearGradient>
<linearGradient id="paint7_linear" x1="807.544" y1="139.569" x2="807.544" y2="481.763" gradientUnits="userSpaceOnUse">
<stop stop-color="#F4F9FF"/>
<stop offset="1" stop-color="#CAD8F3"/>
</linearGradient>
<linearGradient id="paint8_linear" x1="585.145" y1="629.821" x2="1114.69" y2="330.47" gradientUnits="userSpaceOnUse">
<stop stop-color="#00366A"/>
<stop offset="0.33" stop-color="#003368"/>
<stop offset="0.57" stop-color="#012A62"/>
<stop offset="0.78" stop-color="#031A57"/>
<stop offset="0.97" stop-color="#050448"/>
<stop offset="1" stop-color="#050046"/>
</linearGradient>
<linearGradient id="paint9_linear" x1="701.449" y1="486.032" x2="1330.46" y2="486.032" gradientUnits="userSpaceOnUse">
<stop stop-color="#00366A"/>
<stop offset="0.33" stop-color="#003368"/>
<stop offset="0.57" stop-color="#012A62"/>
<stop offset="0.78" stop-color="#031A57"/>
<stop offset="0.97" stop-color="#050448"/>
<stop offset="1" stop-color="#050046"/>
</linearGradient>
<linearGradient id="paint10_linear" x1="1001.25" y1="346.932" x2="1116.13" y2="346.932" gradientUnits="userSpaceOnUse">
<stop stop-color="#FFF52A"/>
<stop offset="0.51" stop-color="#FFF32A"/>
<stop offset="0.71" stop-color="#FFEC2C"/>
<stop offset="0.86" stop-color="#FFE02F"/>
<stop offset="0.98" stop-color="#FFCF32"/>
<stop offset="1" stop-color="#FFCB33"/>
</linearGradient>
<linearGradient id="paint11_linear" x1="1316.34" y1="327.43" x2="1316.39" y2="327.43" gradientUnits="userSpaceOnUse">
<stop stop-color="#FFF52A"/>
<stop offset="0.51" stop-color="#FFF32A"/>
<stop offset="0.71" stop-color="#FFEC2C"/>
<stop offset="0.86" stop-color="#FFE02F"/>
<stop offset="0.98" stop-color="#FFCF32"/>
<stop offset="1" stop-color="#FFCB33"/>
</linearGradient>
<linearGradient id="paint12_linear" x1="3853.54" y1="-4376.92" x2="4127.47" y2="-4842.04" gradientUnits="userSpaceOnUse">
<stop stop-color="#F4F9FF"/>
<stop offset="0.3" stop-color="#F0F5FE"/>
<stop offset="0.63" stop-color="#E2EBFA"/>
<stop offset="0.97" stop-color="#CCDAF4"/>
<stop offset="1" stop-color="#CAD8F3"/>
</linearGradient>
<linearGradient id="paint13_linear" x1="930.219" y1="144.892" x2="930.219" y2="299.718" gradientUnits="userSpaceOnUse">
<stop stop-color="#F4F9FF"/>
<stop offset="0.54" stop-color="#F2F8FE"/>
<stop offset="0.73" stop-color="#EBF2FD"/>
<stop offset="0.87" stop-color="#E0E9F9"/>
<stop offset="0.98" stop-color="#CFDCF4"/>
<stop offset="1" stop-color="#CAD8F3"/>
</linearGradient>
<linearGradient id="paint14_linear" x1="717.347" y1="650.267" x2="717.347" y2="797.927" gradientUnits="userSpaceOnUse">
<stop stop-color="#F4F9FF"/>
<stop offset="0.02" stop-color="#EFF5FE"/>
<stop offset="0.13" stop-color="#DEE8F9"/>
<stop offset="0.27" stop-color="#D3DFF5"/>
<stop offset="0.46" stop-color="#CCD9F4"/>
<stop offset="1" stop-color="#CAD8F3"/>
</linearGradient>
<linearGradient id="paint15_linear" x1="721.561" y1="652.798" x2="721.561" y2="797.479" gradientUnits="userSpaceOnUse">
<stop stop-color="#F4F9FF"/>
<stop offset="1" stop-color="#CAD8F3"/>
</linearGradient>
<linearGradient id="paint16_linear" x1="973.932" y1="491.972" x2="973.932" y2="639.103" gradientUnits="userSpaceOnUse">
<stop stop-color="#F4F9FF"/>
<stop offset="0.02" stop-color="#EFF5FE"/>
<stop offset="0.13" stop-color="#DEE8F9"/>
<stop offset="0.27" stop-color="#D3DFF5"/>
<stop offset="0.46" stop-color="#CCD9F4"/>
<stop offset="1" stop-color="#CAD8F3"/>
</linearGradient>
<linearGradient id="paint17_linear" x1="984.21" y1="493.587" x2="984.21" y2="638.243" gradientUnits="userSpaceOnUse">
<stop stop-color="#F4F9FF"/>
<stop offset="1" stop-color="#CAD8F3"/>
</linearGradient>
<linearGradient id="paint18_linear" x1="821.698" y1="252.562" x2="821.698" y2="341.125" gradientUnits="userSpaceOnUse">
<stop stop-color="#F4F9FF"/>
<stop offset="1" stop-color="#CAD8F3"/>
</linearGradient>
<linearGradient id="paint19_linear" x1="820.248" y1="253.385" x2="820.248" y2="274.191" gradientUnits="userSpaceOnUse">
<stop stop-color="#CEDDFE"/>
<stop offset="0.44" stop-color="#CBDAFC"/>
<stop offset="0.71" stop-color="#C3D2F6"/>
<stop offset="0.93" stop-color="#B5C4EB"/>
<stop offset="1" stop-color="#AEBDE6"/>
</linearGradient>
<linearGradient id="paint20_linear" x1="832.222" y1="269.296" x2="832.222" y2="342.886" gradientUnits="userSpaceOnUse">
<stop stop-color="#CEDDFE"/>
<stop offset="0.44" stop-color="#CBDAFC"/>
<stop offset="0.71" stop-color="#C3D2F6"/>
<stop offset="0.93" stop-color="#B5C4EB"/>
<stop offset="1" stop-color="#AEBDE6"/>
</linearGradient>
<linearGradient id="paint21_linear" x1="863.94" y1="224.98" x2="986.1" y2="224.98" gradientUnits="userSpaceOnUse">
<stop stop-color="#CEDDFE"/>
<stop offset="0.44" stop-color="#CBDAFC"/>
<stop offset="0.71" stop-color="#C3D2F6"/>
<stop offset="0.93" stop-color="#B5C4EB"/>
<stop offset="1" stop-color="#AEBDE6"/>
</linearGradient>
<linearGradient id="paint22_linear" x1="989.976" y1="259.711" x2="993.505" y2="259.711" gradientUnits="userSpaceOnUse">
<stop stop-color="#CEDDFE"/>
<stop offset="0.44" stop-color="#CBDAFC"/>
<stop offset="0.71" stop-color="#C3D2F6"/>
<stop offset="0.93" stop-color="#B5C4EB"/>
<stop offset="1" stop-color="#AEBDE6"/>
</linearGradient>
<linearGradient id="paint23_linear" x1="877.355" y1="210.832" x2="1003" y2="210.832" gradientUnits="userSpaceOnUse">
<stop stop-color="#CEDDFE"/>
<stop offset="0.44" stop-color="#CBDAFC"/>
<stop offset="0.71" stop-color="#C3D2F6"/>
<stop offset="0.93" stop-color="#B5C4EB"/>
<stop offset="1" stop-color="#AEBDE6"/>
</linearGradient>
<linearGradient id="paint24_linear" x1="871.961" y1="224.578" x2="983.388" y2="224.578" gradientUnits="userSpaceOnUse">
<stop stop-color="#F4F9FF"/>
<stop offset="0.54" stop-color="#F2F8FE"/>
<stop offset="0.73" stop-color="#EBF2FD"/>
<stop offset="0.87" stop-color="#E0E9F9"/>
<stop offset="0.98" stop-color="#CFDCF4"/>
<stop offset="1" stop-color="#CAD8F3"/>
</linearGradient>
<linearGradient id="paint25_linear" x1="1093.14" y1="576.624" x2="1112.19" y2="576.624" gradientUnits="userSpaceOnUse">
<stop stop-color="#00366A"/>
<stop offset="0.33" stop-color="#003368"/>
<stop offset="0.57" stop-color="#012A62"/>
<stop offset="0.78" stop-color="#031A57"/>
<stop offset="0.97" stop-color="#050448"/>
<stop offset="1" stop-color="#050046"/>
</linearGradient>
<linearGradient id="paint26_linear" x1="1111.42" y1="524.237" x2="1192.83" y2="524.237" gradientUnits="userSpaceOnUse">
<stop stop-color="#00366A"/>
<stop offset="0.33" stop-color="#003368"/>
<stop offset="0.57" stop-color="#012A62"/>
<stop offset="0.78" stop-color="#031A57"/>
<stop offset="0.97" stop-color="#050448"/>
<stop offset="1" stop-color="#050046"/>
</linearGradient>
<linearGradient id="paint27_linear" x1="1111.42" y1="632.113" x2="1192.83" y2="632.113" gradientUnits="userSpaceOnUse">
<stop stop-color="#CEDDFE"/>
<stop offset="0.44" stop-color="#CBDAFC"/>
<stop offset="0.71" stop-color="#C3D2F6"/>
<stop offset="0.93" stop-color="#B5C4EB"/>
<stop offset="1" stop-color="#AEBDE6"/>
</linearGradient>
<linearGradient id="paint28_linear" x1="1111.42" y1="609.412" x2="1192.83" y2="609.412" gradientUnits="userSpaceOnUse">
<stop stop-color="#F4F9FF"/>
<stop offset="1" stop-color="#CAD8F3"/>
</linearGradient>
<linearGradient id="paint29_linear" x1="1149.24" y1="629.263" x2="1172.08" y2="589.649" gradientUnits="userSpaceOnUse">
<stop stop-color="#F4F9FF"/>
<stop offset="1" stop-color="#CAD8F3"/>
</linearGradient>
<linearGradient id="paint30_linear" x1="1111.42" y1="600.386" x2="1192.83" y2="600.386" gradientUnits="userSpaceOnUse">
<stop stop-color="#CEDDFE"/>
<stop offset="0.44" stop-color="#CBDAFC"/>
<stop offset="0.71" stop-color="#C3D2F6"/>
<stop offset="0.93" stop-color="#B5C4EB"/>
<stop offset="1" stop-color="#AEBDE6"/>
</linearGradient>
<linearGradient id="paint31_linear" x1="1112.8" y1="492.234" x2="1200.43" y2="492.234" gradientUnits="userSpaceOnUse">
<stop stop-color="#CEDDFE"/>
<stop offset="0.44" stop-color="#CBDAFC"/>
<stop offset="0.71" stop-color="#C3D2F6"/>
<stop offset="0.93" stop-color="#B5C4EB"/>
<stop offset="1" stop-color="#AEBDE6"/>
</linearGradient>
<linearGradient id="paint32_linear" x1="1112.71" y1="471.88" x2="1200.35" y2="471.88" gradientUnits="userSpaceOnUse">
<stop stop-color="#F4F9FF"/>
<stop offset="1" stop-color="#CAD8F3"/>
</linearGradient>
<linearGradient id="paint33_linear" x1="1142.45" y1="468.067" x2="1178.67" y2="468.067" gradientUnits="userSpaceOnUse">
<stop stop-color="#CEDDFE"/>
<stop offset="0.44" stop-color="#CBDAFC"/>
<stop offset="0.71" stop-color="#C3D2F6"/>
<stop offset="0.93" stop-color="#B5C4EB"/>
<stop offset="1" stop-color="#AEBDE6"/>
</linearGradient>
<linearGradient id="paint34_linear" x1="1142.45" y1="461.963" x2="1178.67" y2="461.963" gradientUnits="userSpaceOnUse">
<stop stop-color="#F4F9FF"/>
<stop offset="1" stop-color="#CAD8F3"/>
</linearGradient>
<linearGradient id="paint35_linear" x1="1223.95" y1="361.738" x2="1099.82" y2="445.673" gradientUnits="userSpaceOnUse">
<stop stop-color="#00366A"/>
<stop offset="0.33" stop-color="#003368"/>
<stop offset="0.57" stop-color="#012A62"/>
<stop offset="0.78" stop-color="#031A57"/>
<stop offset="0.97" stop-color="#050448"/>
<stop offset="1" stop-color="#050046"/>
</linearGradient>
<linearGradient id="paint36_linear" x1="1194.59" y1="489.15" x2="1276" y2="489.15" gradientUnits="userSpaceOnUse">
<stop stop-color="#00366A"/>
<stop offset="0.33" stop-color="#003368"/>
<stop offset="0.57" stop-color="#012A62"/>
<stop offset="0.78" stop-color="#031A57"/>
<stop offset="0.97" stop-color="#050448"/>
<stop offset="1" stop-color="#050046"/>
</linearGradient>
<linearGradient id="paint37_linear" x1="1194.68" y1="597.27" x2="1276.09" y2="597.27" gradientUnits="userSpaceOnUse">
<stop stop-color="#CEDDFE"/>
<stop offset="0.44" stop-color="#CBDAFC"/>
<stop offset="0.71" stop-color="#C3D2F6"/>
<stop offset="0.93" stop-color="#B5C4EB"/>
<stop offset="1" stop-color="#AEBDE6"/>
</linearGradient>
<linearGradient id="paint38_linear" x1="1194.59" y1="574.544" x2="1276" y2="574.544" gradientUnits="userSpaceOnUse">
<stop stop-color="#F4F9FF"/>
<stop offset="1" stop-color="#CAD8F3"/>
</linearGradient>
<linearGradient id="paint39_linear" x1="1232.64" y1="594.394" x2="1255.47" y2="554.78" gradientUnits="userSpaceOnUse">
<stop stop-color="#F4F9FF"/>
<stop offset="1" stop-color="#CAD8F3"/>
</linearGradient>
<linearGradient id="paint40_linear" x1="1194.68" y1="563.742" x2="1276.09" y2="563.742" gradientUnits="userSpaceOnUse">
<stop stop-color="#CEDDFE"/>
<stop offset="0.44" stop-color="#CBDAFC"/>
<stop offset="0.71" stop-color="#C3D2F6"/>
<stop offset="0.93" stop-color="#B5C4EB"/>
<stop offset="1" stop-color="#AEBDE6"/>
</linearGradient>
<linearGradient id="paint41_linear" x1="1185.19" y1="457.408" x2="1272.85" y2="457.408" gradientUnits="userSpaceOnUse">
<stop stop-color="#CEDDFE"/>
<stop offset="0.44" stop-color="#CBDAFC"/>
<stop offset="0.71" stop-color="#C3D2F6"/>
<stop offset="0.93" stop-color="#B5C4EB"/>
<stop offset="1" stop-color="#AEBDE6"/>
</linearGradient>
<linearGradient id="paint42_linear" x1="1195.95" y1="437.012" x2="1283.59" y2="437.012" gradientUnits="userSpaceOnUse">
<stop stop-color="#F4F9FF"/>
<stop offset="1" stop-color="#CAD8F3"/>
</linearGradient>
<linearGradient id="paint43_linear" x1="1225.84" y1="433.216" x2="1262.06" y2="433.216" gradientUnits="userSpaceOnUse">
<stop stop-color="#CEDDFE"/>
<stop offset="0.44" stop-color="#CBDAFC"/>
<stop offset="0.71" stop-color="#C3D2F6"/>
<stop offset="0.93" stop-color="#B5C4EB"/>
<stop offset="1" stop-color="#AEBDE6"/>
</linearGradient>
<linearGradient id="paint44_linear" x1="1225.84" y1="427.129" x2="1262.06" y2="427.129" gradientUnits="userSpaceOnUse">
<stop stop-color="#F4F9FF"/>
<stop offset="1" stop-color="#CAD8F3"/>
</linearGradient>
<linearGradient id="paint45_linear" x1="1294.21" y1="326.661" x2="1169.99" y2="410.595" gradientUnits="userSpaceOnUse">
<stop stop-color="#00366A"/>
<stop offset="0.33" stop-color="#003368"/>
<stop offset="0.57" stop-color="#012A62"/>
<stop offset="0.78" stop-color="#031A57"/>
<stop offset="0.97" stop-color="#050448"/>
<stop offset="1" stop-color="#050046"/>
</linearGradient>
<linearGradient id="paint46_linear" x1="1275.61" y1="445.377" x2="1357.31" y2="445.377" gradientUnits="userSpaceOnUse">
<stop stop-color="#00366A"/>
<stop offset="0.33" stop-color="#003368"/>
<stop offset="0.57" stop-color="#012A62"/>
<stop offset="0.78" stop-color="#031A57"/>
<stop offset="0.97" stop-color="#050448"/>
<stop offset="1" stop-color="#050046"/>
</linearGradient>
<linearGradient id="paint47_linear" x1="1275.61" y1="552.694" x2="1357.31" y2="552.694" gradientUnits="userSpaceOnUse">
<stop stop-color="#CEDDFE"/>
<stop offset="0.44" stop-color="#CBDAFC"/>
<stop offset="0.71" stop-color="#C3D2F6"/>
<stop offset="0.93" stop-color="#B5C4EB"/>
<stop offset="1" stop-color="#AEBDE6"/>
</linearGradient>
<linearGradient id="paint48_linear" x1="1275.61" y1="530.548" x2="1357.31" y2="530.548" gradientUnits="userSpaceOnUse">
<stop stop-color="#F4F9FF"/>
<stop offset="1" stop-color="#CAD8F3"/>
</linearGradient>
<linearGradient id="paint49_linear" x1="1313.64" y1="550.29" x2="1336.47" y2="510.677" gradientUnits="userSpaceOnUse">
<stop stop-color="#F4F9FF"/>
<stop offset="1" stop-color="#CAD8F3"/>
</linearGradient>
<linearGradient id="paint50_linear" x1="1275.61" y1="519.678" x2="1357.31" y2="519.678" gradientUnits="userSpaceOnUse">
<stop stop-color="#CEDDFE"/>
<stop offset="0.44" stop-color="#CBDAFC"/>
<stop offset="0.71" stop-color="#C3D2F6"/>
<stop offset="0.93" stop-color="#B5C4EB"/>
<stop offset="1" stop-color="#AEBDE6"/>
</linearGradient>
<linearGradient id="paint51_linear" x1="1277.15" y1="412.389" x2="1364.78" y2="412.389" gradientUnits="userSpaceOnUse">
<stop stop-color="#CEDDFE"/>
<stop offset="0.44" stop-color="#CBDAFC"/>
<stop offset="0.71" stop-color="#C3D2F6"/>
<stop offset="0.93" stop-color="#B5C4EB"/>
<stop offset="1" stop-color="#AEBDE6"/>
</linearGradient>
<linearGradient id="paint52_linear" x1="1277.15" y1="392.933" x2="1364.78" y2="392.933" gradientUnits="userSpaceOnUse">
<stop stop-color="#F4F9FF"/>
<stop offset="1" stop-color="#CAD8F3"/>
</linearGradient>
<linearGradient id="paint53_linear" x1="1306.78" y1="389.094" x2="1343" y2="389.094" gradientUnits="userSpaceOnUse">
<stop stop-color="#CEDDFE"/>
<stop offset="0.44" stop-color="#CBDAFC"/>
<stop offset="0.71" stop-color="#C3D2F6"/>
<stop offset="0.93" stop-color="#B5C4EB"/>
<stop offset="1" stop-color="#AEBDE6"/>
</linearGradient>
<linearGradient id="paint54_linear" x1="1306.87" y1="382.925" x2="1343.09" y2="382.925" gradientUnits="userSpaceOnUse">
<stop stop-color="#F4F9FF"/>
<stop offset="1" stop-color="#CAD8F3"/>
</linearGradient>
<linearGradient id="paint55_linear" x1="1387.73" y1="282.734" x2="1263.85" y2="366.995" gradientUnits="userSpaceOnUse">
<stop stop-color="#00366A"/>
<stop offset="0.33" stop-color="#003368"/>
<stop offset="0.57" stop-color="#012A62"/>
<stop offset="0.78" stop-color="#031A57"/>
<stop offset="0.97" stop-color="#050448"/>
<stop offset="1" stop-color="#050046"/>
</linearGradient>
<linearGradient id="paint56_linear" x1="894.411" y1="133.81" x2="1265.01" y2="133.81" gradientUnits="userSpaceOnUse">
<stop stop-color="#00366A"/>
<stop offset="0.33" stop-color="#003368"/>
<stop offset="0.57" stop-color="#012A62"/>
<stop offset="0.78" stop-color="#031A57"/>
<stop offset="0.97" stop-color="#050448"/>
<stop offset="1" stop-color="#050046"/>
</linearGradient>
<linearGradient id="paint57_linear" x1="1085.47" y1="40.2451" x2="1085.47" y2="241.484" gradientUnits="userSpaceOnUse">
<stop stop-color="#00366A"/>
<stop offset="0.33" stop-color="#003368"/>
<stop offset="0.57" stop-color="#012A62"/>
<stop offset="0.78" stop-color="#031A57"/>
<stop offset="0.97" stop-color="#050448"/>
<stop offset="1" stop-color="#050046"/>
</linearGradient>
<linearGradient id="paint58_linear" x1="1073.32" y1="140.837" x2="1051.68" y2="102.924" gradientUnits="userSpaceOnUse">
<stop stop-color="#BAF281" stop-opacity="0"/>
<stop offset="0.38" stop-color="#B9F281" stop-opacity="0.01"/>
<stop offset="0.52" stop-color="#B5F081" stop-opacity="0.04"/>
<stop offset="0.62" stop-color="#AEEE82" stop-opacity="0.1"/>
<stop offset="0.7" stop-color="#A5EB82" stop-opacity="0.18"/>
<stop offset="0.76" stop-color="#98E782" stop-opacity="0.29"/>
<stop offset="0.82" stop-color="#88E283" stop-opacity="0.42"/>
<stop offset="0.88" stop-color="#76DC84" stop-opacity="0.58"/>
<stop offset="0.93" stop-color="#60D585" stop-opacity="0.77"/>
<stop offset="0.97" stop-color="#49CD86" stop-opacity="0.97"/>
<stop offset="0.98" stop-color="#45CC86"/>
</linearGradient>
<linearGradient id="paint59_linear" x1="975.314" y1="112.496" x2="1110.02" y2="112.496" gradientUnits="userSpaceOnUse">
<stop stop-color="#BAF281"/>
<stop offset="0.39" stop-color="#B8F181"/>
<stop offset="0.55" stop-color="#B1EF81"/>
<stop offset="0.67" stop-color="#A5EB82"/>
<stop offset="0.76" stop-color="#93E583"/>
<stop offset="0.85" stop-color="#7CDE84"/>
<stop offset="0.92" stop-color="#61D585"/>
<stop offset="0.98" stop-color="#45CC86"/>
</linearGradient>
<linearGradient id="paint60_linear" x1="1047.07" y1="100.802" x2="1084.6" y2="138.595" gradientUnits="userSpaceOnUse">
<stop stop-color="#4C68EF" stop-opacity="0.99"/>
<stop offset="0.08" stop-color="#4C68EF" stop-opacity="0.79"/>
<stop offset="0.15" stop-color="#4C68EF" stop-opacity="0.6"/>
<stop offset="0.24" stop-color="#4C68EF" stop-opacity="0.44"/>
<stop offset="0.32" stop-color="#4C68EF" stop-opacity="0.3"/>
<stop offset="0.42" stop-color="#4C68EF" stop-opacity="0.19"/>
<stop offset="0.52" stop-color="#4C68EF" stop-opacity="0.11"/>
<stop offset="0.64" stop-color="#4C68EF" stop-opacity="0.05"/>
<stop offset="0.77" stop-color="#4C68EF" stop-opacity="0.01"/>
<stop offset="1" stop-color="#4C68EF" stop-opacity="0"/>
</linearGradient>
<linearGradient id="paint61_linear" x1="1100.51" y1="196.328" x2="1076.19" y2="172.005" gradientUnits="userSpaceOnUse">
<stop stop-color="#BAF281"/>
<stop offset="0.39" stop-color="#B8F181"/>
<stop offset="0.55" stop-color="#B1EF81"/>
<stop offset="0.67" stop-color="#A5EB82"/>
<stop offset="0.76" stop-color="#93E583"/>
<stop offset="0.85" stop-color="#7CDE84"/>
<stop offset="0.92" stop-color="#61D585"/>
<stop offset="0.98" stop-color="#45CC86"/>
</linearGradient>
<linearGradient id="paint62_linear" x1="1070.72" y1="186.779" x2="1105.12" y2="186.779" gradientUnits="userSpaceOnUse">
<stop stop-color="#FFF52A"/>
<stop offset="0.03" stop-color="#FFF02B"/>
<stop offset="0.14" stop-color="#FFDF2F"/>
<stop offset="0.27" stop-color="#FFD431"/>
<stop offset="0.47" stop-color="#FFCD33"/>
<stop offset="1" stop-color="#FFCB33"/>
</linearGradient>
<linearGradient id="paint63_linear" x1="1111.15" y1="160.784" x2="1145.56" y2="160.784" gradientUnits="userSpaceOnUse">
<stop stop-color="#BAF281"/>
<stop offset="0.39" stop-color="#B8F181"/>
<stop offset="0.55" stop-color="#B1EF81"/>
<stop offset="0.67" stop-color="#A5EB82"/>
<stop offset="0.76" stop-color="#93E583"/>
<stop offset="0.85" stop-color="#7CDE84"/>
<stop offset="0.92" stop-color="#61D585"/>
<stop offset="0.98" stop-color="#45CC86"/>
</linearGradient>
<linearGradient id="paint64_linear" x1="1106.84" y1="156.21" x2="1141.3" y2="156.21" gradientUnits="userSpaceOnUse">
<stop stop-color="#FFF52A"/>
<stop offset="0.03" stop-color="#FFF02B"/>
<stop offset="0.14" stop-color="#FFDF2F"/>
<stop offset="0.27" stop-color="#FFD431"/>
<stop offset="0.47" stop-color="#FFCD33"/>
<stop offset="1" stop-color="#FFCB33"/>
</linearGradient>
<linearGradient id="paint65_linear" x1="1184.15" y1="142.886" x2="1160.01" y2="118.626" gradientUnits="userSpaceOnUse">
<stop stop-color="#BAF281"/>
<stop offset="0.39" stop-color="#B8F181"/>
<stop offset="0.55" stop-color="#B1EF81"/>
<stop offset="0.67" stop-color="#A5EB82"/>
<stop offset="0.76" stop-color="#93E583"/>
<stop offset="0.85" stop-color="#7CDE84"/>
<stop offset="0.92" stop-color="#61D585"/>
<stop offset="0.98" stop-color="#45CC86"/>
</linearGradient>
<linearGradient id="paint66_linear" x1="1150.21" y1="135.386" x2="1184.62" y2="135.386" gradientUnits="userSpaceOnUse">
<stop stop-color="#FFF52A"/>
<stop offset="0.03" stop-color="#FFF02B"/>
<stop offset="0.14" stop-color="#FFDF2F"/>
<stop offset="0.27" stop-color="#FFD431"/>
<stop offset="0.47" stop-color="#FFCD33"/>
<stop offset="1" stop-color="#FFCB33"/>
</linearGradient>
<linearGradient id="paint67_linear" x1="1120.95" y1="284.221" x2="1285.39" y2="284.221" gradientUnits="userSpaceOnUse">
<stop stop-color="#F4F9FF"/>
<stop offset="0.3" stop-color="#F0F5FE"/>
<stop offset="0.63" stop-color="#E2EBFA"/>
<stop offset="0.97" stop-color="#CCDAF4"/>
<stop offset="1" stop-color="#CAD8F3"/>
</linearGradient>
<linearGradient id="paint68_linear" x1="1132.32" y1="283.729" x2="1287.32" y2="283.729" gradientUnits="userSpaceOnUse">
<stop stop-color="#00366A"/>
<stop offset="0.33" stop-color="#003368"/>
<stop offset="0.57" stop-color="#012A62"/>
<stop offset="0.78" stop-color="#031A57"/>
<stop offset="0.97" stop-color="#050448"/>
<stop offset="1" stop-color="#050046"/>
</linearGradient>
<linearGradient id="paint69_linear" x1="1152.4" y1="312.244" x2="1161.86" y2="312.244" gradientUnits="userSpaceOnUse">
<stop stop-color="#BAF281"/>
<stop offset="0.39" stop-color="#B8F181"/>
<stop offset="0.55" stop-color="#B1EF81"/>
<stop offset="0.67" stop-color="#A5EB82"/>
<stop offset="0.76" stop-color="#93E583"/>
<stop offset="0.85" stop-color="#7CDE84"/>
<stop offset="0.92" stop-color="#61D585"/>
<stop offset="0.98" stop-color="#45CC86"/>
</linearGradient>
<linearGradient id="paint70_linear" x1="982.286" y1="517.937" x2="991.745" y2="517.937" gradientUnits="userSpaceOnUse">
<stop stop-color="#00366A"/>
<stop offset="0.33" stop-color="#003368"/>
<stop offset="0.57" stop-color="#012A62"/>
<stop offset="0.78" stop-color="#031A57"/>
<stop offset="0.97" stop-color="#050448"/>
<stop offset="1" stop-color="#050046"/>
</linearGradient>
<linearGradient id="paint71_linear" x1="706.472" y1="670.656" x2="715.931" y2="670.656" gradientUnits="userSpaceOnUse">
<stop stop-color="#00366A"/>
<stop offset="0.33" stop-color="#003368"/>
<stop offset="0.57" stop-color="#012A62"/>
<stop offset="0.78" stop-color="#031A57"/>
<stop offset="0.97" stop-color="#050448"/>
<stop offset="1" stop-color="#050046"/>
</linearGradient>
<linearGradient id="paint72_linear" x1="1173.35" y1="293.443" x2="1182.81" y2="293.443" gradientUnits="userSpaceOnUse">
<stop stop-color="#BAF281"/>
<stop offset="0.39" stop-color="#B8F181"/>
<stop offset="0.55" stop-color="#B1EF81"/>
<stop offset="0.67" stop-color="#A5EB82"/>
<stop offset="0.76" stop-color="#93E583"/>
<stop offset="0.85" stop-color="#7CDE84"/>
<stop offset="0.92" stop-color="#61D585"/>
<stop offset="0.98" stop-color="#45CC86"/>
</linearGradient>
<linearGradient id="paint73_linear" x1="1210.57" y1="276.409" x2="1220.03" y2="276.409" gradientUnits="userSpaceOnUse">
<stop stop-color="#BAF281"/>
<stop offset="0.39" stop-color="#B8F181"/>
<stop offset="0.55" stop-color="#B1EF81"/>
<stop offset="0.67" stop-color="#A5EB82"/>
<stop offset="0.76" stop-color="#93E583"/>
<stop offset="0.85" stop-color="#7CDE84"/>
<stop offset="0.92" stop-color="#61D585"/>
<stop offset="0.98" stop-color="#45CC86"/>
</linearGradient>
<linearGradient id="paint74_linear" x1="1237.38" y1="258.119" x2="1246.87" y2="258.119" gradientUnits="userSpaceOnUse">
<stop stop-color="#BAF281"/>
<stop offset="0.39" stop-color="#B8F181"/>
<stop offset="0.55" stop-color="#B1EF81"/>
<stop offset="0.67" stop-color="#A5EB82"/>
<stop offset="0.76" stop-color="#93E583"/>
<stop offset="0.85" stop-color="#7CDE84"/>
<stop offset="0.92" stop-color="#61D585"/>
<stop offset="0.98" stop-color="#45CC86"/>
</linearGradient>
<linearGradient id="paint75_linear" x1="1111.42" y1="574.366" x2="1192.83" y2="574.366" gradientUnits="userSpaceOnUse">
<stop stop-color="#00AEE9"/>
<stop offset="1" stop-color="#93E0FF"/>
</linearGradient>
<linearGradient id="paint76_linear" x1="1123.18" y1="531.618" x2="1197.22" y2="544.841" gradientUnits="userSpaceOnUse">
<stop stop-color="#00AEE9"/>
<stop offset="0.628125" stop-color="#73DCFF"/>
</linearGradient>
<linearGradient id="paint77_linear" x1="1194.87" y1="539.497" x2="1276.28" y2="539.497" gradientUnits="userSpaceOnUse">
<stop stop-color="#4C68EF"/>
<stop offset="1" stop-color="#0097D5"/>
</linearGradient>
<linearGradient id="paint78_linear" x1="1275.7" y1="494.334" x2="1357.1" y2="494.334" gradientUnits="userSpaceOnUse">
<stop stop-color="#FFCB33"/>
<stop offset="1" stop-color="#FFF865"/>
</linearGradient>
<linearGradient id="paint79_linear" x1="1052.91" y1="250.764" x2="1052.91" y2="622.57" gradientUnits="userSpaceOnUse">
<stop stop-color="#F4F9FF"/>
<stop offset="1" stop-color="#CAD8F3"/>
</linearGradient>
</defs>
</svg>
