<svg width="1753" height="1212" viewBox="0 0 1753 1212" fill="none" xmlns="http://www.w3.org/2000/svg">
<g filter="url(#filter0_f_536:1430)">
<rect x="23" y="23" width="1707" height="1166" rx="30" fill="url(#paint0_linear_536:1430)"/>
</g>
<rect x="23" y="23" width="1696" height="1155" rx="30" fill="url(#paint1_linear_536:1430)"/>
<path d="M1701 627.069H41V465.061H1701V627.069Z" fill="url(#paint2_linear_536:1430)"/>
<path d="M107.717 431.65C103.702 431.65 99.4053 431.438 94.8268 431.016C90.3187 430.523 86.4446 429.853 83.2045 429.008V416.646C86.3038 416.928 90.037 417.174 94.4042 417.386C98.8418 417.527 103.033 417.597 106.977 417.597C110.992 417.597 114.162 417.069 116.487 416.012C118.811 414.885 119.973 412.772 119.973 409.673V406.82C119.973 404.495 119.269 402.735 117.86 401.537C116.451 400.269 114.514 399.635 112.049 399.635H105.393C97.9261 399.635 92.1854 398.015 88.1704 394.775C84.2258 391.464 82.2535 385.865 82.2535 377.975V374.172C82.2535 366.564 84.4019 361 88.6987 357.478C93.0658 353.956 99.3349 352.195 107.506 352.195C111.802 352.195 116.064 352.477 120.29 353.04C124.587 353.604 128.215 354.202 131.173 354.836V367.198C127.933 366.987 124.305 366.776 120.29 366.564C116.346 366.353 112.683 366.247 109.302 366.247C105.639 366.247 102.681 366.811 100.427 367.938C98.2431 369.065 97.1513 371.389 97.1513 374.911V377.024C97.1513 379.772 97.9261 381.744 99.4757 382.941C101.025 384.139 103.315 384.738 106.343 384.738H114.057C121.03 384.738 126.242 386.639 129.694 390.443C133.145 394.247 134.871 399.037 134.871 404.812V409.25C134.871 415.378 133.709 420.062 131.384 423.303C129.13 426.543 125.961 428.762 121.875 429.959C117.86 431.086 113.141 431.65 107.717 431.65ZM165.075 431.016C158.524 431.016 153.805 429.536 150.917 426.578C148.099 423.62 146.796 418.372 147.008 410.835L147.536 386.851H138.661V376.813L148.064 374.277L150.177 358.429H162.539V374.277H175.852V386.851H162.539V410.729C162.539 413.829 163.103 415.907 164.23 416.963C165.357 417.949 166.66 418.548 168.139 418.759L175.324 419.393V431.016H165.075ZM194.52 431.65C190.223 431.65 186.736 430.382 184.059 427.846C181.383 425.31 180.044 421.788 180.044 417.28V412.208C180.044 407.912 181.559 404.39 184.588 401.643C187.617 398.825 192.336 397.416 198.746 397.416H213.221V393.507C213.221 391.746 212.904 390.302 212.27 389.175C211.707 387.978 210.544 387.132 208.783 386.639C207.022 386.076 204.381 385.794 200.859 385.794H183.848V376.708C186.666 375.862 189.871 375.123 193.463 374.489C197.055 373.855 201.423 373.538 206.565 373.538C211.284 373.538 215.299 374.101 218.61 375.228C221.92 376.355 224.456 378.292 226.217 381.039C227.978 383.787 228.858 387.59 228.858 392.451V431.016H216.496L213.961 424.993C213.327 425.697 212.059 426.578 210.157 427.635C208.255 428.621 205.931 429.536 203.183 430.382C200.507 431.227 197.619 431.65 194.52 431.65ZM202.444 420.767C203.641 420.767 205.015 420.591 206.565 420.239C208.185 419.816 209.629 419.393 210.896 418.971C212.235 418.478 213.01 418.161 213.221 418.02V404.812L203.712 405.446C198.358 405.869 195.682 408.194 195.682 412.42V414.744C195.682 416.998 196.316 418.583 197.584 419.499C198.922 420.344 200.542 420.767 202.444 420.767ZM238.452 431.016V350.399H254.089V393.93H260.746L273.213 374.277H289.062L272.368 401.009L290.753 431.016H274.904L260.534 407.982H254.089V431.016H238.452ZM318.721 431.544C312.452 431.544 307.451 430.734 303.718 429.114C299.985 427.423 297.273 424.5 295.582 420.344C293.962 416.118 293.152 410.236 293.152 402.699C293.152 395.022 293.927 389.069 295.477 384.843C297.026 380.617 299.633 377.658 303.295 375.968C306.958 374.277 311.924 373.432 318.193 373.432C323.758 373.432 328.231 373.996 331.612 375.123C335.063 376.25 337.528 378.222 339.008 381.039C340.557 383.857 341.332 387.837 341.332 392.979C341.332 398.755 339.677 402.735 336.366 404.918C333.056 407.102 328.583 408.194 322.948 408.194H308.684C308.754 411.081 309.177 413.371 309.952 415.061C310.727 416.752 312.1 417.984 314.072 418.759C316.115 419.534 319.038 419.922 322.842 419.922H339.43V429.114C336.683 429.677 333.654 430.241 330.344 430.804C327.104 431.297 323.229 431.544 318.721 431.544ZM308.473 398.896H321.363C323.476 398.896 325.026 398.473 326.012 397.628C326.998 396.712 327.491 395.198 327.491 393.084C327.491 389.985 326.751 387.837 325.272 386.639C323.863 385.371 321.504 384.738 318.193 384.738C314.601 384.738 312.065 385.724 310.586 387.696C309.177 389.598 308.473 393.331 308.473 398.896ZM373.232 431.016L382.319 352.829H397.322L415.284 412.737L433.14 352.829H448.038L457.23 431.016H442.121L436.099 379.772L422.469 431.016H407.783L394.153 380.406L388.342 431.016H373.232ZM466.508 431.016V352.829H482.146V431.016H466.508ZM517.157 431.65C513.142 431.65 508.845 431.438 504.267 431.016C499.759 430.523 495.885 429.853 492.644 429.008V416.646C495.744 416.928 499.477 417.174 503.844 417.386C508.282 417.527 512.473 417.597 516.417 417.597C520.432 417.597 523.602 417.069 525.927 416.012C528.251 414.885 529.413 412.772 529.413 409.673V406.82C529.413 404.495 528.709 402.735 527.3 401.537C525.891 400.269 523.954 399.635 521.489 399.635H514.833C507.366 399.635 501.625 398.015 497.61 394.775C493.666 391.464 491.694 385.865 491.694 377.975V374.172C491.694 366.564 493.842 361 498.139 357.478C502.506 353.956 508.775 352.195 516.946 352.195C521.243 352.195 525.504 352.477 529.73 353.04C534.027 353.604 537.655 354.202 540.613 354.836V367.198C537.373 366.987 533.745 366.776 529.73 366.564C525.786 366.353 522.123 366.247 518.742 366.247C515.079 366.247 512.121 366.811 509.867 367.938C507.683 369.065 506.591 371.389 506.591 374.911V377.024C506.591 379.772 507.366 381.744 508.916 382.941C510.465 384.139 512.755 384.738 515.784 384.738H523.497C530.47 384.738 535.682 386.639 539.134 390.443C542.585 394.247 544.311 399.037 544.311 404.812V409.25C544.311 415.378 543.149 420.062 540.824 423.303C538.57 426.543 535.401 428.762 531.315 429.959C527.3 431.086 522.581 431.65 517.157 431.65ZM550.81 406.714V394.035H583.141V406.714H550.81ZM584.263 431.016L603.492 401.854L584.263 374.277H600.006L612.579 392.239L623.779 374.277H639.627L620.398 403.545L639.627 431.016H623.779L611.311 413.159L600.111 431.016H584.263ZM661.501 431.016V366.881H640.052V352.829H698.692V366.881H677.138V431.016H661.501ZM723.322 431.544C717.053 431.544 712.017 430.663 708.213 428.902C704.41 427.071 701.627 424.042 699.866 419.816C698.176 415.59 697.33 409.814 697.33 402.488C697.33 394.74 698.211 388.788 699.972 384.632C701.733 380.406 704.515 377.482 708.319 375.862C712.123 374.242 717.124 373.432 723.322 373.432C729.591 373.432 734.628 374.277 738.431 375.968C742.305 377.658 745.088 380.617 746.778 384.843C748.539 389.069 749.42 394.951 749.42 402.488C749.42 410.025 748.574 415.907 746.884 420.133C745.193 424.359 742.446 427.318 738.643 429.008C734.839 430.699 729.732 431.544 723.322 431.544ZM723.322 419.076C725.788 419.076 727.795 418.724 729.345 418.02C730.894 417.315 732.021 415.801 732.726 413.476C733.43 411.081 733.782 407.419 733.782 402.488C733.782 397.487 733.43 393.824 732.726 391.5C732.021 389.175 730.894 387.661 729.345 386.956C727.795 386.252 725.788 385.9 723.322 385.9C720.857 385.9 718.849 386.252 717.3 386.956C715.821 387.661 714.729 389.175 714.024 391.5C713.32 393.824 712.968 397.487 712.968 402.488C712.968 407.419 713.32 411.081 714.024 413.476C714.729 415.801 715.821 417.315 717.3 418.02C718.849 418.724 720.857 419.076 723.322 419.076ZM757.681 431.016V350.399H773.318V393.93H779.975L792.442 374.277H808.291L791.597 401.009L809.982 431.016H794.133L779.763 407.982H773.318V431.016H757.681ZM837.95 431.544C831.681 431.544 826.68 430.734 822.947 429.114C819.214 427.423 816.502 424.5 814.811 420.344C813.191 416.118 812.381 410.236 812.381 402.699C812.381 395.022 813.156 389.069 814.706 384.843C816.255 380.617 818.861 377.658 822.524 375.968C826.187 374.277 831.153 373.432 837.422 373.432C842.987 373.432 847.46 373.996 850.841 375.123C854.292 376.25 856.757 378.222 858.237 381.039C859.786 383.857 860.561 387.837 860.561 392.979C860.561 398.755 858.906 402.735 855.595 404.918C852.285 407.102 847.812 408.194 842.177 408.194H827.913C827.983 411.081 828.406 413.371 829.181 415.061C829.956 416.752 831.329 417.984 833.301 418.759C835.344 419.534 838.267 419.922 842.071 419.922H858.659V429.114C855.912 429.677 852.883 430.241 849.573 430.804C846.332 431.297 842.458 431.544 837.95 431.544ZM827.701 398.896H840.592C842.705 398.896 844.255 398.473 845.241 397.628C846.227 396.712 846.72 395.198 846.72 393.084C846.72 389.985 845.98 387.837 844.501 386.639C843.092 385.371 840.733 384.738 837.422 384.738C833.83 384.738 831.294 385.724 829.815 387.696C828.406 389.598 827.701 393.331 827.701 398.896ZM868.708 431.016V374.277H881.599L884.346 380.089C886.459 378.398 889.136 376.848 892.376 375.44C895.616 374.031 898.891 373.326 902.202 373.326C906.851 373.326 910.443 374.242 912.979 376.074C915.515 377.905 917.276 380.37 918.262 383.47C919.318 386.498 919.847 389.88 919.847 393.613V431.016H904.209V395.62C904.209 392.873 903.47 390.83 901.991 389.492C900.511 388.083 898.539 387.379 896.074 387.379C893.82 387.379 891.707 387.766 889.734 388.541C887.832 389.316 886.036 390.337 884.346 391.605V431.016H868.708Z" fill="white"/>
<path d="M103.174 584.16C101.483 584.16 99.5461 583.984 97.3625 583.632C95.1789 583.35 93.0657 582.646 91.023 581.519C89.0508 580.392 87.3954 578.702 86.0571 576.447C84.7892 574.123 84.1553 570.953 84.1553 566.938V523.302C84.1553 518.653 85.071 515.025 86.9024 512.419C88.7338 509.813 91.023 508.016 93.7701 507.03C96.5172 505.974 99.2643 505.445 102.011 505.445C109.901 505.445 116.487 505.586 121.769 505.868C127.052 506.15 131.736 506.467 135.822 506.819V519.921H106.66C104.477 519.921 102.786 520.449 101.589 521.505C100.391 522.562 99.7926 524.182 99.7926 526.366V537.671L130.75 538.516V550.878L99.7926 551.724V562.501C99.7926 565.248 100.427 567.114 101.694 568.101C103.033 569.016 104.582 569.474 106.343 569.474H135.822V582.576C131.103 583.069 125.784 583.456 119.868 583.738C113.951 584.02 108.386 584.16 103.174 584.16ZM156.391 584.266C152.095 584.266 148.608 582.998 145.931 580.462C143.255 577.927 141.916 574.405 141.916 569.897V564.825C141.916 560.528 143.431 557.006 146.46 554.259C149.488 551.442 154.208 550.033 160.617 550.033H175.093V546.124C175.093 544.363 174.776 542.919 174.142 541.792C173.578 540.594 172.416 539.749 170.655 539.256C168.894 538.692 166.252 538.411 162.731 538.411H145.72V529.324C148.537 528.479 151.742 527.739 155.335 527.105C158.927 526.471 163.294 526.154 168.436 526.154C173.155 526.154 177.17 526.718 180.481 527.845C183.792 528.972 186.327 530.909 188.088 533.656C189.849 536.403 190.73 540.207 190.73 545.067V583.632H178.368L175.832 577.61C175.198 578.314 173.93 579.195 172.028 580.251C170.127 581.237 167.802 582.153 165.055 582.998C162.378 583.844 159.49 584.266 156.391 584.266ZM164.315 573.383C165.513 573.383 166.886 573.207 168.436 572.855C170.056 572.432 171.5 572.01 172.768 571.587C174.106 571.094 174.881 570.777 175.093 570.636V557.429L165.583 558.063C160.23 558.486 157.554 560.81 157.554 565.036V567.361C157.554 569.615 158.188 571.2 159.455 572.116C160.794 572.961 162.414 573.383 164.315 573.383ZM200.325 583.632V526.894H212.37L215.962 535.558C218.005 532.952 220.294 530.733 222.83 528.902C225.436 527.07 228.5 526.154 232.022 526.154C232.797 526.154 233.572 526.19 234.347 526.26C235.192 526.331 235.967 526.471 236.671 526.683V542.743C235.544 542.602 234.382 542.496 233.184 542.426C232.057 542.285 231.001 542.214 230.015 542.214C226.915 542.214 224.274 542.743 222.09 543.799C219.907 544.785 217.864 546.3 215.962 548.343V583.632H200.325ZM242.888 583.632V526.894H255.779L258.526 532.705C260.639 531.015 263.316 529.465 266.556 528.056C269.796 526.647 273.071 525.943 276.382 525.943C281.031 525.943 284.623 526.859 287.159 528.69C289.695 530.522 291.456 532.987 292.442 536.086C293.498 539.115 294.027 542.496 294.027 546.229V583.632H278.389V548.237C278.389 545.49 277.65 543.447 276.171 542.109C274.691 540.7 272.719 539.996 270.254 539.996C268 539.996 265.887 540.383 263.914 541.158C262.012 541.933 260.216 542.954 258.526 544.222V583.632H242.888ZM323.668 583.632L342.898 554.471L323.668 526.894H339.411L351.985 544.856L363.184 526.894H379.033L359.803 556.161L379.033 583.632H363.184L350.717 565.776L339.517 583.632H323.668ZM400.905 583.632V519.498H379.457V505.445H438.097V519.498H416.543V583.632H400.905ZM462.727 584.16C456.458 584.16 451.421 583.28 447.618 581.519C443.814 579.688 441.032 576.659 439.271 572.432C437.58 568.206 436.735 562.43 436.735 555.105C436.735 547.356 437.616 541.404 439.377 537.248C441.137 533.022 443.92 530.099 447.723 528.479C451.527 526.859 456.528 526.049 462.727 526.049C468.996 526.049 474.032 526.894 477.836 528.585C481.71 530.275 484.492 533.233 486.183 537.46C487.944 541.686 488.824 547.568 488.824 555.105C488.824 562.642 487.979 568.523 486.289 572.749C484.598 576.976 481.851 579.934 478.047 581.625C474.244 583.315 469.137 584.16 462.727 584.16ZM462.727 571.693C465.192 571.693 467.2 571.341 468.749 570.636C470.299 569.932 471.426 568.417 472.13 566.093C472.835 563.698 473.187 560.035 473.187 555.105C473.187 550.103 472.835 546.441 472.13 544.116C471.426 541.792 470.299 540.277 468.749 539.573C467.2 538.869 465.192 538.516 462.727 538.516C460.262 538.516 458.254 538.869 456.704 539.573C455.225 540.277 454.133 541.792 453.429 544.116C452.725 546.441 452.372 550.103 452.372 555.105C452.372 560.035 452.725 563.698 453.429 566.093C454.133 568.417 455.225 569.932 456.704 570.636C458.254 571.341 460.262 571.693 462.727 571.693ZM497.087 583.632V503.015H512.724V546.546H519.381L531.848 526.894H547.697L531.003 553.625L549.387 583.632H533.539L519.169 560.599H512.724V583.632H497.087ZM577.356 584.16C571.087 584.16 566.086 583.35 562.353 581.73C558.619 580.04 555.908 577.117 554.217 572.961C552.597 568.734 551.787 562.853 551.787 555.316C551.787 547.638 552.562 541.686 554.111 537.46C555.661 533.233 558.267 530.275 561.93 528.585C565.593 526.894 570.559 526.049 576.828 526.049C582.392 526.049 586.865 526.612 590.246 527.739C593.698 528.866 596.163 530.839 597.642 533.656C599.192 536.474 599.967 540.453 599.967 545.595C599.967 551.371 598.312 555.351 595.001 557.535C591.69 559.718 587.217 560.81 581.582 560.81H567.319C567.389 563.698 567.812 565.987 568.587 567.678C569.361 569.368 570.735 570.601 572.707 571.376C574.75 572.151 577.673 572.538 581.477 572.538H598.065V581.73C595.318 582.294 592.289 582.857 588.978 583.421C585.738 583.914 581.864 584.16 577.356 584.16ZM567.107 551.512H579.998C582.111 551.512 583.66 551.09 584.646 550.244C585.633 549.329 586.126 547.814 586.126 545.701C586.126 542.602 585.386 540.453 583.907 539.256C582.498 537.988 580.138 537.354 576.828 537.354C573.235 537.354 570.7 538.34 569.22 540.313C567.812 542.214 567.107 545.948 567.107 551.512ZM608.113 583.632V526.894H621.003L623.75 532.705C625.864 531.015 628.54 529.465 631.78 528.056C635.021 526.647 638.296 525.943 641.607 525.943C646.256 525.943 649.848 526.859 652.384 528.69C654.919 530.522 656.68 532.987 657.667 536.086C658.723 539.115 659.251 542.496 659.251 546.229V583.632H643.614V548.237C643.614 545.49 642.874 543.447 641.395 542.109C639.916 540.7 637.944 539.996 635.478 539.996C633.224 539.996 631.111 540.383 629.139 541.158C627.237 541.933 625.441 542.954 623.75 544.222V583.632H608.113Z" fill="#1F2237"/>
<path d="M1008.7 303.808L963.973 307.337L1245.4 143.748C1267.76 130.751 1295.37 130.751 1317.72 143.748L1026.14 313.949L1008.7 303.808Z" fill="#27305A"/>
<path d="M659.129 810.699V949.183L664.139 952.059V946.265L693.115 929.355V790.582C693.128 788.35 692.471 786.165 691.23 784.31L692.597 783.731L687.671 780.916L687.091 780.585C683.6 778.713 679.376 778.835 675.998 780.906C665.554 787.196 659.173 798.499 659.181 810.688L659.129 810.699Z" fill="#3E4651"/>
<path d="M698.081 793.395V932.241L664.179 952.057V813.574C664.181 801.381 670.565 790.078 681.005 783.781C684.485 781.677 688.826 781.608 692.37 783.601C695.915 785.594 698.111 789.34 698.122 793.405L698.081 793.395Z" fill="#2B3541"/>
<path d="M1223.76 802.243L1356.4 724.629L1191.86 627.571L1144.13 758.779L1223.76 802.243Z" fill="#262831"/>
<path d="M1223.76 825.6L1008.7 700.384V680.225L1223.76 802.244V825.6Z" fill="#242A32"/>
<path d="M1008.7 587.077L1265.76 435.326V188.184L1008.7 338.589" fill="url(#paint3_linear_536:1430)"/>
<path d="M949.537 337.864V665.911L1008.7 700.372V303.838C996.526 296.726 981.477 296.674 969.256 303.704C957.035 310.732 949.511 323.766 949.537 337.864Z" fill="url(#paint4_linear_536:1430)"/>
<path d="M644.423 804.582C644.394 807.793 645.802 810.85 648.263 812.913C648.749 813.296 649.297 813.7 649.888 814.082L844.491 928.237L839.317 919.306L1574.06 480.53L1386.28 369.801C1378.77 365.403 1369.46 365.403 1361.93 369.801L659.108 779.064C650.026 784.356 644.436 794.071 644.423 804.582Z" fill="url(#paint5_linear_536:1430)"/>
<path opacity="0.2" d="M674.371 770.172L666.724 774.633L877.615 896.404L885.18 891.892L674.371 770.172Z" fill="white"/>
<path opacity="0.2" d="M739.638 732.144L731.98 736.603L942.055 857.888L949.599 853.387L739.638 732.144Z" fill="white"/>
<path opacity="0.2" d="M804.916 694.153L797.278 698.612L1006.52 819.42L1014.08 814.919L804.916 694.153Z" fill="white"/>
<path opacity="0.2" d="M870.188 656.123L862.53 660.583L1070.98 780.936L1078.54 776.434L870.188 656.123Z" fill="white"/>
<path opacity="0.2" d="M935.444 618.112L927.786 622.572L1135.43 742.491L1142.99 737.989L935.444 618.112Z" fill="white"/>
<path opacity="0.2" d="M1190.69 698.656C1191.26 698.994 1191.92 699.17 1192.59 699.163C1194.39 699.242 1196 698.058 1196.47 696.319C1196.93 694.578 1196.13 692.748 1194.53 691.92L1000.7 580.021L993.021 584.481L1190.69 698.656Z" fill="white"/>
<path opacity="0.2" d="M1241.81 652.458C1242.4 652.782 1243.06 652.955 1243.74 652.965C1245.46 652.952 1246.98 651.783 1247.42 650.109C1247.87 648.434 1247.14 646.669 1245.65 645.794L1065.98 542.091L1058.3 546.551L1241.81 652.458Z" fill="white"/>
<path opacity="0.2" d="M1292.94 606.305C1293.53 606.636 1294.19 606.811 1294.86 606.812C1296.6 606.813 1298.12 605.654 1298.57 603.981C1299.03 602.309 1298.3 600.539 1296.81 599.662L1131.24 504.072L1123.55 508.533L1292.94 606.305Z" fill="white"/>
<path d="M1577.78 488.746C1577.78 499.533 1572.05 509.51 1562.73 514.948L855.088 928.112C851.781 929.983 847.732 929.971 844.435 928.08C841.139 926.19 839.083 922.701 839.028 918.902C839.03 908.119 844.753 898.148 854.064 892.709L1561.7 479.524C1565.01 477.643 1569.06 477.649 1572.37 479.541C1575.67 481.433 1577.72 484.929 1577.78 488.735V488.746Z" fill="url(#paint6_linear_536:1430)"/>
<path d="M1367.78 511.691L1368 528.6C1367.77 536.456 1364.27 543.857 1358.34 549.028C1339.17 567.656 1297.81 573.947 1265.92 563.091C1261.63 561.666 1257.47 559.851 1253.5 557.669C1240.48 550.425 1233.38 540.429 1233.27 530.173L1233.05 513.264C1233.19 523.519 1240.3 533.495 1253.3 540.76C1257.27 542.943 1261.43 544.758 1265.73 546.182C1297.59 557.038 1338.97 550.787 1358.15 532.118C1364.09 526.969 1367.59 519.552 1367.78 511.691Z" fill="url(#paint7_linear_536:1430)"/>
<path d="M1367.78 511.69L1368 528.599V529.189L1367.8 512.29V511.69" fill="url(#paint8_linear_536:1430)"/>
<path d="M1367.4 516.109C1367.16 517.391 1366.82 518.652 1366.37 519.876C1365.89 521.198 1365.31 522.482 1364.63 523.715C1363.86 525.132 1362.98 526.491 1362 527.782C1360.81 529.315 1359.51 530.761 1358.12 532.108L1357.81 532.398C1355.21 534.855 1352.35 537.036 1349.3 538.906C1344.46 541.849 1339.3 544.234 1333.92 546.016C1329.74 547.432 1325.47 548.562 1321.14 549.4C1318.31 549.959 1315.42 550.435 1312.5 550.735C1310.04 551.025 1307.55 551.232 1305.07 551.356C1302.56 551.481 1300.45 551.511 1298.21 551.481C1295.97 551.449 1293.81 551.387 1291.62 551.232C1289.44 551.077 1287.28 550.88 1285.13 550.6C1282.97 550.321 1280.67 549.97 1278.47 549.566C1276.28 549.162 1273.7 548.53 1271.37 547.941C1269.44 547.413 1267.52 546.843 1265.64 546.213C1264.77 545.923 1263.94 545.612 1263.11 545.302C1259.71 544.041 1256.43 542.529 1253.27 540.78C1240.23 533.535 1233.15 523.539 1233.03 513.284L1233.22 530.193C1233.35 540.449 1240.46 550.424 1253.46 557.689C1256.63 559.439 1259.91 560.95 1263.31 562.212C1264.13 562.522 1264.97 562.833 1265.84 563.122C1267.72 563.764 1269.62 564.333 1271.57 564.85C1273.91 565.471 1276.27 566.013 1278.67 566.475C1281.06 566.93 1283.09 567.261 1285.33 567.51C1287.56 567.758 1289.66 567.985 1291.82 568.142C1293.98 568.297 1296.2 568.368 1298.41 568.389C1300.62 568.41 1303.01 568.389 1305.25 568.265C1307.51 568.142 1310.25 567.923 1312.72 567.644C1315.63 567.313 1318.52 566.868 1321.35 566.309C1325.68 565.477 1329.95 564.349 1334.13 562.936C1339.51 561.154 1344.66 558.769 1349.51 555.827C1352.55 553.947 1355.41 551.766 1358.02 549.317L1358.32 549.038C1359.7 547.682 1360.99 546.233 1362.18 544.702C1363.15 543.413 1364.03 542.057 1364.82 540.645C1365.5 539.413 1366.08 538.129 1366.55 536.806C1367 535.583 1367.36 534.322 1367.59 533.039C1367.81 531.778 1367.94 530.502 1367.97 529.221L1367.76 512.311C1367.74 513.585 1367.63 514.856 1367.4 516.109Z" fill="#4C68EF"/>
<path d="M1271.47 550.26C1273.79 550.891 1276.17 551.429 1278.57 551.884C1280.95 552.34 1282.99 552.671 1285.23 552.92C1287.44 553.168 1289.55 553.395 1291.73 553.541C1293.91 553.685 1296.11 553.778 1298.3 553.789C1300.5 553.799 1302.91 553.789 1305.16 553.664C1307.41 553.541 1310.14 553.333 1312.6 553.054C1315.53 552.712 1318.41 552.267 1321.23 551.708C1325.56 550.87 1329.84 549.743 1334.03 548.336C1339.39 546.545 1344.56 544.156 1349.39 541.215C1352.45 539.346 1355.31 537.162 1357.91 534.696L1358.22 534.406C1359.62 533.054 1360.91 531.602 1362.09 530.059C1363.07 528.788 1363.96 527.442 1364.74 526.034C1365.41 524.796 1365.99 523.51 1366.46 522.184C1366.91 520.961 1367.25 519.706 1367.5 518.427C1367.74 517.165 1367.87 515.885 1367.88 514.599V512.385C1367.84 514.937 1367.37 517.465 1366.5 519.867C1366.03 521.189 1365.45 522.472 1364.79 523.706C1364 525.121 1363.11 526.477 1362.13 527.763C1360.95 529.301 1359.66 530.749 1358.26 532.098L1357.95 532.388C1355.35 534.842 1352.49 537.02 1349.43 538.887C1344.59 541.836 1339.44 544.225 1334.05 546.006C1329.87 547.423 1325.61 548.554 1321.28 549.391C1318.44 549.939 1315.55 550.425 1312.64 550.726C1310.18 551.016 1307.68 551.222 1305.21 551.347C1302.72 551.471 1300.6 551.491 1298.34 551.471C1296.08 551.45 1293.95 551.357 1291.76 551.222C1289.58 551.087 1287.41 550.87 1285.26 550.591C1283.11 550.311 1280.8 549.96 1278.6 549.556C1276.41 549.153 1273.83 548.521 1271.51 547.921C1269.58 547.403 1267.65 546.834 1265.77 546.193C1264.9 545.914 1264.07 545.603 1263.24 545.293C1259.86 544.029 1256.57 542.517 1253.4 540.77C1240.37 533.526 1233.28 523.529 1233.16 513.275V515.768C1233.36 525.951 1240.4 535.866 1253.4 543.109C1256.56 544.859 1259.86 546.368 1263.24 547.621C1264.07 547.932 1264.9 548.242 1265.77 548.532C1267.64 549.205 1269.54 549.782 1271.47 550.26Z" fill="white"/>
<path d="M1347.54 483.947C1369.36 496.116 1374.55 515.913 1358.14 531.849C1338.96 550.477 1297.59 556.768 1265.73 545.912C1261.43 544.49 1257.27 542.673 1253.3 540.49C1231.46 528.32 1226.28 508.503 1242.7 492.566C1261.86 473.938 1303.25 467.647 1335.1 478.503C1339.4 479.94 1343.56 481.762 1347.54 483.947Z" fill="#4C68EF"/>
<path d="M1338.12 489.202C1355.59 498.941 1359.75 514.794 1346.6 527.554C1331.23 542.446 1298.13 547.537 1272.6 538.803C1269.18 537.651 1265.87 536.198 1262.7 534.457C1245.23 524.708 1241.08 508.864 1254.21 496.105C1269.59 481.203 1302.69 476.122 1328.2 484.846C1331.63 485.994 1334.95 487.452 1338.12 489.202Z" fill="#4C68EF"/>
<path d="M1340.27 487.878C1336.93 486.036 1333.42 484.495 1329.79 483.273C1302.81 474.063 1267.82 479.413 1251.58 495.173C1237.75 508.627 1242.09 525.391 1260.55 535.698C1263.89 537.55 1267.4 539.092 1271.02 540.303C1298 549.513 1333.01 544.163 1349.24 528.423C1363.13 514.929 1358.76 498.174 1340.27 487.878ZM1346.6 527.513C1331.23 542.414 1298.13 547.495 1272.6 538.762C1269.18 537.619 1265.85 536.165 1262.7 534.414C1245.23 524.676 1241.08 508.823 1254.21 496.063C1269.59 481.172 1302.69 476.081 1328.2 484.814C1331.63 485.963 1334.95 487.418 1338.12 489.161C1355.59 498.909 1359.74 514.763 1346.6 527.523V527.513Z" fill="white"/>
<path d="M1280.66 503.69C1286.49 501.306 1292.88 500.59 1299.1 501.621C1300.48 501.851 1301.84 502.158 1303.18 502.542C1304.62 502.997 1306.19 502.916 1307.58 502.315L1317.64 497.14L1326.85 503.287L1316.78 508.461C1315.62 509.04 1315.24 510.003 1315.75 510.873C1318.74 515.746 1316.45 521.024 1309.69 524.46C1299.56 529.014 1287.85 528.358 1278.3 522.701C1269.94 517.112 1270.44 508.865 1279.45 504.249C1279.8 504.073 1280.22 503.897 1280.66 503.69Z" fill="white"/>
<path d="M1317.3 497.533L1326.11 503.4C1326.22 503.456 1326.27 503.588 1326.21 503.7C1326.2 503.747 1326.16 503.784 1326.11 503.804C1325.9 503.908 1325.65 503.908 1325.43 503.804L1316.61 497.937C1316.5 497.877 1316.46 497.748 1316.51 497.636C1316.54 497.592 1316.57 497.556 1316.61 497.533C1316.83 497.428 1317.08 497.428 1317.3 497.533ZM1319.16 496.581C1317.87 495.795 1316.26 495.702 1314.88 496.332C1314.18 496.547 1313.78 497.29 1313.99 497.998C1314.09 498.376 1314.36 498.683 1314.73 498.836L1323.53 504.714C1324.83 505.498 1326.44 505.588 1327.82 504.952C1328.36 504.794 1328.73 504.315 1328.77 503.755C1328.8 503.194 1328.49 502.673 1327.97 502.448L1319.16 496.581Z" fill="white"/>
<path d="M1281.95 507.23C1275.16 510.686 1274.82 516.927 1281.19 521.17C1284.77 523.384 1288.86 524.619 1293.08 524.75C1296.69 525.017 1300.32 524.494 1303.73 523.218C1302.92 521.199 1301.46 519.506 1299.58 518.406C1296.04 516.078 1289.77 515.468 1285.35 511.638C1283.91 510.434 1282.75 508.93 1281.95 507.23Z" fill="#4C68EF"/>
<path d="M1005 303.807L1216.28 426.768C1259.68 452.038 1286.39 498.472 1286.39 548.694V864.219L1578.32 694.256V378.782C1578.32 328.563 1551.62 282.126 1508.23 256.846L1313.94 143.768L1283.21 141.056L1005 303.807Z" fill="url(#paint9_linear_536:1430)"/>
<path d="M997.253 296.928V359.381L1234.3 497.406V434.941L997.253 296.928Z" fill="#344354"/>
<path d="M841.284 926.973V1065.46L846.293 1068.31V1062.54L875.269 1045.63V906.845C875.283 904.612 874.623 902.426 873.375 900.575L874.761 900.006L869.825 897.19L869.256 896.849C865.759 894.984 861.539 895.102 858.152 897.16C847.717 903.466 841.338 914.771 841.336 926.964L841.284 926.973Z" fill="#303A45"/>
<path d="M880.232 909.713V1048.55L846.31 1068.31V929.8C846.312 917.604 852.695 906.299 863.137 899.996C866.626 897.893 870.978 897.835 874.523 899.841C878.068 901.847 880.258 905.609 880.253 909.683L880.232 909.713Z" fill="url(#paint10_linear_536:1430)"/>
<path d="M1154.53 743.34V881.833L1159.54 884.71V878.926L1188.52 862.016V723.221C1188.53 720.988 1187.87 718.802 1186.62 716.951L1187.99 716.371L1183.04 713.515L1182.47 713.184C1180.84 712.324 1179.03 711.871 1177.19 711.86C1175.13 711.858 1173.12 712.428 1171.37 713.504C1160.93 719.799 1154.54 731.103 1154.54 743.297L1154.53 743.34Z" fill="#343E4A"/>
<path d="M1193.49 726.089V864.935L1159.54 884.7V746.217C1159.54 734.024 1165.93 722.721 1176.37 716.424C1179.85 714.316 1184.21 714.251 1187.75 716.257C1191.3 718.262 1193.49 722.025 1193.48 726.1L1193.49 726.089Z" fill="url(#paint11_linear_536:1430)"/>
<path d="M991.75 453.5L955.654 432.492V515.508L991.761 536.557L991.75 453.5Z" fill="url(#paint12_linear_536:1430)"/>
<path d="M997.773 450.084L961.667 429.077L955.654 432.492L991.75 453.5L997.773 450.084Z" fill="url(#paint13_linear_536:1430)"/>
<path d="M997.772 450.083V533.1L991.759 536.514V453.498L997.772 450.083Z" fill="url(#paint14_linear_536:1430)"/>
<path d="M986.658 456.355L960.786 441.276V466.961L986.658 482.039V456.355Z" fill="#4C68EF"/>
<path d="M986.656 488.952L980.23 485.206V491.57L986.656 495.317V488.952Z" fill="white"/>
<path d="M976.91 483.303L970.494 479.557V485.941L976.9 489.678L976.91 483.303Z" fill="white"/>
<path d="M967.18 477.506L960.754 473.76V480.124L967.18 483.87V477.506Z" fill="white"/>
<path d="M986.656 499.644L980.23 495.898V502.262L986.656 506.008V499.644Z" fill="white"/>
<path d="M976.91 494.036L970.494 490.3V496.675L976.9 500.41L976.91 494.036Z" fill="white"/>
<path d="M967.18 488.249L960.754 484.512V490.887L967.18 494.624V488.249Z" fill="white"/>
<path d="M986.656 510.386L980.23 506.65V513.014L986.656 516.75V510.386Z" fill="white"/>
<path d="M976.91 504.786L970.494 501.05V507.425L976.9 511.171L976.91 504.786Z" fill="white"/>
<path d="M967.18 499.012L960.754 495.266V501.641L967.18 505.387V499.012Z" fill="white"/>
<path d="M986.656 521.126L980.23 517.391V523.755L986.656 527.492V521.126Z" fill="#ED1B1C"/>
<path d="M976.91 515.529L970.494 511.793V518.168L976.9 521.914L976.91 515.529Z" fill="#3E3E3E"/>
<path d="M967.18 509.755L960.754 506.009V512.394L967.18 516.13V509.755Z" fill="#7CED14"/>
<path opacity="0.28" d="M1426.51 685.689H1330.92V812.231H1426.51V685.689Z" fill="url(#paint15_linear_536:1430)"/>
<path d="M1426.51 850.531V870.71C1426.51 886.574 1405.12 899.427 1378.71 899.427C1352.31 899.427 1330.92 886.574 1330.92 870.71V850.531H1426.51Z" fill="#353A46"/>
<path d="M1378.71 879.236C1405.11 879.236 1426.51 866.383 1426.51 850.528C1426.51 834.674 1405.11 821.822 1378.71 821.822C1352.32 821.822 1330.92 834.674 1330.92 850.528C1330.92 866.383 1352.32 879.236 1378.71 879.236Z" fill="#38404A"/>
<path d="M1378.71 872.914C1399.3 872.914 1415.99 862.891 1415.99 850.529C1415.99 838.167 1399.3 828.145 1378.71 828.145C1358.13 828.145 1341.44 838.167 1341.44 850.529C1341.44 862.891 1358.13 872.914 1378.71 872.914Z" fill="#343B44"/>
<path d="M1341.27 759.359L1338.39 761.263C1338.88 760.87 1339.43 760.486 1339.92 760.135V760.01L1341.27 759.359Z" fill="#F39600"/>
<path d="M1378.71 866.613C1393.49 866.613 1405.48 859.413 1405.48 850.532C1405.48 841.65 1393.49 834.45 1378.71 834.45C1363.93 834.45 1351.95 841.65 1351.95 850.532C1351.95 859.413 1363.93 866.613 1378.71 866.613Z" fill="#475254"/>
<path d="M1426.51 812.25V832.523C1426.51 848.376 1405.12 861.24 1378.71 861.24C1352.31 861.24 1330.92 848.376 1330.92 832.523V812.25H1426.51Z" fill="#3E4759"/>
<path d="M1378.71 840.957C1405.11 840.957 1426.51 828.105 1426.51 812.251C1426.51 796.396 1405.11 783.544 1378.71 783.544C1352.32 783.544 1330.92 796.396 1330.92 812.251C1330.92 828.105 1352.32 840.957 1378.71 840.957Z" fill="#FEED00"/>
<path d="M1430.18 688.017V702.609C1430.18 719.684 1407.12 733.519 1378.71 733.519C1350.31 733.519 1327.25 719.684 1327.25 702.609V688.017H1430.18Z" fill="#333844"/>
<path d="M1378.71 718.927C1407.13 718.927 1430.18 705.088 1430.18 688.016C1430.18 670.944 1407.13 657.105 1378.71 657.105C1350.29 657.105 1327.25 670.944 1327.25 688.016C1327.25 705.088 1350.29 718.927 1378.71 718.927Z" fill="#2C333B"/>
<path d="M1399.96 673.88V682.873C1399.96 689.931 1390.45 695.644 1378.69 695.644C1366.91 695.644 1357.41 689.931 1357.41 682.873V673.88H1399.96Z" fill="#222939"/>
<path d="M1378.71 686.65C1390.46 686.65 1399.98 680.932 1399.98 673.88C1399.98 666.827 1390.46 661.11 1378.71 661.11C1366.96 661.11 1357.44 666.827 1357.44 673.88C1357.44 680.932 1366.96 686.65 1378.71 686.65Z" fill="#3C4753"/>
<path d="M1378.71 680.317C1384.63 680.317 1389.42 677.436 1389.42 673.88C1389.42 670.326 1384.63 667.445 1378.71 667.445C1372.79 667.445 1368 670.326 1368 673.88C1368 677.436 1372.79 680.317 1378.71 680.317Z" fill="#F39600"/>
<path d="M1390.17 673.879V637.309C1390.82 621.675 1382.76 606.965 1369.23 599.102L1328.32 575.352C1324.52 573.158 1319.83 573.158 1316.03 575.352C1313.44 576.858 1311.56 579.333 1310.79 582.232C1310.02 585.13 1310.44 588.213 1311.96 590.802C1312.9 592.436 1314.25 593.804 1315.87 594.776L1356.38 619.343C1363.07 623.422 1367.16 630.7 1367.15 638.539V673.89C1367.15 673.89 1368.67 680.296 1379.19 680.296C1389.7 680.296 1390.17 673.879 1390.17 673.879Z" fill="url(#paint16_linear_536:1430)"/>
<path opacity="0.28" d="M1524.33 644.78H1428.72V771.321H1524.33V644.78Z" fill="url(#paint17_linear_536:1430)"/>
<path d="M1524.34 809.621V829.801C1524.34 845.655 1502.93 858.508 1476.54 858.508C1450.14 858.508 1428.72 845.655 1428.72 829.801V809.621H1524.34Z" fill="#3B414E"/>
<path d="M1476.54 838.328C1502.94 838.328 1524.33 825.476 1524.33 809.621C1524.33 793.768 1502.94 780.915 1476.54 780.915C1450.13 780.915 1428.73 793.768 1428.73 809.621C1428.73 825.476 1450.13 838.328 1476.54 838.328Z" fill="#36383C"/>
<path d="M1476.54 832.005C1497.12 832.005 1513.81 821.984 1513.81 809.621C1513.81 797.259 1497.12 787.238 1476.54 787.238C1455.94 787.238 1439.26 797.259 1439.26 809.621C1439.26 821.984 1455.94 832.005 1476.54 832.005Z" fill="#323841"/>
<path d="M1439.07 718.451L1436.17 720.345L1437.72 719.227V719.103L1439.07 718.451Z" fill="#F39600"/>
<path d="M1476.54 825.693C1491.32 825.693 1503.29 818.493 1503.29 809.611C1503.29 800.729 1491.32 793.529 1476.54 793.529C1461.76 793.529 1449.77 800.729 1449.77 809.611C1449.77 818.493 1461.76 825.693 1476.54 825.693Z" fill="#475254"/>
<path d="M1524.34 771.333V791.605C1524.34 807.46 1502.93 820.313 1476.54 820.313C1450.14 820.313 1428.72 807.46 1428.72 791.605V771.333H1524.34Z" fill="#3D414A"/>
<path d="M1476.54 800.038C1502.94 800.038 1524.33 787.185 1524.33 771.331C1524.33 755.476 1502.94 742.625 1476.54 742.625C1450.13 742.625 1428.73 755.476 1428.73 771.331C1428.73 787.185 1450.13 800.038 1476.54 800.038Z" fill="#FEED00"/>
<path d="M1528 647.118V661.69C1528 678.764 1504.95 692.621 1476.54 692.621C1448.13 692.621 1425.06 678.785 1425.06 661.69V647.118H1528Z" fill="#353C49"/>
<path d="M1476.54 678.03C1504.96 678.03 1527.99 664.192 1527.99 647.12C1527.99 630.048 1504.96 616.209 1476.54 616.209C1448.11 616.209 1425.07 630.048 1425.07 647.12C1425.07 664.192 1448.11 678.03 1476.54 678.03Z" fill="#2C333B"/>
<path d="M1497.8 632.972V641.955C1497.8 649.023 1488.28 654.746 1476.54 654.746C1464.78 654.746 1455.26 649.023 1455.26 641.955V632.972H1497.8Z" fill="#343944"/>
<path d="M1476.54 645.744C1488.29 645.744 1497.81 640.026 1497.81 632.973C1497.81 625.92 1488.29 620.203 1476.54 620.203C1464.78 620.203 1455.26 625.92 1455.26 632.973C1455.26 640.026 1464.78 645.744 1476.54 645.744Z" fill="#394758"/>
<path d="M1476.54 639.42C1482.45 639.42 1487.24 636.539 1487.24 632.984C1487.24 629.428 1482.45 626.547 1476.54 626.547C1470.62 626.547 1465.83 629.428 1465.83 632.984C1465.83 636.539 1470.62 639.42 1476.54 639.42Z" fill="#F39600"/>
<path d="M1487.98 632.973V596.402C1488.6 580.79 1480.54 566.115 1467.02 558.287L1426.1 534.486C1422.3 532.292 1417.61 532.292 1413.81 534.486C1410.37 536.494 1408.23 540.169 1408.2 544.159C1408.16 548.148 1410.23 551.861 1413.63 553.931L1454.14 578.529C1460.83 582.612 1464.9 589.888 1464.89 597.726V633.077C1464.89 633.077 1466.44 639.471 1476.95 639.471C1487.47 639.471 1487.98 632.973 1487.98 632.973Z" fill="url(#paint18_linear_536:1430)"/>
<path opacity="0.28" d="M1619.43 592.986H1523.84V719.528H1619.43V592.986Z" fill="url(#paint19_linear_536:1430)"/>
<path d="M1619.43 757.816V778.027C1619.43 793.88 1598.04 806.744 1571.63 806.744C1545.23 806.744 1523.84 793.88 1523.84 778.027V757.816H1619.43Z" fill="#43464E"/>
<path d="M1571.63 786.523C1598.03 786.523 1619.43 773.671 1619.43 757.817C1619.43 741.963 1598.03 729.11 1571.63 729.11C1545.24 729.11 1523.84 741.963 1523.84 757.817C1523.84 773.671 1545.24 786.523 1571.63 786.523Z" fill="#2E3339"/>
<path d="M1571.63 780.201C1592.21 780.201 1608.9 770.18 1608.9 757.817C1608.9 745.455 1592.21 735.434 1571.63 735.434C1551.04 735.434 1534.35 745.455 1534.35 757.817C1534.35 770.18 1551.04 780.201 1571.63 780.201Z" fill="#485360"/>
<path d="M1534.18 666.657L1531.3 668.561C1531.79 668.178 1532.33 667.794 1532.83 667.433V667.36L1534.18 666.657Z" fill="#F39600"/>
<path d="M1571.63 773.899C1586.41 773.899 1598.38 766.699 1598.38 757.817C1598.38 748.936 1586.41 741.736 1571.63 741.736C1556.85 741.736 1544.86 748.936 1544.86 757.817C1544.86 766.699 1556.85 773.899 1571.63 773.899Z" fill="#475254"/>
<path d="M1619.43 719.528V739.8C1619.43 755.665 1598.04 768.518 1571.63 768.518C1545.23 768.518 1523.84 755.665 1523.84 739.8V719.528H1619.43Z" fill="#444750"/>
<path d="M1571.63 748.235C1598.03 748.235 1619.43 735.383 1619.43 719.528C1619.43 703.673 1598.03 690.822 1571.63 690.822C1545.24 690.822 1523.84 703.673 1523.84 719.528C1523.84 735.383 1545.24 748.235 1571.63 748.235Z" fill="#FEED00"/>
<path d="M1623.1 595.325V609.916C1623.1 626.992 1600.04 640.827 1571.63 640.827C1543.22 640.827 1520.16 626.992 1520.16 609.916V595.325H1623.1Z" fill="#3E434E"/>
<path d="M1571.63 626.236C1600.05 626.236 1623.1 612.397 1623.1 595.325C1623.1 578.253 1600.05 564.414 1571.63 564.414C1543.21 564.414 1520.16 578.253 1520.16 595.325C1520.16 612.397 1543.21 626.236 1571.63 626.236Z" fill="#2C333B"/>
<path d="M1592.9 581.179V590.171C1592.9 597.229 1583.37 602.942 1571.63 602.942C1559.88 602.942 1550.36 597.229 1550.36 590.171V581.179H1592.9Z" fill="#1D1F24"/>
<path d="M1571.63 593.947C1583.38 593.947 1592.9 588.23 1592.9 581.177C1592.9 574.124 1583.38 568.407 1571.63 568.407C1559.88 568.407 1550.36 574.124 1550.36 581.177C1550.36 588.23 1559.88 593.947 1571.63 593.947Z" fill="#334050"/>
<path d="M1571.63 587.616C1577.54 587.616 1582.33 584.733 1582.33 581.179C1582.33 577.624 1577.54 574.742 1571.63 574.742C1565.71 574.742 1560.92 577.624 1560.92 581.179C1560.92 584.733 1565.71 587.616 1571.63 587.616Z" fill="#F39600"/>
<path d="M1583.12 581.18V544.619C1583.78 528.981 1575.73 514.267 1562.19 506.401L1521.3 482.6C1517.48 480.406 1512.8 480.406 1509 482.6C1505.54 484.599 1503.41 488.275 1503.37 492.264C1503.34 496.254 1505.42 499.965 1508.83 502.023L1549.35 526.622C1556.04 530.725 1560.1 538.024 1560.05 545.87V581.221C1560.05 581.221 1561.59 587.626 1572.11 587.626C1582.62 587.626 1583.12 581.18 1583.12 581.18Z" fill="url(#paint20_linear_536:1430)"/>
<path d="M1497.59 282.531C1505.17 286.909 1505.19 293.997 1497.59 298.375L1300.03 413.243C1291.44 417.62 1281.26 417.62 1272.66 413.243L1073.73 298.375C1066.15 293.997 1066.12 286.909 1073.66 282.531L1271.31 167.663C1279.91 163.286 1290.07 163.286 1298.68 167.663L1497.59 282.531Z" fill="url(#paint21_linear_536:1430)"/>
<path d="M1270.23 183.445L1073.12 297.993L1073.73 298.386L1272.68 413.213C1281.27 417.601 1291.44 417.601 1300.03 413.213L1497.13 298.665L1496.53 298.282L1297.66 183.414C1289.03 179.067 1278.85 179.079 1270.23 183.445Z" fill="url(#paint22_linear_536:1430)"/>
<path d="M1285.59 319.776C1285.34 319.787 1285.1 319.722 1284.88 319.59L1185.89 262.435C1185.21 262.047 1184.98 261.187 1185.36 260.51C1185.75 259.841 1186.6 259.609 1187.27 259.992L1286.28 317.168C1286.61 317.35 1286.85 317.654 1286.94 318.012C1287.04 318.37 1286.99 318.752 1286.81 319.072C1286.56 319.515 1286.09 319.786 1285.59 319.776Z" fill="white"/>
<path d="M1340.46 288.13C1340.21 288.128 1339.98 288.056 1339.77 287.922L1240.8 230.84C1240.47 230.662 1240.24 230.362 1240.14 230.009C1240.04 229.655 1240.09 229.276 1240.27 228.957C1240.67 228.295 1241.52 228.07 1242.2 228.45L1341.15 285.543C1341.7 285.859 1341.98 286.511 1341.81 287.127C1341.65 287.745 1341.08 288.172 1340.45 288.171L1340.46 288.13Z" fill="white"/>
<path d="M1175.46 311.705L1216.28 335.506L1361.42 241.811L1331.66 222.997L1326.68 230.893L1318.72 241.914L1305.62 252.802L1298.12 258.897L1285.71 264.878L1269.53 270.145L1241.17 277.058L1213.64 281.032L1192.99 289.797L1179.4 303.178L1175.46 311.705Z" fill="url(#paint23_linear_536:1430)"/>
<path d="M1175.46 311.703C1175.28 311.7 1175.1 311.666 1174.93 311.599C1174.21 311.316 1173.86 310.506 1174.14 309.789C1174.56 308.753 1184.73 284.393 1218.85 278.743C1222.89 278.07 1227.13 277.49 1231.54 276.86C1263.61 272.254 1303.63 266.614 1329.67 223.503C1330.14 222.95 1330.94 222.828 1331.55 223.217C1332.16 223.606 1332.4 224.387 1332.09 225.045C1305.32 269.222 1264.62 274.997 1231.93 279.643C1227.5 280.275 1223.32 280.854 1219.32 281.526C1206.64 283.361 1194.88 289.195 1185.74 298.177C1182.03 301.823 1179 306.102 1176.78 310.812C1176.56 311.348 1176.04 311.697 1175.46 311.703Z" fill="url(#paint24_linear_536:1430)"/>
<path d="M1199.2 325.664L1204.24 314.767L1210 308.62L1214.49 305.515L1232.9 295.436L1240.02 292.983L1248.94 290.168L1256.79 284.021L1260.94 278.454L1264.04 271.914L1269.08 252.686C1269.08 252.686 1272.5 236.056 1274.66 233.241C1276.81 230.427 1283.71 221.051 1283.71 221.051L1288.4 218.588L1292.68 214.945L1299.99 213.331L1305.5 211.034L1308.66 210.413L1356.26 237.215L1220.18 337.595L1199.2 325.664Z" fill="url(#paint25_linear_536:1430)"/>
<path d="M1198.93 327.185H1198.77C1198.01 327.093 1197.46 326.407 1197.54 325.643C1197.65 324.723 1200.64 302.876 1241.79 291.255C1259.64 286.247 1263.31 270.91 1267.17 254.662C1271.96 234.587 1276.94 213.828 1308.07 209.74C1308.43 209.702 1308.81 209.813 1309.09 210.048C1309.39 210.283 1309.56 210.623 1309.6 210.992C1309.67 211.73 1309.16 212.397 1308.43 212.524C1279.23 216.363 1274.48 236.17 1269.9 255.326C1266 271.634 1261.97 288.513 1242.56 293.967C1221.96 299.741 1211.61 308.165 1206.51 314.209C1203.44 317.506 1201.32 321.566 1200.36 325.964C1200.27 326.68 1199.65 327.207 1198.92 327.185H1198.93Z" fill="#4C68EF"/>
<path d="M1236.05 348.297C1235.8 348.296 1235.55 348.236 1235.34 348.121L1136.27 290.956C1135.65 290.545 1135.46 289.722 1135.83 289.077C1136.21 288.433 1137.02 288.19 1137.68 288.524L1236.69 345.689C1237.36 346.076 1237.59 346.924 1237.21 347.593C1236.96 348.038 1236.49 348.308 1235.99 348.297H1236.05Z" fill="white"/>
<path d="M1391.43 258.874C1391.19 258.879 1390.94 258.81 1390.74 258.678L1291.65 201.513C1291.18 201.283 1290.87 200.804 1290.86 200.275C1290.85 199.746 1291.13 199.255 1291.6 199.006C1292.07 198.756 1292.63 198.789 1293.07 199.092L1392.07 256.246C1392.75 256.635 1392.98 257.494 1392.6 258.171C1392.35 258.588 1391.92 258.852 1391.43 258.874Z" fill="white"/>
<path d="M1308.89 343.226C1297.95 337.669 1285.03 337.669 1274.08 343.226C1270.68 344.885 1268.14 347.93 1267.13 351.587L1273.29 351.142C1274.26 348.769 1276.04 346.824 1278.33 345.657C1286.63 341.424 1296.45 341.424 1304.75 345.657C1312.06 349.88 1312.1 356.741 1304.83 361.024C1301.29 362.943 1297.34 364.006 1293.31 364.13L1293.17 367.565C1298.71 367.473 1304.16 366.054 1309.05 363.425C1318.61 357.828 1318.55 348.793 1308.89 343.226Z" fill="url(#paint26_linear_536:1430)"/>
<path d="M1277.24 361.883C1286.25 366.499 1296.93 366.499 1305.93 361.883C1308.75 360.524 1310.84 358.016 1311.67 355.001L1306.64 355.374C1305.84 357.328 1304.37 358.93 1302.49 359.886C1295.67 363.383 1287.6 363.406 1280.76 359.948C1274.72 356.46 1274.69 350.82 1280.69 347.323C1283.61 345.738 1286.86 344.86 1290.18 344.757L1290.31 341.92C1285.73 341.994 1281.25 343.162 1277.22 345.326C1269.25 349.858 1269.28 357.309 1277.24 361.883Z" fill="url(#paint27_linear_536:1430)"/>
<path d="M1305.69 345.307C1296.67 340.702 1286 340.702 1276.98 345.307C1274.17 346.68 1272.06 349.197 1271.23 352.22L1276.27 351.826C1277.08 349.881 1278.53 348.282 1280.41 347.315C1287.26 343.837 1295.36 343.837 1302.2 347.315C1308.22 350.801 1308.25 356.462 1302.2 359.929C1299.28 361.519 1296.03 362.407 1292.7 362.527L1292.57 365.352C1297.15 365.281 1301.65 364.111 1305.68 361.937C1313.66 357.332 1313.61 349.902 1305.69 345.307Z" fill="#4C68EF"/>
<path d="M1360.9 309.79C1349.97 304.222 1337.03 304.222 1326.1 309.79C1322.69 311.446 1320.15 314.493 1319.14 318.151L1325.28 317.686C1326.27 315.318 1328.06 313.38 1330.34 312.221C1338.64 307.989 1348.47 307.989 1356.77 312.221C1364.08 316.444 1364.12 323.305 1356.86 327.59C1353.3 329.5 1349.36 330.562 1345.33 330.694L1345.17 334.119C1350.72 334.042 1356.18 332.622 1361.06 329.98C1370.58 324.412 1370.54 315.378 1360.9 309.79Z" fill="#4C68EF"/>
<path d="M1329.19 328.457C1338.21 333.072 1348.88 333.072 1357.89 328.457C1360.7 327.082 1362.79 324.569 1363.62 321.554L1358.59 321.938C1357.79 323.888 1356.32 325.491 1354.44 326.46C1347.61 329.913 1339.55 329.913 1332.71 326.46C1326.67 322.962 1326.64 317.311 1332.63 313.834C1335.55 312.25 1338.81 311.364 1342.13 311.248L1342.26 308.412C1337.68 308.482 1333.19 309.654 1329.17 311.827C1321.22 316.422 1321.31 323.862 1329.19 328.457Z" fill="url(#paint28_linear_536:1430)"/>
<path d="M1357.61 311.881C1348.6 307.266 1337.93 307.266 1328.91 311.881C1326.1 313.246 1324 315.75 1323.14 318.762L1328.2 318.4C1328.99 316.443 1330.46 314.835 1332.34 313.878C1339.18 310.39 1347.28 310.39 1354.14 313.878C1360.17 317.365 1360.17 323.005 1354.14 326.492C1351.21 328.081 1347.96 328.97 1344.64 329.09L1344.52 331.914C1349.09 331.849 1353.59 330.677 1357.61 328.499C1365.63 323.906 1365.6 316.454 1357.61 311.881Z" fill="url(#paint29_linear_536:1430)"/>
<path d="M1409.87 280.027C1398.94 274.459 1386 274.459 1375.07 280.027C1371.65 281.686 1369.12 284.731 1368.11 288.389L1374.25 287.944C1375.23 285.568 1377.03 283.62 1379.31 282.449C1387.61 278.227 1397.43 278.227 1405.73 282.449C1413.05 286.681 1413.09 293.533 1405.83 297.827C1402.28 299.737 1398.34 300.799 1394.32 300.931L1394.16 304.388C1399.65 304.263 1405.03 302.845 1409.87 300.249C1419.49 294.609 1419.45 285.574 1409.87 280.027Z" fill="url(#paint30_linear_536:1430)"/>
<path d="M1378.11 298.675C1387.13 303.279 1397.8 303.279 1406.8 298.675C1409.63 297.32 1411.72 294.804 1412.54 291.782L1407.52 292.154C1406.72 294.101 1405.25 295.699 1403.39 296.667C1396.54 300.164 1388.43 300.164 1381.58 296.667C1375.56 293.2 1375.54 287.539 1381.58 284.052C1384.5 282.502 1387.72 281.648 1391.01 281.558L1391.15 278.712C1386.57 278.789 1382.09 279.959 1378.06 282.127C1370.12 286.639 1370.16 294.09 1378.11 298.675Z" fill="#00FFFF"/>
<path d="M1406.57 282.087C1397.55 277.483 1386.88 277.483 1377.86 282.087C1375.05 283.462 1372.96 285.979 1372.13 289L1377.16 288.607C1377.97 286.666 1379.44 285.071 1381.3 284.095C1388.15 280.618 1396.25 280.618 1403.1 284.095C1409.13 287.583 1409.15 293.305 1403.17 296.711C1400.25 298.294 1397 299.183 1393.68 299.307L1393.55 302.133C1398.11 302.066 1402.61 300.895 1406.64 298.718C1414.56 294.123 1414.44 286.682 1406.57 282.087Z" fill="url(#paint31_linear_536:1430)"/>
<path d="M1301.46 376.496L1304.56 378.308L1325.88 366.014L1322.78 364.181L1301.46 376.496Z" fill="white"/>
<path d="M1307.45 379.995L1310.56 381.805L1331.88 369.49L1328.77 367.68L1307.45 379.995Z" fill="white"/>
<path d="M1314.49 384.04L1317.6 385.852L1328.98 379.301L1325.88 377.428L1314.49 384.04Z" fill="white"/>
<path d="M1356.91 341.488L1360.01 343.32L1381.33 331.015L1378.23 329.194L1356.91 341.488Z" fill="white"/>
<path d="M1362.9 344.986L1366.01 346.817L1387.33 334.503L1384.21 332.671L1362.9 344.986Z" fill="white"/>
<path d="M1369.94 349.042L1373.05 350.873L1384.43 344.301L1381.33 342.45L1369.94 349.042Z" fill="white"/>
<path d="M1406.9 309.924L1410.01 311.744L1431.33 299.431L1428.22 297.619L1406.9 309.924Z" fill="white"/>
<path d="M1412.89 313.38L1415.99 315.212L1437.31 302.897L1434.21 301.086L1412.89 313.38Z" fill="white"/>
<path d="M1419.92 317.437L1423.03 319.268L1434.41 312.718L1431.3 310.845L1419.92 317.437Z" fill="white"/>
<path d="M1141.06 286.651L1144.17 288.462L1155.55 281.922L1152.44 280.059L1141.06 286.651Z" fill="white"/>
<path d="M1147.06 290.863L1150.16 292.674L1161.55 286.134L1158.44 284.25L1147.06 290.863Z" fill="white"/>
<path d="M1189.17 257.052L1192.27 258.874L1203.65 252.313L1200.55 250.461L1189.17 257.052Z" fill="white"/>
<path d="M1244.1 226.317L1247.2 228.149L1258.59 221.588L1255.49 219.725L1244.1 226.317Z" fill="white"/>
<path d="M1108.53 286.651L1111.64 288.462L1123.02 281.922L1119.98 280.059L1108.53 286.651Z" fill="white"/>
<path d="M1113.8 290.519L1116.9 292.35L1128.28 285.8L1125.24 283.927L1113.8 290.519Z" fill="white"/>
<path d="M1105.53 293.48C1108.15 295.012 1108.16 297.422 1105.53 298.923C1102.58 300.424 1099.09 300.424 1096.14 298.923C1093.55 297.381 1093.53 294.98 1096.14 293.48C1099.09 291.969 1102.58 291.969 1105.53 293.48Z" fill="white"/>
<path d="M1508.62 398.022C1521.9 390.343 1532.69 396.49 1532.72 411.785C1532.77 427.08 1521.98 445.594 1508.77 453.282L1363.74 537.002C1350.46 544.69 1339.65 538.543 1339.6 523.27C1339.56 507.995 1350.36 489.45 1363.58 481.772L1508.62 398.022Z" fill="url(#paint32_linear_536:1430)"/>
<path d="M1517.25 394.916C1514.2 395.382 1511.26 396.436 1508.62 398.02L1363.59 481.843C1350.31 489.532 1339.58 508.098 1339.62 523.34C1339.33 528.163 1340.9 532.914 1343.98 536.629C1347.04 536.154 1349.96 535.1 1352.61 533.523L1497.63 449.763C1510.91 442.084 1521.64 423.529 1521.61 408.265C1521.9 403.424 1520.34 398.651 1517.25 394.916Z" fill="url(#paint33_linear_536:1430)"/>
<path d="M1377.66 492.999C1374.4 495.128 1372.33 498.694 1372.13 502.593C1372.13 506.122 1374.64 507.549 1377.7 505.77C1380.97 503.637 1383.03 500.075 1383.24 496.176C1383.24 492.648 1380.74 491.23 1377.66 492.999Z" fill="url(#paint34_linear_536:1430)"/>
<path d="M1177.94 735.36C1174.66 737.48 1172.6 741.052 1172.41 744.953C1172.41 748.482 1174.92 749.91 1177.97 748.13C1181.24 745.998 1183.3 742.436 1183.52 738.537C1183.51 734.987 1181.01 733.59 1177.94 735.36Z" fill="url(#paint35_linear_536:1430)"/>
<path d="M863.252 916.006C859.982 918.137 857.925 921.701 857.715 925.598C857.715 929.138 860.209 930.565 863.282 928.796C866.555 926.664 868.61 923.094 868.808 919.193C868.829 915.664 866.325 914.277 863.252 916.006Z" fill="url(#paint36_linear_536:1430)"/>
<path d="M1410.98 471.649C1407.69 473.772 1405.64 477.341 1405.44 481.243C1405.44 484.772 1407.94 486.21 1411 484.42C1414.28 482.296 1416.33 478.732 1416.53 474.837C1416.51 471.298 1414.06 469.88 1410.98 471.649Z" fill="url(#paint37_linear_536:1430)"/>
<path d="M1444.26 450.3C1441 452.442 1438.95 456 1438.72 459.894C1438.72 463.413 1441.22 464.851 1444.31 463.071C1447.59 460.941 1449.64 457.376 1449.85 453.477C1449.84 449.948 1447.34 448.531 1444.26 450.3Z" fill="url(#paint38_linear_536:1430)"/>
<path d="M1477.57 428.932C1474.29 431.053 1472.23 434.623 1472.03 438.526C1472.03 442.044 1474.54 443.471 1477.6 441.702C1480.87 439.562 1482.93 435.992 1483.15 432.089C1483.13 428.601 1480.68 427.173 1477.57 428.932Z" fill="url(#paint39_linear_536:1430)"/>
<path d="M1426.51 773.608V813.471C1426.51 829.336 1405.12 842.188 1378.71 842.188C1352.31 842.188 1330.92 829.336 1330.92 813.471V773.608H1426.51Z" fill="url(#paint40_linear_536:1430)"/>
<path d="M1378.71 802.314C1405.11 802.314 1426.51 789.463 1426.51 773.608C1426.51 757.754 1405.11 744.901 1378.71 744.901C1352.32 744.901 1330.92 757.754 1330.92 773.608C1330.92 789.463 1352.32 802.314 1378.71 802.314Z" fill="url(#paint41_linear_536:1430)"/>
<path d="M1524.34 732.525V772.387C1524.34 788.253 1502.94 801.105 1476.54 801.105C1450.13 801.105 1428.72 788.253 1428.72 772.387V732.525H1524.34Z" fill="url(#paint42_linear_536:1430)"/>
<path d="M1476.54 761.233C1502.94 761.233 1524.33 748.381 1524.33 732.527C1524.33 716.673 1502.94 703.82 1476.54 703.82C1450.13 703.82 1428.73 716.673 1428.73 732.527C1428.73 748.381 1450.13 761.233 1476.54 761.233Z" fill="#4C68EF"/>
<path d="M1619.43 679.666V719.528C1619.43 735.392 1598.04 748.245 1571.63 748.245C1545.23 748.245 1523.84 735.392 1523.84 719.528V679.666H1619.43Z" fill="url(#paint43_linear_536:1430)"/>
<path d="M1571.63 708.372C1598.03 708.372 1619.43 695.519 1619.43 679.665C1619.43 663.81 1598.03 650.958 1571.63 650.958C1545.24 650.958 1523.84 663.81 1523.84 679.665C1523.84 695.519 1545.24 708.372 1571.63 708.372Z" fill="#FFCB33"/>
<path d="M1290.41 864.232L1224.08 825.684V429.12C1265.11 453.022 1290.37 496.914 1290.41 544.402V864.232Z" fill="url(#paint44_linear_536:1430)"/>
<defs>
<filter id="filter0_f_536:1430" x="0" y="0" width="1753" height="1212" filterUnits="userSpaceOnUse" color-interpolation-filters="sRGB">
<feFlood flood-opacity="0" result="BackgroundImageFix"/>
<feBlend mode="normal" in="SourceGraphic" in2="BackgroundImageFix" result="shape"/>
<feGaussianBlur stdDeviation="11.5" result="effect1_foregroundBlur_536:1430"/>
</filter>
<linearGradient id="paint0_linear_536:1430" x1="23" y1="605.495" x2="1730" y2="605.495" gradientUnits="userSpaceOnUse">
<stop stop-color="#2C2E42" stop-opacity="0"/>
<stop offset="0.294792" stop-color="#252634" stop-opacity="0.66"/>
<stop offset="1" stop-color="#494C65"/>
</linearGradient>
<linearGradient id="paint1_linear_536:1430" x1="23" y1="600" x2="1719" y2="600" gradientUnits="userSpaceOnUse">
<stop stop-color="#1A1C2C" stop-opacity="0"/>
<stop offset="0.440625" stop-color="#252634" stop-opacity="0.66"/>
<stop offset="1" stop-color="#1A1C2D"/>
</linearGradient>
<linearGradient id="paint2_linear_536:1430" x1="41" y1="558.145" x2="1693.69" y2="442.027" gradientUnits="userSpaceOnUse">
<stop stop-color="#8096FE"/>
<stop offset="0.337665" stop-color="#7B91FF"/>
<stop offset="0.620183" stop-color="#879CFF" stop-opacity="0"/>
</linearGradient>
<linearGradient id="paint3_linear_536:1430" x1="1255.01" y1="899.501" x2="1017.46" y2="-22.7561" gradientUnits="userSpaceOnUse">
<stop stop-color="#2F3969"/>
</linearGradient>
<linearGradient id="paint4_linear_536:1430" x1="979.118" y1="298.468" x2="979.118" y2="700.372" gradientUnits="userSpaceOnUse">
<stop offset="0.0447915" stop-color="#384A5C"/>
<stop offset="1" stop-color="#252E37"/>
</linearGradient>
<linearGradient id="paint5_linear_536:1430" x1="707.988" y1="873.394" x2="1329.66" y2="521.963" gradientUnits="userSpaceOnUse">
<stop stop-color="#00366A"/>
<stop offset="0.33" stop-color="#003368"/>
<stop offset="0.57" stop-color="#012A62"/>
<stop offset="0.78" stop-color="#031A57"/>
<stop offset="0.97" stop-color="#050448"/>
<stop offset="1" stop-color="#050046"/>
</linearGradient>
<linearGradient id="paint6_linear_536:1430" x1="844.526" y1="704.589" x2="1582.97" y2="704.589" gradientUnits="userSpaceOnUse">
<stop stop-color="#00366A"/>
<stop offset="0.33" stop-color="#003368"/>
<stop offset="0.57" stop-color="#012A62"/>
<stop offset="0.78" stop-color="#031A57"/>
<stop offset="0.97" stop-color="#050448"/>
<stop offset="1" stop-color="#050046"/>
</linearGradient>
<linearGradient id="paint7_linear_536:1430" x1="1196.48" y1="541.289" x2="1331.35" y2="541.289" gradientUnits="userSpaceOnUse">
<stop stop-color="#FFF52A"/>
<stop offset="0.51" stop-color="#FFF32A"/>
<stop offset="0.71" stop-color="#FFEC2C"/>
<stop offset="0.86" stop-color="#FFE02F"/>
<stop offset="0.98" stop-color="#FFCF32"/>
<stop offset="1" stop-color="#FFCB33"/>
</linearGradient>
<linearGradient id="paint8_linear_536:1430" x1="1566.33" y1="518.394" x2="1566.39" y2="518.394" gradientUnits="userSpaceOnUse">
<stop stop-color="#FFF52A"/>
<stop offset="0.51" stop-color="#FFF32A"/>
<stop offset="0.71" stop-color="#FFEC2C"/>
<stop offset="0.86" stop-color="#FFE02F"/>
<stop offset="0.98" stop-color="#FFCF32"/>
<stop offset="1" stop-color="#FFCB33"/>
</linearGradient>
<linearGradient id="paint9_linear_536:1430" x1="1291.66" y1="141.056" x2="1472.66" y2="757.967" gradientUnits="userSpaceOnUse">
<stop stop-color="#2B3259"/>
<stop offset="0.774247" stop-color="#191E36"/>
</linearGradient>
<linearGradient id="paint10_linear_536:1430" x1="868.137" y1="900.368" x2="868.137" y2="1070.22" gradientUnits="userSpaceOnUse">
<stop stop-color="#252E37"/>
<stop offset="1" stop-color="#1F2225"/>
</linearGradient>
<linearGradient id="paint11_linear_536:1430" x1="1176.48" y1="713.459" x2="1176.48" y2="883.281" gradientUnits="userSpaceOnUse">
<stop stop-color="#252E37"/>
<stop offset="1" stop-color="#2C3237"/>
</linearGradient>
<linearGradient id="paint12_linear_536:1430" x1="985.695" y1="430.501" x2="985.695" y2="534.472" gradientUnits="userSpaceOnUse">
<stop stop-color="#F4F9FF"/>
<stop offset="1" stop-color="#CAD8F3"/>
</linearGradient>
<linearGradient id="paint13_linear_536:1430" x1="983.993" y1="431.468" x2="983.993" y2="455.893" gradientUnits="userSpaceOnUse">
<stop stop-color="#CEDDFE"/>
<stop offset="0.44" stop-color="#CBDAFC"/>
<stop offset="0.71" stop-color="#C3D2F6"/>
<stop offset="0.93" stop-color="#B5C4EB"/>
<stop offset="1" stop-color="#AEBDE6"/>
</linearGradient>
<linearGradient id="paint14_linear_536:1430" x1="998.05" y1="450.147" x2="998.05" y2="536.539" gradientUnits="userSpaceOnUse">
<stop stop-color="#CEDDFE"/>
<stop offset="0.44" stop-color="#CBDAFC"/>
<stop offset="0.71" stop-color="#C3D2F6"/>
<stop offset="0.93" stop-color="#B5C4EB"/>
<stop offset="1" stop-color="#AEBDE6"/>
</linearGradient>
<linearGradient id="paint15_linear_536:1430" x1="1325.82" y1="749.441" x2="1421.39" y2="749.441" gradientUnits="userSpaceOnUse">
<stop stop-color="#00366A"/>
<stop offset="0.33" stop-color="#003368"/>
<stop offset="0.57" stop-color="#012A62"/>
<stop offset="0.78" stop-color="#031A57"/>
<stop offset="0.97" stop-color="#050448"/>
<stop offset="1" stop-color="#050046"/>
</linearGradient>
<linearGradient id="paint16_linear_536:1430" x1="1457.93" y1="558.671" x2="1312.2" y2="657.209" gradientUnits="userSpaceOnUse">
<stop stop-color="#00366A"/>
<stop offset="0.33" stop-color="#003368"/>
<stop offset="0.57" stop-color="#012A62"/>
<stop offset="0.78" stop-color="#031A57"/>
<stop offset="0.97" stop-color="#050448"/>
<stop offset="1" stop-color="#050046"/>
</linearGradient>
<linearGradient id="paint17_linear_536:1430" x1="1423.46" y1="708.25" x2="1519.03" y2="708.25" gradientUnits="userSpaceOnUse">
<stop stop-color="#00366A"/>
<stop offset="0.33" stop-color="#003368"/>
<stop offset="0.57" stop-color="#012A62"/>
<stop offset="0.78" stop-color="#031A57"/>
<stop offset="0.97" stop-color="#050448"/>
<stop offset="1" stop-color="#050046"/>
</linearGradient>
<linearGradient id="paint18_linear_536:1430" x1="1540.41" y1="517.492" x2="1394.58" y2="616.028" gradientUnits="userSpaceOnUse">
<stop stop-color="#00366A"/>
<stop offset="0.33" stop-color="#003368"/>
<stop offset="0.57" stop-color="#012A62"/>
<stop offset="0.78" stop-color="#031A57"/>
<stop offset="0.97" stop-color="#050448"/>
<stop offset="1" stop-color="#050046"/>
</linearGradient>
<linearGradient id="paint19_linear_536:1430" x1="1518.58" y1="656.861" x2="1614.49" y2="656.861" gradientUnits="userSpaceOnUse">
<stop stop-color="#00366A"/>
<stop offset="0.33" stop-color="#003368"/>
<stop offset="0.57" stop-color="#012A62"/>
<stop offset="0.78" stop-color="#031A57"/>
<stop offset="0.97" stop-color="#050448"/>
<stop offset="1" stop-color="#050046"/>
</linearGradient>
<linearGradient id="paint20_linear_536:1430" x1="1650.2" y1="465.922" x2="1504.77" y2="564.843" gradientUnits="userSpaceOnUse">
<stop stop-color="#00366A"/>
<stop offset="0.33" stop-color="#003368"/>
<stop offset="0.57" stop-color="#012A62"/>
<stop offset="0.78" stop-color="#031A57"/>
<stop offset="0.97" stop-color="#050448"/>
<stop offset="1" stop-color="#050046"/>
</linearGradient>
<linearGradient id="paint21_linear_536:1430" x1="1071.06" y1="291.09" x2="1506.13" y2="291.09" gradientUnits="userSpaceOnUse">
<stop stop-color="#00366A"/>
<stop offset="0.33" stop-color="#003368"/>
<stop offset="0.57" stop-color="#012A62"/>
<stop offset="0.78" stop-color="#031A57"/>
<stop offset="0.97" stop-color="#050448"/>
<stop offset="1" stop-color="#050046"/>
</linearGradient>
<linearGradient id="paint22_linear_536:1430" x1="1295.36" y1="181.247" x2="1295.36" y2="417.496" gradientUnits="userSpaceOnUse">
<stop stop-color="#00366A"/>
<stop offset="0.33" stop-color="#003368"/>
<stop offset="0.57" stop-color="#012A62"/>
<stop offset="0.78" stop-color="#031A57"/>
<stop offset="0.97" stop-color="#050448"/>
<stop offset="1" stop-color="#050046"/>
</linearGradient>
<linearGradient id="paint23_linear_536:1430" x1="1281.09" y1="299.339" x2="1255.69" y2="254.83" gradientUnits="userSpaceOnUse">
<stop stop-color="#BAF281" stop-opacity="0"/>
<stop offset="0.38" stop-color="#B9F281" stop-opacity="0.01"/>
<stop offset="0.52" stop-color="#B5F081" stop-opacity="0.04"/>
<stop offset="0.62" stop-color="#AEEE82" stop-opacity="0.1"/>
<stop offset="0.7" stop-color="#A5EB82" stop-opacity="0.18"/>
<stop offset="0.76" stop-color="#98E782" stop-opacity="0.29"/>
<stop offset="0.82" stop-color="#88E283" stop-opacity="0.42"/>
<stop offset="0.88" stop-color="#76DC84" stop-opacity="0.58"/>
<stop offset="0.93" stop-color="#60D585" stop-opacity="0.77"/>
<stop offset="0.97" stop-color="#49CD86" stop-opacity="0.97"/>
<stop offset="0.98" stop-color="#45CC86"/>
</linearGradient>
<linearGradient id="paint24_linear_536:1430" x1="1166.04" y1="266.067" x2="1324.18" y2="266.067" gradientUnits="userSpaceOnUse">
<stop stop-color="#BAF281"/>
<stop offset="0.39" stop-color="#B8F181"/>
<stop offset="0.55" stop-color="#B1EF81"/>
<stop offset="0.67" stop-color="#A5EB82"/>
<stop offset="0.76" stop-color="#93E583"/>
<stop offset="0.85" stop-color="#7CDE84"/>
<stop offset="0.92" stop-color="#61D585"/>
<stop offset="0.98" stop-color="#45CC86"/>
</linearGradient>
<linearGradient id="paint25_linear_536:1430" x1="1250.28" y1="252.339" x2="1294.34" y2="296.707" gradientUnits="userSpaceOnUse">
<stop stop-color="#4C68EF" stop-opacity="0.99"/>
<stop offset="0.08" stop-color="#4C68EF" stop-opacity="0.79"/>
<stop offset="0.15" stop-color="#4C68EF" stop-opacity="0.6"/>
<stop offset="0.24" stop-color="#4C68EF" stop-opacity="0.44"/>
<stop offset="0.32" stop-color="#4C68EF" stop-opacity="0.3"/>
<stop offset="0.42" stop-color="#4C68EF" stop-opacity="0.19"/>
<stop offset="0.52" stop-color="#4C68EF" stop-opacity="0.11"/>
<stop offset="0.64" stop-color="#4C68EF" stop-opacity="0.05"/>
<stop offset="0.77" stop-color="#4C68EF" stop-opacity="0.01"/>
<stop offset="1" stop-color="#4C68EF" stop-opacity="0"/>
</linearGradient>
<linearGradient id="paint26_linear_536:1430" x1="1313.01" y1="364.484" x2="1284.46" y2="335.93" gradientUnits="userSpaceOnUse">
<stop stop-color="#BAF281"/>
<stop offset="0.39" stop-color="#B8F181"/>
<stop offset="0.55" stop-color="#B1EF81"/>
<stop offset="0.67" stop-color="#A5EB82"/>
<stop offset="0.76" stop-color="#93E583"/>
<stop offset="0.85" stop-color="#7CDE84"/>
<stop offset="0.92" stop-color="#61D585"/>
<stop offset="0.98" stop-color="#45CC86"/>
</linearGradient>
<linearGradient id="paint27_linear_536:1430" x1="1278.04" y1="353.274" x2="1318.43" y2="353.274" gradientUnits="userSpaceOnUse">
<stop stop-color="#FFF52A"/>
<stop offset="0.03" stop-color="#FFF02B"/>
<stop offset="0.14" stop-color="#FFDF2F"/>
<stop offset="0.27" stop-color="#FFD431"/>
<stop offset="0.47" stop-color="#FFCD33"/>
<stop offset="1" stop-color="#FFCB33"/>
</linearGradient>
<linearGradient id="paint28_linear_536:1430" x1="1325.5" y1="322.756" x2="1365.9" y2="322.756" gradientUnits="userSpaceOnUse">
<stop stop-color="#BAF281"/>
<stop offset="0.39" stop-color="#B8F181"/>
<stop offset="0.55" stop-color="#B1EF81"/>
<stop offset="0.67" stop-color="#A5EB82"/>
<stop offset="0.76" stop-color="#93E583"/>
<stop offset="0.85" stop-color="#7CDE84"/>
<stop offset="0.92" stop-color="#61D585"/>
<stop offset="0.98" stop-color="#45CC86"/>
</linearGradient>
<linearGradient id="paint29_linear_536:1430" x1="1320.44" y1="317.387" x2="1360.9" y2="317.387" gradientUnits="userSpaceOnUse">
<stop stop-color="#FFF52A"/>
<stop offset="0.03" stop-color="#FFF02B"/>
<stop offset="0.14" stop-color="#FFDF2F"/>
<stop offset="0.27" stop-color="#FFD431"/>
<stop offset="0.47" stop-color="#FFCD33"/>
<stop offset="1" stop-color="#FFCB33"/>
</linearGradient>
<linearGradient id="paint30_linear_536:1430" x1="1411.2" y1="301.745" x2="1382.86" y2="273.264" gradientUnits="userSpaceOnUse">
<stop stop-color="#BAF281"/>
<stop offset="0.39" stop-color="#B8F181"/>
<stop offset="0.55" stop-color="#B1EF81"/>
<stop offset="0.67" stop-color="#A5EB82"/>
<stop offset="0.76" stop-color="#93E583"/>
<stop offset="0.85" stop-color="#7CDE84"/>
<stop offset="0.92" stop-color="#61D585"/>
<stop offset="0.98" stop-color="#45CC86"/>
</linearGradient>
<linearGradient id="paint31_linear_536:1430" x1="1371.36" y1="292.94" x2="1411.76" y2="292.94" gradientUnits="userSpaceOnUse">
<stop stop-color="#FFF52A"/>
<stop offset="0.03" stop-color="#FFF02B"/>
<stop offset="0.14" stop-color="#FFDF2F"/>
<stop offset="0.27" stop-color="#FFD431"/>
<stop offset="0.47" stop-color="#FFCD33"/>
<stop offset="1" stop-color="#FFCB33"/>
</linearGradient>
<linearGradient id="paint32_linear_536:1430" x1="1337.01" y1="467.668" x2="1530.06" y2="467.668" gradientUnits="userSpaceOnUse">
<stop stop-color="#343C46"/>
</linearGradient>
<linearGradient id="paint33_linear_536:1430" x1="1350.36" y1="467.091" x2="1532.32" y2="467.091" gradientUnits="userSpaceOnUse">
<stop stop-color="#00366A"/>
<stop offset="0.33" stop-color="#003368"/>
<stop offset="0.57" stop-color="#012A62"/>
<stop offset="0.78" stop-color="#031A57"/>
<stop offset="0.97" stop-color="#050448"/>
<stop offset="1" stop-color="#050046"/>
</linearGradient>
<linearGradient id="paint34_linear_536:1430" x1="1373.93" y1="500.567" x2="1385.04" y2="500.567" gradientUnits="userSpaceOnUse">
<stop stop-color="#BAF281"/>
<stop offset="0.39" stop-color="#B8F181"/>
<stop offset="0.55" stop-color="#B1EF81"/>
<stop offset="0.67" stop-color="#A5EB82"/>
<stop offset="0.76" stop-color="#93E583"/>
<stop offset="0.85" stop-color="#7CDE84"/>
<stop offset="0.92" stop-color="#61D585"/>
<stop offset="0.98" stop-color="#45CC86"/>
</linearGradient>
<linearGradient id="paint35_linear_536:1430" x1="1174.22" y1="742.045" x2="1185.33" y2="742.045" gradientUnits="userSpaceOnUse">
<stop stop-color="#00366A"/>
<stop offset="0.33" stop-color="#003368"/>
<stop offset="0.57" stop-color="#012A62"/>
<stop offset="0.78" stop-color="#031A57"/>
<stop offset="0.97" stop-color="#050448"/>
<stop offset="1" stop-color="#050046"/>
</linearGradient>
<linearGradient id="paint36_linear_536:1430" x1="850.423" y1="921.333" x2="861.527" y2="921.333" gradientUnits="userSpaceOnUse">
<stop stop-color="#00366A"/>
<stop offset="0.33" stop-color="#003368"/>
<stop offset="0.57" stop-color="#012A62"/>
<stop offset="0.78" stop-color="#031A57"/>
<stop offset="0.97" stop-color="#050448"/>
<stop offset="1" stop-color="#050046"/>
</linearGradient>
<linearGradient id="paint37_linear_536:1430" x1="1398.53" y1="478.495" x2="1409.63" y2="478.495" gradientUnits="userSpaceOnUse">
<stop stop-color="#BAF281"/>
<stop offset="0.39" stop-color="#B8F181"/>
<stop offset="0.55" stop-color="#B1EF81"/>
<stop offset="0.67" stop-color="#A5EB82"/>
<stop offset="0.76" stop-color="#93E583"/>
<stop offset="0.85" stop-color="#7CDE84"/>
<stop offset="0.92" stop-color="#61D585"/>
<stop offset="0.98" stop-color="#45CC86"/>
</linearGradient>
<linearGradient id="paint38_linear_536:1430" x1="1442.22" y1="458.497" x2="1453.33" y2="458.497" gradientUnits="userSpaceOnUse">
<stop stop-color="#BAF281"/>
<stop offset="0.39" stop-color="#B8F181"/>
<stop offset="0.55" stop-color="#B1EF81"/>
<stop offset="0.67" stop-color="#A5EB82"/>
<stop offset="0.76" stop-color="#93E583"/>
<stop offset="0.85" stop-color="#7CDE84"/>
<stop offset="0.92" stop-color="#61D585"/>
<stop offset="0.98" stop-color="#45CC86"/>
</linearGradient>
<linearGradient id="paint39_linear_536:1430" x1="1473.69" y1="437.025" x2="1484.84" y2="437.025" gradientUnits="userSpaceOnUse">
<stop stop-color="#BAF281"/>
<stop offset="0.39" stop-color="#B8F181"/>
<stop offset="0.55" stop-color="#B1EF81"/>
<stop offset="0.67" stop-color="#A5EB82"/>
<stop offset="0.76" stop-color="#93E583"/>
<stop offset="0.85" stop-color="#7CDE84"/>
<stop offset="0.92" stop-color="#61D585"/>
<stop offset="0.98" stop-color="#45CC86"/>
</linearGradient>
<linearGradient id="paint40_linear_536:1430" x1="1325.82" y1="808.291" x2="1421.39" y2="808.291" gradientUnits="userSpaceOnUse">
<stop stop-color="#00AEE9"/>
<stop offset="1" stop-color="#93E0FF"/>
</linearGradient>
<linearGradient id="paint41_linear_536:1430" x1="1339.63" y1="758.106" x2="1426.55" y2="773.629" gradientUnits="userSpaceOnUse">
<stop stop-color="#00AEE9"/>
<stop offset="0.628125" stop-color="#73DCFF"/>
</linearGradient>
<linearGradient id="paint42_linear_536:1430" x1="1423.79" y1="767.356" x2="1519.36" y2="767.356" gradientUnits="userSpaceOnUse">
<stop stop-color="#4C68EF"/>
<stop offset="1" stop-color="#0097D5"/>
</linearGradient>
<linearGradient id="paint43_linear_536:1430" x1="1518.68" y1="714.336" x2="1614.24" y2="714.336" gradientUnits="userSpaceOnUse">
<stop stop-color="#FFCB33"/>
<stop offset="1" stop-color="#FFF865"/>
</linearGradient>
<linearGradient id="paint44_linear_536:1430" x1="1257.25" y1="429.12" x2="1257.25" y2="864.232" gradientUnits="userSpaceOnUse">
<stop stop-color="#374858"/>
<stop offset="1" stop-color="#252E37"/>
</linearGradient>
</defs>
</svg>
