<svg width="1414" height="796" viewBox="0 0 1414 796" fill="none" xmlns="http://www.w3.org/2000/svg">
<rect width="1414" height="138" transform="matrix(1 0 0 -1 0 420)" fill="url(#paint0_linear)"/>
<path d="M56.83 253.54C53.41 253.54 49.75 253.36 45.85 253C42.01 252.58 38.71 252.01 35.95 251.29V240.76C38.59 241 41.77 241.21 45.49 241.39C49.27 241.51 52.84 241.57 56.2 241.57C59.62 241.57 62.32 241.12 64.3 240.22C66.28 239.26 67.27 237.46 67.27 234.82V232.39C67.27 230.41 66.67 228.91 65.47 227.89C64.27 226.81 62.62 226.27 60.52 226.27H54.85C48.49 226.27 43.6 224.89 40.18 222.13C36.82 219.31 35.14 214.54 35.14 207.82V204.58C35.14 198.1 36.97 193.36 40.63 190.36C44.35 187.36 49.69 185.86 56.65 185.86C60.31 185.86 63.94 186.1 67.54 186.58C71.2 187.06 74.29 187.57 76.81 188.11V198.64C74.05 198.46 70.96 198.28 67.54 198.1C64.18 197.92 61.06 197.83 58.18 197.83C55.06 197.83 52.54 198.31 50.62 199.27C48.76 200.23 47.83 202.21 47.83 205.21V207.01C47.83 209.35 48.49 211.03 49.81 212.05C51.13 213.07 53.08 213.58 55.66 213.58H62.23C68.17 213.58 72.61 215.2 75.55 218.44C78.49 221.68 79.96 225.76 79.96 230.68V234.46C79.96 239.68 78.97 243.67 76.99 246.43C75.07 249.19 72.37 251.08 68.89 252.1C65.47 253.06 61.45 253.54 56.83 253.54ZM105.688 253C100.108 253 96.088 251.74 93.628 249.22C91.228 246.7 90.118 242.23 90.298 235.81L90.748 215.38H83.188V206.83L91.198 204.67L92.998 191.17H103.528V204.67H114.868V215.38H103.528V235.72C103.528 238.36 104.008 240.13 104.968 241.03C105.928 241.87 107.038 242.38 108.298 242.56L114.418 243.1V253H105.688ZM130.769 253.54C127.109 253.54 124.139 252.46 121.859 250.3C119.579 248.14 118.439 245.14 118.439 241.3V236.98C118.439 233.32 119.729 230.32 122.309 227.98C124.889 225.58 128.909 224.38 134.369 224.38H146.699V221.05C146.699 219.55 146.429 218.32 145.889 217.36C145.409 216.34 144.419 215.62 142.919 215.2C141.419 214.72 139.169 214.48 136.169 214.48H121.679V206.74C124.079 206.02 126.809 205.39 129.869 204.85C132.929 204.31 136.649 204.04 141.029 204.04C145.049 204.04 148.469 204.52 151.289 205.48C154.109 206.44 156.269 208.09 157.769 210.43C159.269 212.77 160.019 216.01 160.019 220.15V253H149.489L147.329 247.87C146.789 248.47 145.709 249.22 144.089 250.12C142.469 250.96 140.489 251.74 138.149 252.46C135.869 253.18 133.409 253.54 130.769 253.54ZM137.519 244.27C138.539 244.27 139.709 244.12 141.029 243.82C142.409 243.46 143.639 243.1 144.719 242.74C145.859 242.32 146.519 242.05 146.699 241.93V230.68L138.599 231.22C134.039 231.58 131.759 233.56 131.759 237.16V239.14C131.759 241.06 132.299 242.41 133.379 243.19C134.519 243.91 135.899 244.27 137.519 244.27ZM168.191 253V184.33H181.511V221.41H187.181L197.801 204.67H211.301L197.081 227.44L212.741 253H199.241L187.001 233.38H181.511V253H168.191ZM236.565 253.45C231.225 253.45 226.965 252.76 223.785 251.38C220.605 249.94 218.295 247.45 216.855 243.91C215.475 240.31 214.785 235.3 214.785 228.88C214.785 222.34 215.445 217.27 216.765 213.67C218.085 210.07 220.305 207.55 223.425 206.11C226.545 204.67 230.775 203.95 236.115 203.95C240.855 203.95 244.665 204.43 247.545 205.39C250.485 206.35 252.585 208.03 253.845 210.43C255.165 212.83 255.825 216.22 255.825 220.6C255.825 225.52 254.415 228.91 251.595 230.77C248.775 232.63 244.965 233.56 240.165 233.56H228.015C228.075 236.02 228.435 237.97 229.095 239.41C229.755 240.85 230.925 241.9 232.605 242.56C234.345 243.22 236.835 243.55 240.075 243.55H254.205V251.38C251.865 251.86 249.285 252.34 246.465 252.82C243.705 253.24 240.405 253.45 236.565 253.45ZM227.835 225.64H238.815C240.615 225.64 241.935 225.28 242.775 224.56C243.615 223.78 244.035 222.49 244.035 220.69C244.035 218.05 243.405 216.22 242.145 215.2C240.945 214.12 238.935 213.58 236.115 213.58C233.055 213.58 230.895 214.42 229.635 216.1C228.435 217.72 227.835 220.9 227.835 225.64ZM282.998 253L290.738 186.4H303.518L318.818 237.43L334.028 186.4H346.718L354.548 253H341.678L336.548 209.35L324.938 253H312.428L300.818 209.89L295.868 253H282.998ZM362.451 253V186.4H375.771V253H362.451ZM405.594 253.54C402.174 253.54 398.514 253.36 394.614 253C390.774 252.58 387.474 252.01 384.714 251.29V240.76C387.354 241 390.534 241.21 394.254 241.39C398.034 241.51 401.604 241.57 404.964 241.57C408.384 241.57 411.084 241.12 413.064 240.22C415.044 239.26 416.034 237.46 416.034 234.82V232.39C416.034 230.41 415.434 228.91 414.234 227.89C413.034 226.81 411.384 226.27 409.284 226.27H403.614C397.254 226.27 392.364 224.89 388.944 222.13C385.584 219.31 383.904 214.54 383.904 207.82V204.58C383.904 198.1 385.734 193.36 389.394 190.36C393.114 187.36 398.454 185.86 405.414 185.86C409.074 185.86 412.704 186.1 416.304 186.58C419.964 187.06 423.054 187.57 425.574 188.11V198.64C422.814 198.46 419.724 198.28 416.304 198.1C412.944 197.92 409.824 197.83 406.944 197.83C403.824 197.83 401.304 198.31 399.384 199.27C397.524 200.23 396.594 202.21 396.594 205.21V207.01C396.594 209.35 397.254 211.03 398.574 212.05C399.894 213.07 401.844 213.58 404.424 213.58H410.994C416.934 213.58 421.374 215.2 424.314 218.44C427.254 221.68 428.724 225.76 428.724 230.68V234.46C428.724 239.68 427.734 243.67 425.754 246.43C423.834 249.19 421.134 251.08 417.654 252.1C414.234 253.06 410.214 253.54 405.594 253.54ZM434.26 232.3V221.5H461.8V232.3H434.26ZM462.755 253L479.135 228.16L462.755 204.67H476.165L486.875 219.97L496.415 204.67H509.915L493.535 229.6L509.915 253H496.415L485.795 237.79L476.255 253H462.755ZM528.547 253V198.37H510.277V186.4H560.227V198.37H541.867V253H528.547ZM581.207 253.45C575.867 253.45 571.577 252.7 568.337 251.2C565.097 249.64 562.727 247.06 561.227 243.46C559.787 239.86 559.067 234.94 559.067 228.7C559.067 222.1 559.817 217.03 561.317 213.49C562.817 209.89 565.187 207.4 568.427 206.02C571.667 204.64 575.927 203.95 581.207 203.95C586.547 203.95 590.837 204.67 594.077 206.11C597.377 207.55 599.747 210.07 601.187 213.67C602.687 217.27 603.437 222.28 603.437 228.7C603.437 235.12 602.717 240.13 601.277 243.73C599.837 247.33 597.497 249.85 594.257 251.29C591.017 252.73 586.667 253.45 581.207 253.45ZM581.207 242.83C583.307 242.83 585.017 242.53 586.337 241.93C587.657 241.33 588.617 240.04 589.217 238.06C589.817 236.02 590.117 232.9 590.117 228.7C590.117 224.44 589.817 221.32 589.217 219.34C588.617 217.36 587.657 216.07 586.337 215.47C585.017 214.87 583.307 214.57 581.207 214.57C579.107 214.57 577.397 214.87 576.077 215.47C574.817 216.07 573.887 217.36 573.287 219.34C572.687 221.32 572.387 224.44 572.387 228.7C572.387 232.9 572.687 236.02 573.287 238.06C573.887 240.04 574.817 241.33 576.077 241.93C577.397 242.53 579.107 242.83 581.207 242.83ZM610.474 253V184.33H623.794V221.41H629.464L640.084 204.67H653.584L639.364 227.44L655.024 253H641.524L629.284 233.38H623.794V253H610.474ZM678.848 253.45C673.508 253.45 669.248 252.76 666.068 251.38C662.888 249.94 660.578 247.45 659.138 243.91C657.758 240.31 657.068 235.3 657.068 228.88C657.068 222.34 657.728 217.27 659.048 213.67C660.368 210.07 662.588 207.55 665.708 206.11C668.828 204.67 673.058 203.95 678.398 203.95C683.138 203.95 686.948 204.43 689.828 205.39C692.768 206.35 694.868 208.03 696.128 210.43C697.448 212.83 698.108 216.22 698.108 220.6C698.108 225.52 696.698 228.91 693.878 230.77C691.058 232.63 687.248 233.56 682.448 233.56H670.298C670.358 236.02 670.718 237.97 671.378 239.41C672.038 240.85 673.208 241.9 674.888 242.56C676.628 243.22 679.118 243.55 682.358 243.55H696.488V251.38C694.148 251.86 691.568 252.34 688.748 252.82C685.988 253.24 682.688 253.45 678.848 253.45ZM670.118 225.64H681.098C682.898 225.64 684.218 225.28 685.058 224.56C685.898 223.78 686.318 222.49 686.318 220.69C686.318 218.05 685.688 216.22 684.428 215.2C683.228 214.12 681.218 213.58 678.398 213.58C675.338 213.58 673.178 214.42 671.918 216.1C670.718 217.72 670.118 220.9 670.118 225.64ZM705.048 253V204.67H716.028L718.368 209.62C720.168 208.18 722.448 206.86 725.208 205.66C727.968 204.46 730.758 203.86 733.578 203.86C737.538 203.86 740.598 204.64 742.758 206.2C744.918 207.76 746.418 209.86 747.258 212.5C748.158 215.08 748.608 217.96 748.608 221.14V253H735.288V222.85C735.288 220.51 734.658 218.77 733.398 217.63C732.138 216.43 730.458 215.83 728.358 215.83C726.438 215.83 724.638 216.16 722.958 216.82C721.338 217.48 719.808 218.35 718.368 219.43V253H705.048Z" fill="white"/>
<path d="M52.96 383.45C51.52 383.45 49.87 383.3 48.01 383C46.15 382.76 44.35 382.16 42.61 381.2C40.93 380.24 39.52 378.8 38.38 376.88C37.3 374.9 36.76 372.2 36.76 368.78V331.61C36.76 327.65 37.54 324.56 39.1 322.34C40.66 320.12 42.61 318.59 44.95 317.75C47.29 316.85 49.63 316.4 51.97 316.4C58.69 316.4 64.3 316.52 68.8 316.76C73.3 317 77.29 317.27 80.77 317.57V328.73H55.93C54.07 328.73 52.63 329.18 51.61 330.08C50.59 330.98 50.08 332.36 50.08 334.22V343.85L76.45 344.57V355.1L50.08 355.82V365C50.08 367.34 50.62 368.93 51.7 369.77C52.84 370.55 54.16 370.94 55.66 370.94H80.77V382.1C76.75 382.52 72.22 382.85 67.18 383.09C62.14 383.33 57.4 383.45 52.96 383.45ZM98.2912 383.54C94.6312 383.54 91.6612 382.46 89.3812 380.3C87.1012 378.14 85.9612 375.14 85.9612 371.3V366.98C85.9612 363.32 87.2512 360.32 89.8312 357.98C92.4112 355.58 96.4312 354.38 101.891 354.38H114.221V351.05C114.221 349.55 113.951 348.32 113.411 347.36C112.931 346.34 111.941 345.62 110.441 345.2C108.941 344.72 106.691 344.48 103.691 344.48H89.2012V336.74C91.6012 336.02 94.3312 335.39 97.3912 334.85C100.451 334.31 104.171 334.04 108.551 334.04C112.571 334.04 115.991 334.52 118.811 335.48C121.631 336.44 123.791 338.09 125.291 340.43C126.791 342.77 127.541 346.01 127.541 350.15V383H117.011L114.851 377.87C114.311 378.47 113.231 379.22 111.611 380.12C109.991 380.96 108.011 381.74 105.671 382.46C103.391 383.18 100.931 383.54 98.2912 383.54ZM105.041 374.27C106.061 374.27 107.231 374.12 108.551 373.82C109.931 373.46 111.161 373.1 112.241 372.74C113.381 372.32 114.041 372.05 114.221 371.93V360.68L106.121 361.22C101.561 361.58 99.2812 363.56 99.2812 367.16V369.14C99.2812 371.06 99.8212 372.41 100.901 373.19C102.041 373.91 103.421 374.27 105.041 374.27ZM135.714 383V334.67H145.974L149.034 342.05C150.774 339.83 152.724 337.94 154.884 336.38C157.104 334.82 159.714 334.04 162.714 334.04C163.374 334.04 164.034 334.07 164.694 334.13C165.414 334.19 166.074 334.31 166.674 334.49V348.17C165.714 348.05 164.724 347.96 163.704 347.9C162.744 347.78 161.844 347.72 161.004 347.72C158.364 347.72 156.114 348.17 154.254 349.07C152.394 349.91 150.654 351.2 149.034 352.94V383H135.714ZM171.97 383V334.67H182.95L185.29 339.62C187.09 338.18 189.37 336.86 192.13 335.66C194.89 334.46 197.68 333.86 200.5 333.86C204.46 333.86 207.52 334.64 209.68 336.2C211.84 337.76 213.34 339.86 214.18 342.5C215.08 345.08 215.53 347.96 215.53 351.14V383H202.21V352.85C202.21 350.51 201.58 348.77 200.32 347.63C199.06 346.43 197.38 345.83 195.28 345.83C193.36 345.83 191.56 346.16 189.88 346.82C188.26 347.48 186.73 348.35 185.29 349.43V383H171.97ZM240.779 383L257.159 358.16L240.779 334.67H254.189L264.899 349.97L274.439 334.67H287.939L271.559 359.6L287.939 383H274.439L263.819 367.79L254.279 383H240.779ZM306.57 383V328.37H288.3V316.4H338.25V328.37H319.89V383H306.57ZM359.23 383.45C353.89 383.45 349.6 382.7 346.36 381.2C343.12 379.64 340.75 377.06 339.25 373.46C337.81 369.86 337.09 364.94 337.09 358.7C337.09 352.1 337.84 347.03 339.34 343.49C340.84 339.89 343.21 337.4 346.45 336.02C349.69 334.64 353.95 333.95 359.23 333.95C364.57 333.95 368.86 334.67 372.1 336.11C375.4 337.55 377.77 340.07 379.21 343.67C380.71 347.27 381.46 352.28 381.46 358.7C381.46 365.12 380.74 370.13 379.3 373.73C377.86 377.33 375.52 379.85 372.28 381.29C369.04 382.73 364.69 383.45 359.23 383.45ZM359.23 372.83C361.33 372.83 363.04 372.53 364.36 371.93C365.68 371.33 366.64 370.04 367.24 368.06C367.84 366.02 368.14 362.9 368.14 358.7C368.14 354.44 367.84 351.32 367.24 349.34C366.64 347.36 365.68 346.07 364.36 345.47C363.04 344.87 361.33 344.57 359.23 344.57C357.13 344.57 355.42 344.87 354.1 345.47C352.84 346.07 351.91 347.36 351.31 349.34C350.71 351.32 350.41 354.44 350.41 358.7C350.41 362.9 350.71 366.02 351.31 368.06C351.91 370.04 352.84 371.33 354.1 371.93C355.42 372.53 357.13 372.83 359.23 372.83ZM388.498 383V314.33H401.818V351.41H407.488L418.108 334.67H431.608L417.388 357.44L433.048 383H419.548L407.308 363.38H401.818V383H388.498ZM456.872 383.45C451.532 383.45 447.272 382.76 444.092 381.38C440.912 379.94 438.602 377.45 437.162 373.91C435.782 370.31 435.092 365.3 435.092 358.88C435.092 352.34 435.752 347.27 437.072 343.67C438.392 340.07 440.612 337.55 443.732 336.11C446.852 334.67 451.082 333.95 456.422 333.95C461.162 333.95 464.972 334.43 467.852 335.39C470.792 336.35 472.892 338.03 474.152 340.43C475.472 342.83 476.132 346.22 476.132 350.6C476.132 355.52 474.722 358.91 471.902 360.77C469.082 362.63 465.272 363.56 460.472 363.56H448.322C448.382 366.02 448.742 367.97 449.402 369.41C450.062 370.85 451.232 371.9 452.912 372.56C454.652 373.22 457.142 373.55 460.382 373.55H474.512V381.38C472.172 381.86 469.592 382.34 466.772 382.82C464.012 383.24 460.712 383.45 456.872 383.45ZM448.142 355.64H459.122C460.922 355.64 462.242 355.28 463.082 354.56C463.922 353.78 464.342 352.49 464.342 350.69C464.342 348.05 463.712 346.22 462.452 345.2C461.252 344.12 459.242 343.58 456.422 343.58C453.362 343.58 451.202 344.42 449.942 346.1C448.742 347.72 448.142 350.9 448.142 355.64ZM483.071 383V334.67H494.051L496.391 339.62C498.191 338.18 500.471 336.86 503.231 335.66C505.991 334.46 508.781 333.86 511.601 333.86C515.561 333.86 518.621 334.64 520.781 336.2C522.941 337.76 524.441 339.86 525.281 342.5C526.181 345.08 526.631 347.96 526.631 351.14V383H513.311V352.85C513.311 350.51 512.681 348.77 511.421 347.63C510.161 346.43 508.481 345.83 506.381 345.83C504.461 345.83 502.661 346.16 500.981 346.82C499.361 347.48 497.831 348.35 496.391 349.43V383H483.071Z" fill="#1F2237"/>
<path d="M824.293 144.644L786.195 147.65L1025.92 8.30325C1044.96 -2.76775 1068.48 -2.76775 1087.52 8.30325L839.147 153.282L824.293 144.644Z" fill="#191E36"/>
<path d="M526.527 576.417V694.379L530.794 696.829V691.893L555.476 677.489V559.281C555.487 557.38 554.928 555.519 553.871 553.939L555.035 553.446L550.839 551.048L550.345 550.766C547.371 549.171 543.773 549.275 540.896 551.039C532 556.397 526.564 566.025 526.571 576.408L526.527 576.417Z" fill="#3E4651"/>
<path d="M559.706 561.677V679.947L530.828 696.827V578.866C530.83 568.48 536.268 558.852 545.161 553.488C548.125 551.696 551.823 551.637 554.842 553.335C557.861 555.032 559.732 558.223 559.741 561.686L559.706 561.677Z" fill="#2B3541"/>
<path d="M1007.48 569.214L1120.47 503.102L980.311 420.427L939.656 532.191L1007.48 569.214Z" fill="#262831"/>
<path d="M1007.48 589.11L824.293 482.45V465.278L1007.48 569.215V589.11Z" fill="#242A32"/>
<path d="M824.293 385.934L1043.26 256.672V46.1543L824.293 174.27" fill="url(#paint1_linear)"/>
<path d="M773.898 173.653V453.086L824.293 482.44V144.669C813.924 138.611 801.105 138.567 790.695 144.555C780.285 150.542 773.876 161.644 773.898 173.653Z" fill="#252E37"/>
<path d="M514 571.207C513.975 573.942 515.175 576.546 517.271 578.303C517.685 578.629 518.152 578.973 518.655 579.299L684.419 676.537L680.012 668.929L1305.87 295.177L1145.92 200.857C1139.52 197.111 1131.59 197.111 1125.18 200.857L526.509 549.47C518.773 553.978 514.011 562.253 514 571.207Z" fill="url(#paint2_linear)"/>
<path opacity="0.2" d="M539.51 541.896L532.996 545.696L712.635 649.421L719.079 645.578L539.51 541.896Z" fill="white"/>
<path opacity="0.2" d="M595.105 509.503L588.582 513.302L767.525 616.613L773.951 612.779L595.105 509.503Z" fill="white"/>
<path opacity="0.2" d="M650.709 477.142L644.203 480.941L822.441 583.846L828.876 580.012L650.709 477.142Z" fill="white"/>
<path opacity="0.2" d="M706.308 444.748L699.785 448.547L877.344 551.065L883.788 547.23L706.308 444.748Z" fill="white"/>
<path opacity="0.2" d="M761.894 412.37L755.371 416.169L932.243 518.317L938.686 514.482L761.894 412.37Z" fill="white"/>
<path opacity="0.2" d="M979.311 480.978C979.803 481.266 980.363 481.416 980.933 481.41C982.466 481.477 983.84 480.469 984.236 478.987C984.632 477.504 983.944 475.946 982.582 475.24L817.478 379.924L810.938 383.723L979.311 480.978Z" fill="white"/>
<path opacity="0.2" d="M1022.86 441.626C1023.36 441.902 1023.92 442.05 1024.5 442.058C1025.97 442.047 1027.26 441.051 1027.64 439.625C1028.02 438.199 1027.4 436.695 1026.13 435.95L873.084 347.615L866.543 351.414L1022.86 441.626Z" fill="white"/>
<path opacity="0.2" d="M1066.41 402.313C1066.91 402.595 1067.48 402.744 1068.05 402.745C1069.53 402.746 1070.82 401.758 1071.21 400.333C1071.6 398.909 1070.98 397.401 1069.71 396.654L928.671 315.23L922.121 319.03L1066.41 402.313Z" fill="white"/>
<path d="M1309.04 302.175C1309.04 311.364 1304.16 319.862 1296.22 324.494L693.446 676.43C690.629 678.024 687.18 678.014 684.372 676.403C681.564 674.793 679.813 671.821 679.766 668.585C679.768 659.4 684.643 650.907 692.574 646.274L1295.34 294.32C1298.16 292.718 1301.61 292.723 1304.43 294.334C1307.24 295.946 1308.99 298.924 1309.04 302.166V302.175Z" fill="url(#paint3_linear)"/>
<path d="M1130.16 321.72L1130.35 336.123C1130.15 342.815 1127.17 349.119 1122.12 353.524C1105.79 369.391 1070.56 374.75 1043.4 365.503C1039.74 364.289 1036.2 362.743 1032.82 360.884C1021.73 354.714 1015.68 346.199 1015.58 337.463L1015.4 323.06C1015.52 331.795 1021.57 340.293 1032.65 346.481C1036.03 348.341 1039.57 349.887 1043.23 351.1C1070.37 360.347 1105.62 355.022 1121.96 339.12C1127.02 334.734 1130 328.416 1130.16 321.72Z" fill="url(#paint4_linear)"/>
<path d="M1130.16 321.719L1130.35 336.122V336.625L1130.18 322.23V321.719" fill="url(#paint5_linear)"/>
<path d="M1129.84 325.483C1129.63 326.575 1129.34 327.649 1128.96 328.692C1128.55 329.818 1128.06 330.912 1127.48 331.962C1126.82 333.169 1126.07 334.327 1125.24 335.426C1124.22 336.732 1123.12 337.964 1121.93 339.111L1121.67 339.358C1119.45 341.451 1117.02 343.309 1114.42 344.902C1110.3 347.409 1105.9 349.44 1101.32 350.958C1097.76 352.164 1094.12 353.127 1090.43 353.841C1088.02 354.317 1085.56 354.722 1083.07 354.978C1080.98 355.225 1078.86 355.401 1076.74 355.507C1074.61 355.613 1072.81 355.639 1070.9 355.613C1068.99 355.586 1067.15 355.533 1065.29 355.401C1063.43 355.269 1061.59 355.101 1059.76 354.863C1057.92 354.625 1055.96 354.326 1054.09 353.982C1052.22 353.638 1050.02 353.1 1048.04 352.598C1046.39 352.148 1044.76 351.663 1043.16 351.126C1042.42 350.879 1041.71 350.614 1041 350.35C1038.11 349.276 1035.31 347.988 1032.62 346.498C1021.51 340.327 1015.48 331.812 1015.38 323.077L1015.54 337.48C1015.65 346.216 1021.71 354.713 1032.78 360.901C1035.48 362.392 1038.28 363.679 1041.17 364.754C1041.87 365.018 1042.59 365.283 1043.33 365.529C1044.93 366.076 1046.55 366.561 1048.21 367.001C1050.2 367.53 1052.21 367.992 1054.26 368.385C1056.29 368.773 1058.02 369.055 1059.93 369.267C1061.83 369.478 1063.62 369.672 1065.46 369.805C1067.3 369.937 1069.19 369.998 1071.07 370.016C1072.95 370.034 1074.99 370.016 1076.9 369.91C1078.82 369.805 1081.16 369.619 1083.26 369.381C1085.74 369.099 1088.2 368.72 1090.61 368.244C1094.3 367.535 1097.94 366.574 1101.5 365.371C1106.08 363.853 1110.47 361.821 1114.6 359.315C1117.19 357.714 1119.62 355.856 1121.85 353.77L1122.1 353.532C1123.28 352.377 1124.38 351.143 1125.39 349.839C1126.22 348.741 1126.97 347.586 1127.64 346.383C1128.22 345.334 1128.71 344.24 1129.11 343.113C1129.5 342.071 1129.8 340.997 1130 339.904C1130.19 338.83 1130.3 337.743 1130.32 336.652L1130.14 322.248C1130.13 323.333 1130.03 324.416 1129.84 325.483Z" fill="#4C68EF"/>
<path d="M1048.12 354.573C1050.1 355.111 1052.13 355.569 1054.17 355.957C1056.2 356.345 1057.94 356.627 1059.84 356.839C1061.73 357.05 1063.52 357.244 1065.38 357.368C1067.24 357.491 1069.11 357.57 1070.98 357.579C1072.85 357.588 1074.9 357.579 1076.82 357.473C1078.74 357.368 1081.06 357.191 1083.16 356.953C1085.65 356.662 1088.11 356.283 1090.51 355.807C1094.2 355.093 1097.84 354.133 1101.41 352.934C1105.98 351.409 1110.38 349.374 1114.5 346.869C1117.1 345.277 1119.54 343.416 1121.75 341.316L1122.02 341.069C1123.21 339.917 1124.31 338.68 1125.31 337.366C1126.15 336.283 1126.91 335.137 1127.57 333.937C1128.14 332.883 1128.64 331.787 1129.04 330.658C1129.42 329.616 1129.71 328.547 1129.92 327.458C1130.13 326.383 1130.24 325.292 1130.25 324.197V322.311C1130.21 324.485 1129.81 326.638 1129.07 328.684C1128.67 329.81 1128.18 330.903 1127.61 331.954C1126.94 333.16 1126.18 334.315 1125.35 335.41C1124.34 336.72 1123.24 337.954 1122.05 339.103L1121.79 339.35C1119.57 341.44 1117.14 343.295 1114.53 344.886C1110.41 347.398 1106.02 349.433 1101.43 350.95C1097.87 352.157 1094.24 353.12 1090.55 353.833C1088.13 354.3 1085.67 354.714 1083.19 354.97C1081.1 355.217 1078.97 355.393 1076.86 355.499C1074.74 355.605 1072.94 355.622 1071.01 355.605C1069.09 355.587 1067.27 355.508 1065.41 355.393C1063.55 355.278 1061.7 355.093 1059.87 354.855C1058.04 354.617 1056.07 354.318 1054.2 353.974C1052.33 353.63 1050.13 353.092 1048.16 352.581C1046.51 352.14 1044.87 351.655 1043.27 351.109C1042.53 350.871 1041.82 350.606 1041.11 350.342C1038.23 349.266 1035.43 347.978 1032.73 346.49C1021.63 340.319 1015.59 331.804 1015.49 323.069V325.193C1015.66 333.867 1021.66 342.312 1032.73 348.482C1035.42 349.973 1038.23 351.258 1041.11 352.325C1041.82 352.59 1042.53 352.854 1043.27 353.101C1044.86 353.675 1046.48 354.166 1048.12 354.573Z" fill="white"/>
<path d="M1112.92 298.087C1131.51 308.453 1135.93 325.316 1121.95 338.891C1105.61 354.758 1070.37 360.117 1043.23 350.87C1039.57 349.658 1036.03 348.111 1032.65 346.251C1014.04 335.885 1009.63 319.004 1023.62 305.429C1039.94 289.562 1075.19 284.203 1102.32 293.45C1105.99 294.674 1109.53 296.226 1112.92 298.087Z" fill="#4C68EF"/>
<path d="M1104.9 302.564C1119.78 310.859 1123.32 324.363 1112.12 335.232C1099.03 347.917 1070.83 352.254 1049.09 344.814C1046.17 343.833 1043.35 342.595 1040.65 341.112C1025.77 332.808 1022.24 319.312 1033.42 308.444C1046.52 295.75 1074.72 291.422 1096.45 298.853C1099.37 299.831 1102.2 301.073 1104.9 302.564Z" fill="#4C68EF"/>
<path d="M1106.73 301.436C1103.88 299.867 1100.89 298.554 1097.8 297.513C1074.82 289.668 1045.01 294.225 1031.18 307.65C1019.4 319.11 1023.1 333.39 1038.82 342.169C1041.67 343.747 1044.66 345.06 1047.74 346.092C1070.72 353.937 1100.54 349.38 1114.37 335.972C1126.2 324.478 1122.48 310.206 1106.73 301.436ZM1112.12 335.197C1099.03 347.89 1070.83 352.218 1049.09 344.779C1046.17 343.806 1043.34 342.567 1040.65 341.076C1025.77 332.781 1022.24 319.277 1033.42 308.408C1046.52 295.724 1074.72 291.387 1096.45 298.826C1099.37 299.805 1102.2 301.044 1104.9 302.529C1119.78 310.832 1123.31 324.337 1112.12 335.206V335.197Z" fill="white"/>
<path d="M1055.95 314.905C1060.92 312.874 1066.36 312.264 1071.66 313.142C1072.83 313.338 1073.99 313.6 1075.13 313.927C1076.36 314.314 1077.7 314.245 1078.88 313.733L1087.45 309.325L1095.3 314.561L1086.72 318.969C1085.73 319.462 1085.41 320.282 1085.84 321.023C1088.39 325.174 1086.44 329.67 1080.68 332.597C1072.05 336.476 1062.08 335.917 1053.94 331.098C1046.82 326.338 1047.25 319.313 1054.92 315.381C1055.22 315.231 1055.58 315.081 1055.95 314.905Z" fill="white"/>
<path d="M1087.16 309.66L1094.67 314.658C1094.76 314.705 1094.8 314.818 1094.75 314.913C1094.74 314.953 1094.71 314.985 1094.67 315.002C1094.49 315.09 1094.27 315.09 1094.09 315.002L1086.57 310.004C1086.48 309.953 1086.45 309.843 1086.49 309.748C1086.51 309.71 1086.54 309.68 1086.57 309.66C1086.76 309.571 1086.97 309.571 1087.16 309.66ZM1088.75 308.849C1087.65 308.18 1086.28 308.1 1085.1 308.637C1084.5 308.82 1084.16 309.453 1084.34 310.056C1084.43 310.378 1084.66 310.64 1084.97 310.77L1092.47 315.777C1093.58 316.445 1094.95 316.521 1096.12 315.98C1096.58 315.845 1096.9 315.437 1096.93 314.96C1096.96 314.482 1096.69 314.038 1096.25 313.847L1088.75 308.849Z" fill="white"/>
<path d="M1057.05 317.92C1051.27 320.864 1050.98 326.18 1056.4 329.794C1059.45 331.68 1062.94 332.732 1066.53 332.844C1069.61 333.071 1072.7 332.626 1075.6 331.539C1074.91 329.819 1073.67 328.377 1072.07 327.44C1069.05 325.457 1063.71 324.937 1059.95 321.675C1058.72 320.649 1057.73 319.368 1057.05 317.92Z" fill="#4C68EF"/>
<path d="M821.141 144.643L1001.11 249.382C1038.08 270.906 1060.83 310.46 1060.83 353.239V622.006L1309.5 477.23V208.507C1309.5 165.73 1286.76 126.175 1249.8 104.641L1084.3 8.32025L1058.12 6.01074L821.141 144.643Z" fill="url(#paint6_linear)"/>
<path d="M814.543 138.783V191.981L1016.46 309.552V256.344L814.543 138.783Z" fill="#252E37"/>
<path d="M681.688 675.46V793.422L685.954 795.855V790.936L710.636 776.532V658.315C710.648 656.413 710.086 654.551 709.023 652.974L710.204 652.489L705.999 650.091L705.514 649.8C702.536 648.212 698.941 648.312 696.056 650.065C687.167 655.437 681.734 665.066 681.732 675.452L681.688 675.46Z" fill="#303A45"/>
<path d="M714.864 660.758V779.019L685.969 795.856V677.868C685.971 667.48 691.408 657.85 700.302 652.481C703.274 650.69 706.981 650.64 710.001 652.349C713.021 654.058 714.886 657.262 714.882 660.732L714.864 660.758Z" fill="url(#paint7_linear)"/>
<path d="M948.516 519.04V637.01L952.782 639.46V634.533L977.464 620.129V501.903C977.476 500.001 976.914 498.139 975.851 496.562L977.014 496.068L972.801 493.635L972.316 493.353C970.926 492.621 969.382 492.235 967.811 492.225C966.062 492.224 964.347 492.709 962.857 493.626C953.961 498.988 948.523 508.617 948.524 519.004L948.516 519.04Z" fill="#343E4A"/>
<path d="M981.703 504.346V622.616L952.781 639.452V521.491C952.783 511.105 958.221 501.477 967.114 496.113C970.085 494.317 973.793 494.262 976.814 495.971C979.836 497.679 981.701 500.884 981.694 504.355L981.703 504.346Z" fill="url(#paint8_linear)"/>
<path d="M809.856 272.152L779.109 254.258V324.971L809.865 342.901L809.856 272.152Z" fill="url(#paint9_linear)"/>
<path d="M814.986 269.243L784.231 251.349L779.109 254.258L809.856 272.152L814.986 269.243Z" fill="url(#paint10_linear)"/>
<path d="M814.985 269.242V339.956L809.863 342.864V272.151L814.985 269.242Z" fill="url(#paint11_linear)"/>
<path d="M805.518 274.584L783.48 261.74V283.619L805.518 296.462V274.584Z" fill="#4C68EF"/>
<path d="M805.517 302.351L800.043 299.16V304.581L805.517 307.772V302.351Z" fill="white"/>
<path d="M797.215 297.539L791.75 294.348V299.786L797.206 302.969L797.215 297.539Z" fill="white"/>
<path d="M788.927 292.601L783.453 289.41V294.831L788.927 298.022V292.601Z" fill="white"/>
<path d="M805.517 311.458L800.043 308.267V313.688L805.517 316.879V311.458Z" fill="white"/>
<path d="M797.215 306.681L791.75 303.499V308.929L797.206 312.111L797.215 306.681Z" fill="white"/>
<path d="M788.927 301.752L783.453 298.569V303.999L788.927 307.182V301.752Z" fill="white"/>
<path d="M805.517 320.608L800.043 317.426V322.847L805.517 326.029V320.608Z" fill="white"/>
<path d="M797.215 315.838L791.75 312.656V318.086L797.206 321.277L797.215 315.838Z" fill="white"/>
<path d="M788.927 310.92L783.453 307.729V313.159L788.927 316.35V310.92Z" fill="white"/>
<path d="M805.517 329.757L800.043 326.575V331.996L805.517 335.179V329.757Z" fill="#ED1B1C"/>
<path d="M797.215 324.989L791.75 321.807V327.237L797.206 330.428L797.215 324.989Z" fill="#3E3E3E"/>
<path d="M788.927 320.071L783.453 316.88V322.319L788.927 325.501V320.071Z" fill="#7CED14"/>
<path opacity="0.28" d="M1180.19 469.933H1098.76V577.722H1180.19V469.933Z" fill="url(#paint12_linear)"/>
<path d="M1180.19 610.346V627.535C1180.19 641.048 1161.97 651.996 1139.47 651.996C1116.98 651.996 1098.76 641.048 1098.76 627.535V610.346H1180.19Z" fill="#353A46"/>
<path d="M1139.47 634.797C1161.96 634.797 1180.19 623.849 1180.19 610.344C1180.19 596.839 1161.96 585.892 1139.47 585.892C1116.99 585.892 1098.76 596.839 1098.76 610.344C1098.76 623.849 1116.99 634.797 1139.47 634.797Z" fill="#38404A"/>
<path d="M1139.47 629.412C1157.01 629.412 1171.23 620.875 1171.23 610.345C1171.23 599.815 1157.01 591.278 1139.47 591.278C1121.94 591.278 1107.72 599.815 1107.72 610.345C1107.72 620.875 1121.94 629.412 1139.47 629.412Z" fill="#343B44"/>
<path d="M1107.58 532.685L1105.13 534.307C1105.54 533.972 1106.01 533.645 1106.43 533.346V533.24L1107.58 532.685Z" fill="#F39600"/>
<path d="M1139.47 624.045C1152.06 624.045 1162.27 617.912 1162.27 610.347C1162.27 602.781 1152.06 596.648 1139.47 596.648C1126.88 596.648 1116.68 602.781 1116.68 610.347C1116.68 617.912 1126.88 624.045 1139.47 624.045Z" fill="#475254"/>
<path d="M1180.19 577.738V595.007C1180.19 608.511 1161.97 619.468 1139.47 619.468C1116.98 619.468 1098.76 608.511 1098.76 595.007V577.738H1180.19Z" fill="#3E4759"/>
<path d="M1139.47 602.191C1161.96 602.191 1180.19 591.244 1180.19 577.739C1180.19 564.234 1161.96 553.286 1139.47 553.286C1116.99 553.286 1098.76 564.234 1098.76 577.739C1098.76 591.244 1116.99 602.191 1139.47 602.191Z" fill="#FEED00"/>
<path d="M1183.31 471.916V484.345C1183.31 498.89 1163.67 510.675 1139.47 510.675C1115.28 510.675 1095.64 498.89 1095.64 484.345V471.916H1183.31Z" fill="#333844"/>
<path d="M1139.47 498.245C1163.68 498.245 1183.31 486.457 1183.31 471.915C1183.31 457.373 1163.68 445.585 1139.47 445.585C1115.26 445.585 1095.64 457.373 1095.64 471.915C1095.64 486.457 1115.26 498.245 1139.47 498.245Z" fill="#2C333B"/>
<path d="M1157.57 459.874V467.534C1157.57 473.546 1149.47 478.412 1139.45 478.412C1129.42 478.412 1121.33 473.546 1121.33 467.534V459.874H1157.57Z" fill="#222939"/>
<path d="M1139.47 470.751C1149.48 470.751 1157.59 465.881 1157.59 459.874C1157.59 453.866 1149.48 448.996 1139.47 448.996C1129.46 448.996 1121.35 453.866 1121.35 459.874C1121.35 465.881 1129.46 470.751 1139.47 470.751Z" fill="#3C4753"/>
<path d="M1139.47 465.357C1144.51 465.357 1148.59 462.903 1148.59 459.874C1148.59 456.846 1144.51 454.392 1139.47 454.392C1134.43 454.392 1130.35 456.846 1130.35 459.874C1130.35 462.903 1134.43 465.357 1139.47 465.357Z" fill="#F39600"/>
<path d="M1149.23 459.873V428.722C1149.79 415.405 1142.92 402.875 1131.4 396.177L1096.55 375.947C1093.31 374.078 1089.32 374.078 1086.08 375.947C1083.87 377.23 1082.27 379.338 1081.62 381.807C1080.96 384.276 1081.32 386.902 1082.61 389.107C1083.41 390.499 1084.56 391.664 1085.94 392.492L1120.45 413.419C1126.15 416.893 1129.63 423.093 1129.62 429.77V459.882C1129.62 459.882 1130.92 465.339 1139.88 465.339C1148.83 465.339 1149.23 459.873 1149.23 459.873Z" fill="url(#paint13_linear)"/>
<path opacity="0.28" d="M1263.51 435.086H1182.07V542.875H1263.51V435.086Z" fill="url(#paint14_linear)"/>
<path d="M1263.52 575.499V592.688C1263.52 606.193 1245.28 617.141 1222.8 617.141C1200.32 617.141 1182.07 606.193 1182.07 592.688V575.499H1263.52Z" fill="#3B414E"/>
<path d="M1222.8 599.952C1245.29 599.952 1263.51 589.004 1263.51 575.499C1263.51 561.995 1245.29 551.047 1222.8 551.047C1200.31 551.047 1182.08 561.995 1182.08 575.499C1182.08 589.004 1200.31 599.952 1222.8 599.952Z" fill="#36383C"/>
<path d="M1222.8 594.566C1240.33 594.566 1254.55 586.03 1254.55 575.499C1254.55 564.969 1240.33 556.433 1222.8 556.433C1205.26 556.433 1191.05 564.969 1191.05 575.499C1191.05 586.03 1205.26 594.566 1222.8 594.566Z" fill="#323841"/>
<path d="M1190.89 497.84L1188.42 499.453L1189.74 498.501V498.395L1190.89 497.84Z" fill="#F39600"/>
<path d="M1222.8 589.189C1235.39 589.189 1245.59 583.056 1245.59 575.49C1245.59 567.925 1235.39 561.792 1222.8 561.792C1210.21 561.792 1200 567.925 1200 575.49C1200 583.056 1210.21 589.189 1222.8 589.189Z" fill="#475254"/>
<path d="M1263.52 542.885V560.153C1263.52 573.658 1245.28 584.606 1222.8 584.606C1200.32 584.606 1182.07 573.658 1182.07 560.153V542.885H1263.52Z" fill="#3D414A"/>
<path d="M1222.8 567.336C1245.29 567.336 1263.51 556.388 1263.51 542.883C1263.51 529.378 1245.29 518.431 1222.8 518.431C1200.31 518.431 1182.08 529.378 1182.08 542.883C1182.08 556.388 1200.31 567.336 1222.8 567.336Z" fill="#FEED00"/>
<path d="M1266.64 437.078V449.49C1266.64 464.034 1247 475.837 1222.8 475.837C1198.6 475.837 1178.95 464.052 1178.95 449.49V437.078H1266.64Z" fill="#353C49"/>
<path d="M1222.8 463.409C1247.01 463.409 1266.63 451.621 1266.63 437.079C1266.63 422.537 1247.01 410.749 1222.8 410.749C1198.59 410.749 1178.96 422.537 1178.96 437.079C1178.96 451.621 1198.59 463.409 1222.8 463.409Z" fill="#2C333B"/>
<path d="M1240.91 425.028V432.68C1240.91 438.7 1232.8 443.575 1222.8 443.575C1212.79 443.575 1204.68 438.7 1204.68 432.68V425.028H1240.91Z" fill="#343944"/>
<path d="M1222.8 435.907C1232.81 435.907 1240.92 431.037 1240.92 425.029C1240.92 419.021 1232.81 414.151 1222.8 414.151C1212.79 414.151 1204.68 419.021 1204.68 425.029C1204.68 431.037 1212.79 435.907 1222.8 435.907Z" fill="#394758"/>
<path d="M1222.8 430.52C1227.84 430.52 1231.92 428.066 1231.92 425.038C1231.92 422.009 1227.84 419.555 1222.8 419.555C1217.76 419.555 1213.68 422.009 1213.68 425.038C1213.68 428.066 1217.76 430.52 1222.8 430.52Z" fill="#F39600"/>
<path d="M1232.55 425.029V393.877C1233.08 380.579 1226.21 368.079 1214.69 361.411L1179.84 341.137C1176.6 339.268 1172.61 339.268 1169.37 341.137C1166.44 342.847 1164.62 345.978 1164.59 349.376C1164.56 352.774 1166.32 355.937 1169.22 357.7L1203.72 378.653C1209.42 382.131 1212.89 388.329 1212.88 395.005V425.117C1212.88 425.117 1214.2 430.564 1223.15 430.564C1232.11 430.564 1232.55 425.029 1232.55 425.029Z" fill="url(#paint15_linear)"/>
<path opacity="0.28" d="M1344.52 390.968H1263.09V498.757H1344.52V390.968Z" fill="url(#paint16_linear)"/>
<path d="M1344.52 531.371V548.587C1344.52 562.091 1326.3 573.048 1303.8 573.048C1281.31 573.048 1263.09 562.091 1263.09 548.587V531.371H1344.52Z" fill="#43464E"/>
<path d="M1303.8 555.824C1326.29 555.824 1344.52 544.876 1344.52 531.372C1344.52 517.867 1326.29 506.919 1303.8 506.919C1281.32 506.919 1263.09 517.867 1263.09 531.372C1263.09 544.876 1281.32 555.824 1303.8 555.824Z" fill="#2E3339"/>
<path d="M1303.8 550.439C1321.33 550.439 1335.55 541.903 1335.55 531.372C1335.55 520.842 1321.33 512.306 1303.8 512.306C1286.26 512.306 1272.05 520.842 1272.05 531.372C1272.05 541.903 1286.26 550.439 1303.8 550.439Z" fill="#485360"/>
<path d="M1271.9 453.721L1269.45 455.343C1269.87 455.017 1270.33 454.69 1270.75 454.382V454.32L1271.9 453.721Z" fill="#F39600"/>
<path d="M1303.8 545.071C1316.39 545.071 1326.59 538.938 1326.59 531.372C1326.59 523.807 1316.39 517.674 1303.8 517.674C1291.21 517.674 1281 523.807 1281 531.372C1281 538.938 1291.21 545.071 1303.8 545.071Z" fill="#475254"/>
<path d="M1344.52 498.757V516.025C1344.52 529.539 1326.3 540.487 1303.8 540.487C1281.31 540.487 1263.09 529.539 1263.09 516.025V498.757H1344.52Z" fill="#444750"/>
<path d="M1303.8 523.21C1326.29 523.21 1344.52 512.262 1344.52 498.757C1344.52 485.252 1326.29 474.305 1303.8 474.305C1281.32 474.305 1263.09 485.252 1263.09 498.757C1263.09 512.262 1281.32 523.21 1303.8 523.21Z" fill="#FEED00"/>
<path d="M1347.64 392.96V405.389C1347.64 419.934 1328 431.719 1303.8 431.719C1279.6 431.719 1259.96 419.934 1259.96 405.389V392.96H1347.64Z" fill="#3E434E"/>
<path d="M1303.8 419.29C1328.01 419.29 1347.64 407.502 1347.64 392.96C1347.64 378.418 1328.01 366.63 1303.8 366.63C1279.59 366.63 1259.96 378.418 1259.96 392.96C1259.96 407.502 1279.59 419.29 1303.8 419.29Z" fill="#2C333B"/>
<path d="M1321.92 380.91V388.57C1321.92 394.582 1313.8 399.448 1303.8 399.448C1293.79 399.448 1285.68 394.582 1285.68 388.57V380.91H1321.92Z" fill="#1D1F24"/>
<path d="M1303.8 391.786C1313.81 391.786 1321.92 386.916 1321.92 380.909C1321.92 374.901 1313.81 370.031 1303.8 370.031C1293.79 370.031 1285.68 374.901 1285.68 380.909C1285.68 386.916 1293.79 391.786 1303.8 391.786Z" fill="#334050"/>
<path d="M1303.8 386.393C1308.84 386.393 1312.92 383.938 1312.92 380.91C1312.92 377.882 1308.84 375.427 1303.8 375.427C1298.76 375.427 1294.68 377.882 1294.68 380.91C1294.68 383.938 1298.76 386.393 1303.8 386.393Z" fill="#F39600"/>
<path d="M1313.59 380.911V349.768C1314.15 336.448 1307.29 323.914 1295.76 317.214L1260.93 296.94C1257.68 295.071 1253.69 295.071 1250.45 296.94C1247.51 298.643 1245.69 301.774 1245.66 305.172C1245.63 308.571 1247.4 311.732 1250.31 313.485L1284.82 334.438C1290.52 337.933 1293.98 344.151 1293.94 350.834V380.946C1293.94 380.946 1295.25 386.402 1304.21 386.402C1313.16 386.402 1313.59 380.911 1313.59 380.911Z" fill="url(#paint17_linear)"/>
<path d="M1240.73 126.52C1247.19 130.249 1247.21 136.287 1240.73 140.016L1072.45 237.861C1065.13 241.59 1056.46 241.59 1049.14 237.861L879.685 140.016C873.233 136.287 873.206 130.249 879.623 126.52L1047.99 28.6745C1055.31 24.9457 1063.97 24.9457 1071.3 28.6745L1240.73 126.52Z" fill="url(#paint18_linear)"/>
<path d="M1047.07 42.1177L879.168 139.69L879.688 140.025L1049.15 237.836C1056.47 241.573 1065.13 241.573 1072.45 237.836L1240.34 140.263L1239.83 139.937L1070.43 42.0913C1063.08 38.3887 1054.41 38.3985 1047.07 42.1177Z" fill="url(#paint19_linear)"/>
<path d="M1060.15 158.245C1059.94 158.255 1059.73 158.199 1059.55 158.087L975.223 109.402C974.648 109.071 974.448 108.339 974.773 107.762C975.103 107.192 975.831 106.995 976.404 107.321L1060.74 156.024C1061.02 156.179 1061.22 156.438 1061.3 156.743C1061.39 157.048 1061.34 157.373 1061.19 157.646C1060.98 158.023 1060.58 158.254 1060.15 158.245H1060.15Z" fill="white"/>
<path d="M1106.89 131.289C1106.68 131.287 1106.48 131.226 1106.3 131.112L1022 82.4892C1021.72 82.3372 1021.52 82.0821 1021.44 81.7808C1021.35 81.4795 1021.39 81.1569 1021.55 80.8849C1021.89 80.321 1022.61 80.1296 1023.19 80.453L1107.48 129.085C1107.95 129.355 1108.18 129.91 1108.04 130.435C1107.9 130.961 1107.42 131.325 1106.88 131.324L1106.89 131.289Z" fill="white"/>
<path d="M966.34 151.37L1001.11 171.644L1124.74 91.8341L1099.39 75.8086L1095.15 82.5344L1088.37 91.9223L1077.21 101.196L1070.82 106.388L1060.25 111.483L1046.47 115.969L1022.31 121.858L998.867 125.243L981.272 132.709L969.698 144.107L966.34 151.37Z" fill="url(#paint20_linear)"/>
<path d="M966.339 151.369C966.185 151.366 966.033 151.337 965.89 151.28C965.279 151.039 964.979 150.349 965.22 149.738C965.572 148.856 974.237 128.106 1003.3 123.293C1006.74 122.72 1010.35 122.226 1014.11 121.689C1041.43 117.766 1075.52 112.962 1097.7 76.2389C1098.1 75.7684 1098.78 75.6646 1099.3 75.9959C1099.82 76.3272 1100.02 76.9919 1099.76 77.5524C1076.96 115.183 1042.29 120.102 1014.44 124.06C1010.67 124.598 1007.11 125.091 1003.7 125.664C992.898 127.227 982.88 132.196 975.101 139.847C971.938 142.953 969.353 146.598 967.468 150.61C967.277 151.066 966.833 151.364 966.339 151.369Z" fill="url(#paint21_linear)"/>
<path d="M986.559 163.261L990.86 153.979L995.761 148.743L999.587 146.098L1015.27 137.512L1021.33 135.423L1028.93 133.025L1035.62 127.789L1039.15 123.047L1041.79 117.476L1046.09 101.098C1046.09 101.098 1049 86.9323 1050.84 84.5346C1052.67 82.1369 1058.55 74.1506 1058.55 74.1506L1062.54 72.0527L1066.19 68.9498L1072.42 67.5747L1077.11 65.6178L1079.8 65.0889L1120.35 87.9195L1004.43 173.424L986.559 163.261Z" fill="url(#paint22_linear)"/>
<path d="M986.337 164.556H986.196C985.547 164.478 985.08 163.894 985.147 163.243C985.244 162.459 987.791 143.85 1022.84 133.951C1038.05 129.685 1041.17 116.621 1044.46 102.781C1048.54 85.6805 1052.78 67.9978 1079.3 64.5159C1079.61 64.4839 1079.93 64.5784 1080.17 64.7785C1080.42 64.9786 1080.57 65.2679 1080.6 65.5825C1080.66 66.2108 1080.23 66.7794 1079.61 66.8871C1054.73 70.1574 1050.69 87.0292 1046.79 103.346C1043.46 117.238 1040.03 131.615 1023.5 136.261C1005.95 141.179 997.135 148.355 992.79 153.503C990.179 156.312 988.371 159.77 987.554 163.516C987.472 164.126 986.943 164.575 986.328 164.556H986.337Z" fill="#4C68EF"/>
<path d="M1017.95 182.54C1017.74 182.539 1017.53 182.488 1017.35 182.39L932.963 133.696C932.434 133.346 932.269 132.645 932.587 132.096C932.905 131.547 933.595 131.34 934.162 131.625L1018.5 180.318C1019.07 180.648 1019.26 181.37 1018.94 181.94C1018.73 182.319 1018.33 182.549 1017.9 182.54H1017.95Z" fill="white"/>
<path d="M1150.31 106.369C1150.1 106.373 1149.89 106.314 1149.72 106.202L1065.31 57.5084C1064.91 57.3119 1064.65 56.9043 1064.64 56.4535C1064.63 56.0027 1064.87 55.5849 1065.27 55.3722C1065.67 55.1595 1066.15 55.1879 1066.52 55.4457L1150.85 104.13C1151.43 104.461 1151.63 105.193 1151.3 105.77C1151.09 106.125 1150.72 106.35 1150.31 106.369Z" fill="white"/>
<path d="M1080 178.22C1070.68 173.487 1059.67 173.487 1050.35 178.22C1047.45 179.633 1045.29 182.227 1044.43 185.342L1049.67 184.963C1050.5 182.942 1052.02 181.285 1053.97 180.291C1061.04 176.685 1069.4 176.685 1076.47 180.291C1082.7 183.888 1082.73 189.732 1076.54 193.381C1073.52 195.015 1070.16 195.921 1066.73 196.026L1066.61 198.952C1071.33 198.874 1075.97 197.665 1080.13 195.426C1088.28 190.658 1088.23 182.962 1080 178.22Z" fill="url(#paint23_linear)"/>
<path d="M1053.04 194.112C1060.71 198.044 1069.81 198.044 1077.48 194.112C1079.88 192.955 1081.66 190.818 1082.37 188.25L1078.08 188.568C1077.4 190.232 1076.15 191.597 1074.55 192.411C1068.74 195.39 1061.86 195.41 1056.04 192.464C1050.89 189.493 1050.87 184.689 1055.98 181.71C1058.46 180.36 1061.23 179.612 1064.06 179.524L1064.17 177.108C1060.27 177.171 1056.45 178.166 1053.02 180.009C1046.23 183.869 1046.26 190.216 1053.04 194.112Z" fill="url(#paint24_linear)"/>
<path d="M1077.27 179.993C1069.59 176.07 1060.5 176.07 1052.82 179.993C1050.42 181.162 1048.63 183.306 1047.92 185.881L1052.21 185.546C1052.9 183.889 1054.14 182.527 1055.74 181.703C1061.57 178.741 1068.47 178.741 1074.3 181.703C1079.43 184.673 1079.45 189.495 1074.3 192.448C1071.81 193.802 1069.04 194.559 1066.21 194.661L1066.1 197.067C1070 197.007 1073.83 196.01 1077.26 194.158C1084.06 190.236 1084.02 183.907 1077.27 179.993Z" fill="#4C68EF"/>
<path d="M1124.3 149.739C1114.99 144.996 1103.97 144.996 1094.66 149.739C1091.75 151.15 1089.59 153.745 1088.73 156.861L1093.96 156.465C1094.8 154.448 1096.33 152.797 1098.27 151.81C1105.34 148.205 1113.71 148.205 1120.78 151.81C1127.01 155.407 1127.04 161.251 1120.86 164.901C1117.83 166.528 1114.47 167.433 1111.04 167.545L1110.9 170.463C1115.63 170.397 1120.28 169.188 1124.44 166.937C1132.55 162.194 1132.51 154.499 1124.3 149.739Z" fill="#4C68EF"/>
<path d="M1097.29 165.64C1104.97 169.571 1114.06 169.571 1121.74 165.64C1124.13 164.469 1125.91 162.328 1126.62 159.76L1122.33 160.087C1121.65 161.748 1120.4 163.113 1118.8 163.939C1112.98 166.88 1106.11 166.88 1100.29 163.939C1095.14 160.959 1095.12 156.146 1100.22 153.184C1102.71 151.835 1105.48 151.08 1108.31 150.981L1108.42 148.565C1104.52 148.625 1100.7 149.623 1097.27 151.474C1090.5 155.388 1090.58 161.726 1097.29 165.64Z" fill="url(#paint25_linear)"/>
<path d="M1121.5 151.52C1113.82 147.589 1104.73 147.589 1097.05 151.52C1094.66 152.683 1092.87 154.816 1092.14 157.382L1096.45 157.073C1097.12 155.406 1098.37 154.037 1099.97 153.221C1105.8 150.25 1112.7 150.25 1118.54 153.221C1123.68 156.192 1123.68 160.996 1118.54 163.966C1116.05 165.32 1113.28 166.077 1110.45 166.179L1110.35 168.585C1114.24 168.529 1118.07 167.531 1121.5 165.676C1128.33 161.763 1128.3 155.416 1121.5 151.52Z" fill="url(#paint26_linear)"/>
<path d="M1166.01 124.387C1156.7 119.644 1145.68 119.644 1136.37 124.387C1133.46 125.8 1131.3 128.394 1130.44 131.51L1135.67 131.131C1136.51 129.107 1138.04 127.447 1139.98 126.45C1147.05 122.854 1155.42 122.854 1162.49 126.45C1168.72 130.055 1168.76 135.891 1162.57 139.549C1159.55 141.176 1156.19 142.081 1152.77 142.193L1152.63 145.138C1157.31 145.031 1161.89 143.823 1166.01 141.612C1174.21 136.808 1174.17 129.112 1166.01 124.387Z" fill="url(#paint27_linear)"/>
<path d="M1138.96 140.271C1146.64 144.193 1155.73 144.193 1163.4 140.271C1165.81 139.117 1167.59 136.974 1168.29 134.4L1164.01 134.717C1163.33 136.375 1162.08 137.736 1160.49 138.561C1154.66 141.54 1147.75 141.54 1141.92 138.561C1136.79 135.608 1136.77 130.786 1141.92 127.815C1144.4 126.495 1147.15 125.768 1149.95 125.691L1150.07 123.267C1146.17 123.332 1142.35 124.329 1138.92 126.176C1132.15 130.019 1132.19 136.366 1138.96 140.271Z" fill="#00FFFF"/>
<path d="M1163.2 126.142C1155.52 122.22 1146.43 122.22 1138.75 126.142C1136.35 127.313 1134.57 129.457 1133.87 132.03L1138.15 131.695C1138.84 130.042 1140.09 128.683 1141.68 127.852C1147.51 124.89 1154.41 124.89 1160.25 127.852C1165.38 130.823 1165.4 135.697 1160.31 138.598C1157.82 139.947 1155.05 140.704 1152.22 140.81L1152.11 143.217C1156 143.16 1159.83 142.162 1163.26 140.308C1170.01 136.394 1169.91 130.056 1163.2 126.142Z" fill="url(#paint28_linear)"/>
<path d="M1073.67 206.56L1076.31 208.103L1094.47 197.631L1091.83 196.07L1073.67 206.56Z" fill="white"/>
<path d="M1078.77 209.54L1081.42 211.082L1099.58 200.592L1096.93 199.05L1078.77 209.54Z" fill="white"/>
<path d="M1084.77 212.986L1087.42 214.529L1097.11 208.949L1094.47 207.354L1084.77 212.986Z" fill="white"/>
<path d="M1120.9 176.74L1123.54 178.3L1141.7 167.819L1139.06 166.268L1120.9 176.74Z" fill="white"/>
<path d="M1126 179.719L1128.65 181.279L1146.81 170.79L1144.16 169.229L1126 179.719Z" fill="white"/>
<path d="M1132 183.174L1134.65 184.734L1144.34 179.136L1141.7 177.559L1132 183.174Z" fill="white"/>
<path d="M1163.48 149.853L1166.13 151.404L1184.29 140.915L1181.64 139.372L1163.48 149.853Z" fill="white"/>
<path d="M1168.59 152.797L1171.23 154.358L1189.39 143.868L1186.75 142.325L1168.59 152.797Z" fill="white"/>
<path d="M1174.57 156.253L1177.22 157.813L1186.92 152.233L1184.27 150.638L1174.57 156.253Z" fill="white"/>
<path d="M937.039 130.029L939.684 131.572L949.38 126.001L946.735 124.414L937.039 130.029Z" fill="white"/>
<path d="M942.148 133.617L944.793 135.16L954.489 129.589L951.845 127.984L942.148 133.617Z" fill="white"/>
<path d="M978.016 104.817L980.66 106.369L990.357 100.78L987.712 99.2021L978.016 104.817Z" fill="white"/>
<path d="M1024.81 78.6366L1027.45 80.1968L1037.15 74.6082L1034.51 73.0215L1024.81 78.6366Z" fill="white"/>
<path d="M909.332 130.029L911.977 131.572L921.673 126.001L919.081 124.414L909.332 130.029Z" fill="white"/>
<path d="M913.816 133.324L916.461 134.884L926.157 129.304L923.566 127.709L913.816 133.324Z" fill="white"/>
<path d="M906.774 135.846C909.005 137.151 909.013 139.204 906.774 140.483C904.263 141.761 901.291 141.761 898.779 140.483C896.567 139.169 896.549 137.124 898.779 135.846C901.289 134.559 904.265 134.559 906.774 135.846Z" fill="white"/>
<path d="M1250.13 224.896C1261.44 218.355 1270.63 223.591 1270.66 236.619C1270.7 249.648 1261.51 265.418 1250.26 271.967L1126.72 343.28C1115.41 349.829 1106.2 344.593 1106.16 331.583C1106.12 318.572 1115.32 302.775 1126.58 296.235L1250.13 224.896Z" fill="url(#paint29_linear)"/>
<path d="M1257.48 222.25C1254.88 222.647 1252.38 223.545 1250.13 224.894L1126.59 296.295C1115.28 302.845 1106.14 318.659 1106.17 331.643C1105.93 335.751 1107.26 339.798 1109.89 342.962C1112.49 342.558 1114.98 341.66 1117.24 340.317L1240.77 268.969C1252.08 262.428 1261.22 246.623 1261.19 233.621C1261.44 229.497 1260.11 225.432 1257.48 222.25Z" fill="url(#paint30_linear)"/>
<path d="M1138.58 305.798C1135.8 307.611 1134.04 310.649 1133.87 313.97C1133.87 316.976 1136 318.192 1138.61 316.676C1141.4 314.859 1143.15 311.825 1143.33 308.504C1143.33 305.499 1141.2 304.291 1138.58 305.798Z" fill="url(#paint31_linear)"/>
<path d="M968.453 512.243C965.659 514.049 963.907 517.091 963.746 520.414C963.746 523.42 965.879 524.637 968.48 523.12C971.266 521.304 973.02 518.27 973.204 514.949C973.196 511.925 971.071 510.735 968.453 512.243Z" fill="url(#paint32_linear)"/>
<path d="M700.4 666.118C697.615 667.934 695.863 670.969 695.684 674.289C695.684 677.304 697.808 678.52 700.426 677.013C703.214 675.197 704.964 672.156 705.133 668.833C705.151 665.827 703.018 664.646 700.4 666.118Z" fill="url(#paint33_linear)"/>
<path d="M1166.96 287.612C1164.16 289.42 1162.41 292.46 1162.24 295.784C1162.24 298.79 1164.37 300.015 1166.98 298.49C1169.77 296.681 1171.52 293.645 1171.69 290.327C1171.67 287.313 1169.58 286.105 1166.96 287.612Z" fill="url(#paint34_linear)"/>
<path d="M1195.31 269.427C1192.53 271.251 1190.78 274.282 1190.59 277.599C1190.59 280.596 1192.72 281.821 1195.35 280.305C1198.14 278.491 1199.89 275.454 1200.07 272.133C1200.06 269.127 1197.93 267.92 1195.31 269.427Z" fill="url(#paint35_linear)"/>
<path d="M1223.68 251.225C1220.89 253.032 1219.13 256.073 1218.96 259.397C1218.96 262.394 1221.1 263.61 1223.71 262.103C1226.49 260.28 1228.25 257.239 1228.43 253.914C1228.42 250.943 1226.33 249.727 1223.68 251.225Z" fill="url(#paint36_linear)"/>
<path d="M1180.19 544.823V578.778C1180.19 592.292 1161.97 603.24 1139.47 603.24C1116.98 603.24 1098.76 592.292 1098.76 578.778V544.823H1180.19Z" fill="url(#paint37_linear)"/>
<path d="M1139.47 569.275C1161.96 569.275 1180.19 558.328 1180.19 544.823C1180.19 531.318 1161.96 520.37 1139.47 520.37C1116.99 520.37 1098.76 531.318 1098.76 544.823C1098.76 558.328 1116.99 569.275 1139.47 569.275Z" fill="url(#paint38_linear)"/>
<path d="M1263.52 509.828V543.783C1263.52 557.297 1245.29 568.245 1222.8 568.245C1200.31 568.245 1182.07 557.297 1182.07 543.783V509.828H1263.52Z" fill="url(#paint39_linear)"/>
<path d="M1222.8 534.282C1245.29 534.282 1263.51 523.334 1263.51 509.83C1263.51 496.325 1245.29 485.377 1222.8 485.377C1200.31 485.377 1182.08 496.325 1182.08 509.83C1182.08 523.334 1200.31 534.282 1222.8 534.282Z" fill="#4C68EF"/>
<path d="M1344.52 464.802V498.757C1344.52 512.27 1326.3 523.218 1303.8 523.218C1281.31 523.218 1263.09 512.27 1263.09 498.757V464.802H1344.52Z" fill="url(#paint40_linear)"/>
<path d="M1303.8 489.254C1326.29 489.254 1344.52 478.306 1344.52 464.801C1344.52 451.296 1326.29 440.349 1303.8 440.349C1281.32 440.349 1263.09 451.296 1263.09 464.801C1263.09 478.306 1281.32 489.254 1303.8 489.254Z" fill="#FFCB33"/>
<path d="M1064.26 622.017L1007.76 589.181V251.385C1042.71 271.745 1064.22 309.133 1064.26 349.583V622.017Z" fill="#252E37"/>
<defs>
<linearGradient id="paint0_linear" x1="1.31715e-06" y1="58.7105" x2="1407.77" y2="157.62" gradientUnits="userSpaceOnUse">
<stop stop-color="#8096FE"/>
<stop offset="0.337665" stop-color="#7B91FF"/>
<stop offset="0.620183" stop-color="#879CFF" stop-opacity="0"/>
</linearGradient>
<linearGradient id="paint1_linear" x1="1034.1" y1="652.059" x2="831.753" y2="-133.526" gradientUnits="userSpaceOnUse">
<stop stop-color="#2F3969"/>
</linearGradient>
<linearGradient id="paint2_linear" x1="568.145" y1="629.821" x2="1097.69" y2="330.47" gradientUnits="userSpaceOnUse">
<stop stop-color="#00366A"/>
<stop offset="0.33" stop-color="#003368"/>
<stop offset="0.57" stop-color="#012A62"/>
<stop offset="0.78" stop-color="#031A57"/>
<stop offset="0.97" stop-color="#050448"/>
<stop offset="1" stop-color="#050046"/>
</linearGradient>
<linearGradient id="paint3_linear" x1="684.449" y1="486.032" x2="1313.46" y2="486.032" gradientUnits="userSpaceOnUse">
<stop stop-color="#00366A"/>
<stop offset="0.33" stop-color="#003368"/>
<stop offset="0.57" stop-color="#012A62"/>
<stop offset="0.78" stop-color="#031A57"/>
<stop offset="0.97" stop-color="#050448"/>
<stop offset="1" stop-color="#050046"/>
</linearGradient>
<linearGradient id="paint4_linear" x1="984.245" y1="346.932" x2="1099.13" y2="346.932" gradientUnits="userSpaceOnUse">
<stop stop-color="#FFF52A"/>
<stop offset="0.51" stop-color="#FFF32A"/>
<stop offset="0.71" stop-color="#FFEC2C"/>
<stop offset="0.86" stop-color="#FFE02F"/>
<stop offset="0.98" stop-color="#FFCF32"/>
<stop offset="1" stop-color="#FFCB33"/>
</linearGradient>
<linearGradient id="paint5_linear" x1="1299.34" y1="327.43" x2="1299.39" y2="327.43" gradientUnits="userSpaceOnUse">
<stop stop-color="#FFF52A"/>
<stop offset="0.51" stop-color="#FFF32A"/>
<stop offset="0.71" stop-color="#FFEC2C"/>
<stop offset="0.86" stop-color="#FFE02F"/>
<stop offset="0.98" stop-color="#FFCF32"/>
<stop offset="1" stop-color="#FFCB33"/>
</linearGradient>
<linearGradient id="paint6_linear" x1="3836.54" y1="-4376.92" x2="4110.47" y2="-4842.04" gradientUnits="userSpaceOnUse">
<stop stop-color="#191E36"/>
</linearGradient>
<linearGradient id="paint7_linear" x1="704.561" y1="652.798" x2="704.561" y2="797.479" gradientUnits="userSpaceOnUse">
<stop stop-color="#252E37"/>
<stop offset="1" stop-color="#1F2225"/>
</linearGradient>
<linearGradient id="paint8_linear" x1="967.21" y1="493.587" x2="967.21" y2="638.243" gradientUnits="userSpaceOnUse">
<stop stop-color="#252E37"/>
<stop offset="1" stop-color="#2C3237"/>
</linearGradient>
<linearGradient id="paint9_linear" x1="804.698" y1="252.562" x2="804.698" y2="341.125" gradientUnits="userSpaceOnUse">
<stop stop-color="#F4F9FF"/>
<stop offset="1" stop-color="#CAD8F3"/>
</linearGradient>
<linearGradient id="paint10_linear" x1="803.248" y1="253.385" x2="803.248" y2="274.191" gradientUnits="userSpaceOnUse">
<stop stop-color="#CEDDFE"/>
<stop offset="0.44" stop-color="#CBDAFC"/>
<stop offset="0.71" stop-color="#C3D2F6"/>
<stop offset="0.93" stop-color="#B5C4EB"/>
<stop offset="1" stop-color="#AEBDE6"/>
</linearGradient>
<linearGradient id="paint11_linear" x1="815.222" y1="269.296" x2="815.222" y2="342.886" gradientUnits="userSpaceOnUse">
<stop stop-color="#CEDDFE"/>
<stop offset="0.44" stop-color="#CBDAFC"/>
<stop offset="0.71" stop-color="#C3D2F6"/>
<stop offset="0.93" stop-color="#B5C4EB"/>
<stop offset="1" stop-color="#AEBDE6"/>
</linearGradient>
<linearGradient id="paint12_linear" x1="1094.42" y1="524.237" x2="1175.83" y2="524.237" gradientUnits="userSpaceOnUse">
<stop stop-color="#00366A"/>
<stop offset="0.33" stop-color="#003368"/>
<stop offset="0.57" stop-color="#012A62"/>
<stop offset="0.78" stop-color="#031A57"/>
<stop offset="0.97" stop-color="#050448"/>
<stop offset="1" stop-color="#050046"/>
</linearGradient>
<linearGradient id="paint13_linear" x1="1206.95" y1="361.738" x2="1082.82" y2="445.673" gradientUnits="userSpaceOnUse">
<stop stop-color="#00366A"/>
<stop offset="0.33" stop-color="#003368"/>
<stop offset="0.57" stop-color="#012A62"/>
<stop offset="0.78" stop-color="#031A57"/>
<stop offset="0.97" stop-color="#050448"/>
<stop offset="1" stop-color="#050046"/>
</linearGradient>
<linearGradient id="paint14_linear" x1="1177.59" y1="489.15" x2="1259" y2="489.15" gradientUnits="userSpaceOnUse">
<stop stop-color="#00366A"/>
<stop offset="0.33" stop-color="#003368"/>
<stop offset="0.57" stop-color="#012A62"/>
<stop offset="0.78" stop-color="#031A57"/>
<stop offset="0.97" stop-color="#050448"/>
<stop offset="1" stop-color="#050046"/>
</linearGradient>
<linearGradient id="paint15_linear" x1="1277.21" y1="326.661" x2="1152.99" y2="410.595" gradientUnits="userSpaceOnUse">
<stop stop-color="#00366A"/>
<stop offset="0.33" stop-color="#003368"/>
<stop offset="0.57" stop-color="#012A62"/>
<stop offset="0.78" stop-color="#031A57"/>
<stop offset="0.97" stop-color="#050448"/>
<stop offset="1" stop-color="#050046"/>
</linearGradient>
<linearGradient id="paint16_linear" x1="1258.61" y1="445.377" x2="1340.31" y2="445.377" gradientUnits="userSpaceOnUse">
<stop stop-color="#00366A"/>
<stop offset="0.33" stop-color="#003368"/>
<stop offset="0.57" stop-color="#012A62"/>
<stop offset="0.78" stop-color="#031A57"/>
<stop offset="0.97" stop-color="#050448"/>
<stop offset="1" stop-color="#050046"/>
</linearGradient>
<linearGradient id="paint17_linear" x1="1370.73" y1="282.734" x2="1246.85" y2="366.995" gradientUnits="userSpaceOnUse">
<stop stop-color="#00366A"/>
<stop offset="0.33" stop-color="#003368"/>
<stop offset="0.57" stop-color="#012A62"/>
<stop offset="0.78" stop-color="#031A57"/>
<stop offset="0.97" stop-color="#050448"/>
<stop offset="1" stop-color="#050046"/>
</linearGradient>
<linearGradient id="paint18_linear" x1="877.411" y1="133.81" x2="1248.01" y2="133.81" gradientUnits="userSpaceOnUse">
<stop stop-color="#00366A"/>
<stop offset="0.33" stop-color="#003368"/>
<stop offset="0.57" stop-color="#012A62"/>
<stop offset="0.78" stop-color="#031A57"/>
<stop offset="0.97" stop-color="#050448"/>
<stop offset="1" stop-color="#050046"/>
</linearGradient>
<linearGradient id="paint19_linear" x1="1068.47" y1="40.2451" x2="1068.47" y2="241.484" gradientUnits="userSpaceOnUse">
<stop stop-color="#00366A"/>
<stop offset="0.33" stop-color="#003368"/>
<stop offset="0.57" stop-color="#012A62"/>
<stop offset="0.78" stop-color="#031A57"/>
<stop offset="0.97" stop-color="#050448"/>
<stop offset="1" stop-color="#050046"/>
</linearGradient>
<linearGradient id="paint20_linear" x1="1056.32" y1="140.837" x2="1034.68" y2="102.924" gradientUnits="userSpaceOnUse">
<stop stop-color="#BAF281" stop-opacity="0"/>
<stop offset="0.38" stop-color="#B9F281" stop-opacity="0.01"/>
<stop offset="0.52" stop-color="#B5F081" stop-opacity="0.04"/>
<stop offset="0.62" stop-color="#AEEE82" stop-opacity="0.1"/>
<stop offset="0.7" stop-color="#A5EB82" stop-opacity="0.18"/>
<stop offset="0.76" stop-color="#98E782" stop-opacity="0.29"/>
<stop offset="0.82" stop-color="#88E283" stop-opacity="0.42"/>
<stop offset="0.88" stop-color="#76DC84" stop-opacity="0.58"/>
<stop offset="0.93" stop-color="#60D585" stop-opacity="0.77"/>
<stop offset="0.97" stop-color="#49CD86" stop-opacity="0.97"/>
<stop offset="0.98" stop-color="#45CC86"/>
</linearGradient>
<linearGradient id="paint21_linear" x1="958.314" y1="112.496" x2="1093.02" y2="112.496" gradientUnits="userSpaceOnUse">
<stop stop-color="#BAF281"/>
<stop offset="0.39" stop-color="#B8F181"/>
<stop offset="0.55" stop-color="#B1EF81"/>
<stop offset="0.67" stop-color="#A5EB82"/>
<stop offset="0.76" stop-color="#93E583"/>
<stop offset="0.85" stop-color="#7CDE84"/>
<stop offset="0.92" stop-color="#61D585"/>
<stop offset="0.98" stop-color="#45CC86"/>
</linearGradient>
<linearGradient id="paint22_linear" x1="1030.07" y1="100.802" x2="1067.6" y2="138.595" gradientUnits="userSpaceOnUse">
<stop stop-color="#4C68EF" stop-opacity="0.99"/>
<stop offset="0.08" stop-color="#4C68EF" stop-opacity="0.79"/>
<stop offset="0.15" stop-color="#4C68EF" stop-opacity="0.6"/>
<stop offset="0.24" stop-color="#4C68EF" stop-opacity="0.44"/>
<stop offset="0.32" stop-color="#4C68EF" stop-opacity="0.3"/>
<stop offset="0.42" stop-color="#4C68EF" stop-opacity="0.19"/>
<stop offset="0.52" stop-color="#4C68EF" stop-opacity="0.11"/>
<stop offset="0.64" stop-color="#4C68EF" stop-opacity="0.05"/>
<stop offset="0.77" stop-color="#4C68EF" stop-opacity="0.01"/>
<stop offset="1" stop-color="#4C68EF" stop-opacity="0"/>
</linearGradient>
<linearGradient id="paint23_linear" x1="1083.51" y1="196.328" x2="1059.19" y2="172.005" gradientUnits="userSpaceOnUse">
<stop stop-color="#BAF281"/>
<stop offset="0.39" stop-color="#B8F181"/>
<stop offset="0.55" stop-color="#B1EF81"/>
<stop offset="0.67" stop-color="#A5EB82"/>
<stop offset="0.76" stop-color="#93E583"/>
<stop offset="0.85" stop-color="#7CDE84"/>
<stop offset="0.92" stop-color="#61D585"/>
<stop offset="0.98" stop-color="#45CC86"/>
</linearGradient>
<linearGradient id="paint24_linear" x1="1053.72" y1="186.779" x2="1088.12" y2="186.779" gradientUnits="userSpaceOnUse">
<stop stop-color="#FFF52A"/>
<stop offset="0.03" stop-color="#FFF02B"/>
<stop offset="0.14" stop-color="#FFDF2F"/>
<stop offset="0.27" stop-color="#FFD431"/>
<stop offset="0.47" stop-color="#FFCD33"/>
<stop offset="1" stop-color="#FFCB33"/>
</linearGradient>
<linearGradient id="paint25_linear" x1="1094.15" y1="160.784" x2="1128.56" y2="160.784" gradientUnits="userSpaceOnUse">
<stop stop-color="#BAF281"/>
<stop offset="0.39" stop-color="#B8F181"/>
<stop offset="0.55" stop-color="#B1EF81"/>
<stop offset="0.67" stop-color="#A5EB82"/>
<stop offset="0.76" stop-color="#93E583"/>
<stop offset="0.85" stop-color="#7CDE84"/>
<stop offset="0.92" stop-color="#61D585"/>
<stop offset="0.98" stop-color="#45CC86"/>
</linearGradient>
<linearGradient id="paint26_linear" x1="1089.84" y1="156.21" x2="1124.3" y2="156.21" gradientUnits="userSpaceOnUse">
<stop stop-color="#FFF52A"/>
<stop offset="0.03" stop-color="#FFF02B"/>
<stop offset="0.14" stop-color="#FFDF2F"/>
<stop offset="0.27" stop-color="#FFD431"/>
<stop offset="0.47" stop-color="#FFCD33"/>
<stop offset="1" stop-color="#FFCB33"/>
</linearGradient>
<linearGradient id="paint27_linear" x1="1167.15" y1="142.886" x2="1143.01" y2="118.626" gradientUnits="userSpaceOnUse">
<stop stop-color="#BAF281"/>
<stop offset="0.39" stop-color="#B8F181"/>
<stop offset="0.55" stop-color="#B1EF81"/>
<stop offset="0.67" stop-color="#A5EB82"/>
<stop offset="0.76" stop-color="#93E583"/>
<stop offset="0.85" stop-color="#7CDE84"/>
<stop offset="0.92" stop-color="#61D585"/>
<stop offset="0.98" stop-color="#45CC86"/>
</linearGradient>
<linearGradient id="paint28_linear" x1="1133.21" y1="135.386" x2="1167.62" y2="135.386" gradientUnits="userSpaceOnUse">
<stop stop-color="#FFF52A"/>
<stop offset="0.03" stop-color="#FFF02B"/>
<stop offset="0.14" stop-color="#FFDF2F"/>
<stop offset="0.27" stop-color="#FFD431"/>
<stop offset="0.47" stop-color="#FFCD33"/>
<stop offset="1" stop-color="#FFCB33"/>
</linearGradient>
<linearGradient id="paint29_linear" x1="1103.95" y1="284.221" x2="1268.39" y2="284.221" gradientUnits="userSpaceOnUse">
<stop stop-color="#343C46"/>
</linearGradient>
<linearGradient id="paint30_linear" x1="1115.32" y1="283.729" x2="1270.32" y2="283.729" gradientUnits="userSpaceOnUse">
<stop stop-color="#00366A"/>
<stop offset="0.33" stop-color="#003368"/>
<stop offset="0.57" stop-color="#012A62"/>
<stop offset="0.78" stop-color="#031A57"/>
<stop offset="0.97" stop-color="#050448"/>
<stop offset="1" stop-color="#050046"/>
</linearGradient>
<linearGradient id="paint31_linear" x1="1135.4" y1="312.244" x2="1144.86" y2="312.244" gradientUnits="userSpaceOnUse">
<stop stop-color="#BAF281"/>
<stop offset="0.39" stop-color="#B8F181"/>
<stop offset="0.55" stop-color="#B1EF81"/>
<stop offset="0.67" stop-color="#A5EB82"/>
<stop offset="0.76" stop-color="#93E583"/>
<stop offset="0.85" stop-color="#7CDE84"/>
<stop offset="0.92" stop-color="#61D585"/>
<stop offset="0.98" stop-color="#45CC86"/>
</linearGradient>
<linearGradient id="paint32_linear" x1="965.286" y1="517.937" x2="974.745" y2="517.937" gradientUnits="userSpaceOnUse">
<stop stop-color="#00366A"/>
<stop offset="0.33" stop-color="#003368"/>
<stop offset="0.57" stop-color="#012A62"/>
<stop offset="0.78" stop-color="#031A57"/>
<stop offset="0.97" stop-color="#050448"/>
<stop offset="1" stop-color="#050046"/>
</linearGradient>
<linearGradient id="paint33_linear" x1="689.472" y1="670.656" x2="698.931" y2="670.656" gradientUnits="userSpaceOnUse">
<stop stop-color="#00366A"/>
<stop offset="0.33" stop-color="#003368"/>
<stop offset="0.57" stop-color="#012A62"/>
<stop offset="0.78" stop-color="#031A57"/>
<stop offset="0.97" stop-color="#050448"/>
<stop offset="1" stop-color="#050046"/>
</linearGradient>
<linearGradient id="paint34_linear" x1="1156.35" y1="293.443" x2="1165.81" y2="293.443" gradientUnits="userSpaceOnUse">
<stop stop-color="#BAF281"/>
<stop offset="0.39" stop-color="#B8F181"/>
<stop offset="0.55" stop-color="#B1EF81"/>
<stop offset="0.67" stop-color="#A5EB82"/>
<stop offset="0.76" stop-color="#93E583"/>
<stop offset="0.85" stop-color="#7CDE84"/>
<stop offset="0.92" stop-color="#61D585"/>
<stop offset="0.98" stop-color="#45CC86"/>
</linearGradient>
<linearGradient id="paint35_linear" x1="1193.57" y1="276.409" x2="1203.03" y2="276.409" gradientUnits="userSpaceOnUse">
<stop stop-color="#BAF281"/>
<stop offset="0.39" stop-color="#B8F181"/>
<stop offset="0.55" stop-color="#B1EF81"/>
<stop offset="0.67" stop-color="#A5EB82"/>
<stop offset="0.76" stop-color="#93E583"/>
<stop offset="0.85" stop-color="#7CDE84"/>
<stop offset="0.92" stop-color="#61D585"/>
<stop offset="0.98" stop-color="#45CC86"/>
</linearGradient>
<linearGradient id="paint36_linear" x1="1220.38" y1="258.119" x2="1229.87" y2="258.119" gradientUnits="userSpaceOnUse">
<stop stop-color="#BAF281"/>
<stop offset="0.39" stop-color="#B8F181"/>
<stop offset="0.55" stop-color="#B1EF81"/>
<stop offset="0.67" stop-color="#A5EB82"/>
<stop offset="0.76" stop-color="#93E583"/>
<stop offset="0.85" stop-color="#7CDE84"/>
<stop offset="0.92" stop-color="#61D585"/>
<stop offset="0.98" stop-color="#45CC86"/>
</linearGradient>
<linearGradient id="paint37_linear" x1="1094.42" y1="574.366" x2="1175.83" y2="574.366" gradientUnits="userSpaceOnUse">
<stop stop-color="#00AEE9"/>
<stop offset="1" stop-color="#93E0FF"/>
</linearGradient>
<linearGradient id="paint38_linear" x1="1106.18" y1="531.618" x2="1180.22" y2="544.841" gradientUnits="userSpaceOnUse">
<stop stop-color="#00AEE9"/>
<stop offset="0.628125" stop-color="#73DCFF"/>
</linearGradient>
<linearGradient id="paint39_linear" x1="1177.87" y1="539.497" x2="1259.28" y2="539.497" gradientUnits="userSpaceOnUse">
<stop stop-color="#4C68EF"/>
<stop offset="1" stop-color="#0097D5"/>
</linearGradient>
<linearGradient id="paint40_linear" x1="1258.7" y1="494.334" x2="1340.1" y2="494.334" gradientUnits="userSpaceOnUse">
<stop stop-color="#FFCB33"/>
<stop offset="1" stop-color="#FFF865"/>
</linearGradient>
</defs>
</svg>
