<svg width="1482" height="380" viewBox="0 0 1482 380" fill="none" xmlns="http://www.w3.org/2000/svg">
<rect width="1482" height="380" fill="#131313"/>
<g filter="url(#filter0_f_130:19)">
<path d="M647.52 224V175.44H631.28V164.8H675.68V175.44H659.36V224H647.52ZM682.073 224V164.8H693.913V224H682.073ZM718.583 224.4C717.303 224.4 715.836 224.267 714.183 224C712.529 223.787 710.929 223.253 709.383 222.4C707.889 221.547 706.636 220.267 705.623 218.56C704.663 216.8 704.183 214.4 704.183 211.36V178.32C704.183 174.8 704.876 172.053 706.263 170.08C707.649 168.107 709.383 166.747 711.463 166C713.543 165.2 715.623 164.8 717.703 164.8C723.676 164.8 728.663 164.907 732.663 165.12C736.663 165.333 740.209 165.573 743.303 165.84V175.76H721.223C719.569 175.76 718.289 176.16 717.383 176.96C716.476 177.76 716.023 178.987 716.023 180.64V189.2L739.462 189.84V199.2L716.023 199.84V208C716.023 210.08 716.503 211.493 717.463 212.24C718.476 212.933 719.649 213.28 720.983 213.28H743.303V223.2C739.729 223.573 735.703 223.867 731.223 224.08C726.743 224.293 722.529 224.4 718.583 224.4ZM751.917 224V164.8H776.397C779.49 164.8 782.317 165.333 784.877 166.4C787.437 167.413 789.464 169.307 790.957 172.08C792.504 174.8 793.277 178.693 793.277 183.76C793.277 187.44 792.824 190.373 791.917 192.56C791.01 194.693 789.837 196.347 788.397 197.52C786.957 198.693 785.464 199.6 783.917 200.24L794.957 224H782.877L773.357 202.08C772.024 202.08 770.45 202.08 768.637 202.08C766.824 202.027 765.197 201.973 763.757 201.92V224H751.917ZM763.757 192.56H774.317C776.45 192.56 778.157 191.973 779.437 190.8C780.77 189.573 781.437 187.227 781.437 183.76C781.437 180.4 780.77 178.187 779.437 177.12C778.104 176 776.397 175.44 774.317 175.44H763.757V192.56ZM830.538 224V175.6L820.058 176.96V169.36L831.818 164.24H842.378V224H830.538Z" fill="white"/>
</g>
<path d="M647.52 224V175.44H631.28V164.8H675.68V175.44H659.36V224H647.52ZM682.073 224V164.8H693.913V224H682.073ZM718.583 224.4C717.303 224.4 715.836 224.267 714.183 224C712.529 223.787 710.929 223.253 709.383 222.4C707.889 221.547 706.636 220.267 705.623 218.56C704.663 216.8 704.183 214.4 704.183 211.36V178.32C704.183 174.8 704.876 172.053 706.263 170.08C707.649 168.107 709.383 166.747 711.463 166C713.543 165.2 715.623 164.8 717.703 164.8C723.676 164.8 728.663 164.907 732.663 165.12C736.663 165.333 740.209 165.573 743.303 165.84V175.76H721.223C719.569 175.76 718.289 176.16 717.383 176.96C716.476 177.76 716.023 178.987 716.023 180.64V189.2L739.462 189.84V199.2L716.023 199.84V208C716.023 210.08 716.503 211.493 717.463 212.24C718.476 212.933 719.649 213.28 720.983 213.28H743.303V223.2C739.729 223.573 735.703 223.867 731.223 224.08C726.743 224.293 722.529 224.4 718.583 224.4ZM751.917 224V164.8H776.397C779.49 164.8 782.317 165.333 784.877 166.4C787.437 167.413 789.464 169.307 790.957 172.08C792.504 174.8 793.277 178.693 793.277 183.76C793.277 187.44 792.824 190.373 791.917 192.56C791.01 194.693 789.837 196.347 788.397 197.52C786.957 198.693 785.464 199.6 783.917 200.24L794.957 224H782.877L773.357 202.08C772.024 202.08 770.45 202.08 768.637 202.08C766.824 202.027 765.197 201.973 763.757 201.92V224H751.917ZM763.757 192.56H774.317C776.45 192.56 778.157 191.973 779.437 190.8C780.77 189.573 781.437 187.227 781.437 183.76C781.437 180.4 780.77 178.187 779.437 177.12C778.104 176 776.397 175.44 774.317 175.44H763.757V192.56ZM830.538 224V175.6L820.058 176.96V169.36L831.818 164.24H842.378V224H830.538Z" fill="white"/>
<defs>
<filter id="filter0_f_130:19" x="571.279" y="104.24" width="331.1" height="180.16" filterUnits="userSpaceOnUse" color-interpolation-filters="sRGB">
<feFlood flood-opacity="0" result="BackgroundImageFix"/>
<feBlend mode="normal" in="SourceGraphic" in2="BackgroundImageFix" result="shape"/>
<feGaussianBlur stdDeviation="30" result="effect1_foregroundBlur_130:19"/>
</filter>
</defs>
</svg>
