<svg width="244" height="62" viewBox="0 0 244 62" fill="none" xmlns="http://www.w3.org/2000/svg">
<rect width="244" height="62" fill="url(#paint0_linear_119_2)"/>
<path d="M20.879 27.102C20.233 27.102 19.5417 27.068 18.805 27C18.0797 26.9207 17.4563 26.813 16.935 26.677V24.688C17.4337 24.7333 18.0343 24.773 18.737 24.807C19.451 24.8297 20.1253 24.841 20.76 24.841C21.406 24.841 21.916 24.756 22.29 24.586C22.664 24.4047 22.851 24.0647 22.851 23.566V23.107C22.851 22.733 22.7377 22.4497 22.511 22.257C22.2843 22.053 21.9727 21.951 21.576 21.951H20.505C19.3037 21.951 18.38 21.6903 17.734 21.169C17.0993 20.6363 16.782 19.7353 16.782 18.466V17.854C16.782 16.63 17.1277 15.7347 17.819 15.168C18.5217 14.6013 19.5303 14.318 20.845 14.318C21.5363 14.318 22.222 14.3633 22.902 14.454C23.5933 14.5447 24.177 14.641 24.653 14.743V16.732C24.1317 16.698 23.548 16.664 22.902 16.63C22.2673 16.596 21.678 16.579 21.134 16.579C20.5447 16.579 20.0687 16.6697 19.706 16.851C19.3547 17.0323 19.179 17.4063 19.179 17.973V18.313C19.179 18.755 19.3037 19.0723 19.553 19.265C19.8023 19.4577 20.1707 19.554 20.658 19.554H21.899C23.021 19.554 23.8597 19.86 24.415 20.472C24.9703 21.084 25.248 21.8547 25.248 22.784V23.498C25.248 24.484 25.061 25.2377 24.687 25.759C24.3243 26.2803 23.8143 26.6373 23.157 26.83C22.511 27.0113 21.7517 27.102 20.879 27.102ZM30.4477 27C29.3937 27 28.6344 26.762 28.1697 26.286C27.7164 25.81 27.5067 24.9657 27.5407 23.753L27.6257 19.894H26.1977V18.279L27.7107 17.871L28.0507 15.321H30.0397V17.871H32.1817V19.894H30.0397V23.736C30.0397 24.2347 30.1304 24.569 30.3117 24.739C30.4931 24.8977 30.7027 24.994 30.9407 25.028L32.0967 25.13V27H30.4477ZM35.5252 27.102C34.8338 27.102 34.2728 26.898 33.8422 26.49C33.4115 26.082 33.1962 25.5153 33.1962 24.79V23.974C33.1962 23.2827 33.4398 22.716 33.9272 22.274C34.4145 21.8207 35.1738 21.594 36.2052 21.594H38.5342V20.965C38.5342 20.6817 38.4832 20.4493 38.3812 20.268C38.2905 20.0753 38.1035 19.9393 37.8202 19.86C37.5368 19.7693 37.1118 19.724 36.5452 19.724H33.8082V18.262C34.2615 18.126 34.7772 18.007 35.3552 17.905C35.9332 17.803 36.6358 17.752 37.4632 17.752C38.2225 17.752 38.8685 17.8427 39.4012 18.024C39.9338 18.2053 40.3418 18.517 40.6252 18.959C40.9085 19.401 41.0502 20.013 41.0502 20.795V27H39.0612L38.6532 26.031C38.5512 26.1443 38.3472 26.286 38.0412 26.456C37.7352 26.6147 37.3612 26.762 36.9192 26.898C36.4885 27.034 36.0238 27.102 35.5252 27.102ZM36.8002 25.351C36.9928 25.351 37.2138 25.3227 37.4632 25.266C37.7238 25.198 37.9562 25.13 38.1602 25.062C38.3755 24.9827 38.5002 24.9317 38.5342 24.909V22.784L37.0042 22.886C36.1428 22.954 35.7122 23.328 35.7122 24.008V24.382C35.7122 24.7447 35.8142 24.9997 36.0182 25.147C36.2335 25.283 36.4942 25.351 36.8002 25.351ZM42.9338 27V14.029H45.4498V21.033H46.5208L48.5268 17.871H51.0768L48.3908 22.172L51.3488 27H48.7988L46.4868 23.294H45.4498V27H42.9338ZM56.1889 27.085C55.1803 27.085 54.3756 26.9547 53.7749 26.694C53.1743 26.422 52.7379 25.9517 52.4659 25.283C52.2053 24.603 52.0749 23.6567 52.0749 22.444C52.0749 21.2087 52.1996 20.251 52.4489 19.571C52.6983 18.891 53.1176 18.415 53.7069 18.143C54.2963 17.871 55.0953 17.735 56.1039 17.735C56.9993 17.735 57.7189 17.8257 58.2629 18.007C58.8183 18.1883 59.2149 18.5057 59.4529 18.959C59.7023 19.4123 59.8269 20.0527 59.8269 20.88C59.8269 21.8093 59.5606 22.4497 59.0279 22.801C58.4953 23.1523 57.7756 23.328 56.8689 23.328H54.5739C54.5853 23.7927 54.6533 24.161 54.7779 24.433C54.9026 24.705 55.1236 24.9033 55.4409 25.028C55.7696 25.1527 56.2399 25.215 56.8519 25.215H59.5209V26.694C59.0789 26.7847 58.5916 26.8753 58.0589 26.966C57.5376 27.0453 56.9143 27.085 56.1889 27.085ZM54.5399 21.832H56.6139C56.9539 21.832 57.2033 21.764 57.3619 21.628C57.5206 21.4807 57.5999 21.237 57.5999 20.897C57.5999 20.3983 57.4809 20.0527 57.2429 19.86C57.0163 19.656 56.6366 19.554 56.1039 19.554C55.5259 19.554 55.1179 19.7127 54.8799 20.03C54.6533 20.336 54.5399 20.9367 54.5399 21.832ZM65.6396 27L67.1016 14.42H69.5156L72.4056 24.059L75.2786 14.42H77.6756L79.1546 27H76.7236L75.7546 18.755L73.5616 27H71.1986L69.0056 18.857L68.0706 27H65.6396ZM80.9874 27V14.42H83.5034V27H80.9874ZM89.4767 27.102C88.8307 27.102 88.1393 27.068 87.4027 27C86.6773 26.9207 86.054 26.813 85.5327 26.677V24.688C86.0313 24.7333 86.632 24.773 87.3347 24.807C88.0487 24.8297 88.723 24.841 89.3577 24.841C90.0037 24.841 90.5137 24.756 90.8877 24.586C91.2617 24.4047 91.4487 24.0647 91.4487 23.566V23.107C91.4487 22.733 91.3353 22.4497 91.1087 22.257C90.882 22.053 90.5703 21.951 90.1737 21.951H89.1027C87.9013 21.951 86.9777 21.6903 86.3317 21.169C85.697 20.6363 85.3797 19.7353 85.3797 18.466V17.854C85.3797 16.63 85.7253 15.7347 86.4167 15.168C87.1193 14.6013 88.128 14.318 89.4427 14.318C90.134 14.318 90.8197 14.3633 91.4997 14.454C92.191 14.5447 92.7747 14.641 93.2507 14.743V16.732C92.7293 16.698 92.1457 16.664 91.4997 16.63C90.865 16.596 90.2757 16.579 89.7317 16.579C89.1423 16.579 88.6663 16.6697 88.3037 16.851C87.9523 17.0323 87.7767 17.4063 87.7767 17.973V18.313C87.7767 18.755 87.9013 19.0723 88.1507 19.265C88.4 19.4577 88.7683 19.554 89.2557 19.554H90.4967C91.6187 19.554 92.4573 19.86 93.0127 20.472C93.568 21.084 93.8457 21.8547 93.8457 22.784V23.498C93.8457 24.484 93.6587 25.2377 93.2847 25.759C92.922 26.2803 92.412 26.6373 91.7547 26.83C91.1087 27.0113 90.3493 27.102 89.4767 27.102ZM20.148 50.085C19.876 50.085 19.5643 50.0567 19.213 50C18.8617 49.9547 18.5217 49.8413 18.193 49.66C17.8757 49.4787 17.6093 49.2067 17.394 48.844C17.19 48.47 17.088 47.96 17.088 47.314V40.293C17.088 39.545 17.2353 38.9613 17.53 38.542C17.8247 38.1227 18.193 37.8337 18.635 37.675C19.077 37.505 19.519 37.42 19.961 37.42C21.2303 37.42 22.29 37.4427 23.14 37.488C23.99 37.5333 24.7437 37.5843 25.401 37.641V39.749H20.709C20.3577 39.749 20.0857 39.834 19.893 40.004C19.7003 40.174 19.604 40.4347 19.604 40.786V42.605L24.585 42.741V44.73L19.604 44.866V46.6C19.604 47.042 19.706 47.3423 19.91 47.501C20.1253 47.6483 20.3747 47.722 20.658 47.722H25.401V49.83C24.6417 49.9093 23.786 49.9717 22.834 50.017C21.882 50.0623 20.9867 50.085 20.148 50.085ZM29.0506 50.102C28.3592 50.102 27.7982 49.898 27.3676 49.49C26.9369 49.082 26.7216 48.5153 26.7216 47.79V46.974C26.7216 46.2827 26.9652 45.716 27.4526 45.274C27.9399 44.8207 28.6992 44.594 29.7306 44.594H32.0596V43.965C32.0596 43.6817 32.0086 43.4493 31.9066 43.268C31.8159 43.0753 31.6289 42.9393 31.3456 42.86C31.0622 42.7693 30.6372 42.724 30.0706 42.724H27.3336V41.262C27.7869 41.126 28.3026 41.007 28.8806 40.905C29.4586 40.803 30.1612 40.752 30.9886 40.752C31.7479 40.752 32.3939 40.8427 32.9266 41.024C33.4592 41.2053 33.8672 41.517 34.1506 41.959C34.4339 42.401 34.5756 43.013 34.5756 43.795V50H32.5866L32.1786 49.031C32.0766 49.1443 31.8726 49.286 31.5666 49.456C31.2606 49.6147 30.8866 49.762 30.4446 49.898C30.0139 50.034 29.5492 50.102 29.0506 50.102ZM30.3256 48.351C30.5182 48.351 30.7392 48.3227 30.9886 48.266C31.2492 48.198 31.4816 48.13 31.6856 48.062C31.9009 47.9827 32.0256 47.9317 32.0596 47.909V45.784L30.5296 45.886C29.6682 45.954 29.2376 46.328 29.2376 47.008V47.382C29.2376 47.7447 29.3396 47.9997 29.5436 48.147C29.7589 48.283 30.0196 48.351 30.3256 48.351ZM36.4592 50V40.871H38.3972L38.9752 42.265C39.3039 41.8457 39.6722 41.4887 40.0802 41.194C40.4996 40.8993 40.9926 40.752 41.5592 40.752C41.6839 40.752 41.8086 40.7577 41.9332 40.769C42.0692 40.7803 42.1939 40.803 42.3072 40.837V43.421C42.1259 43.3983 41.9389 43.3813 41.7462 43.37C41.5649 43.3473 41.3949 43.336 41.2362 43.336C40.7376 43.336 40.3126 43.421 39.9612 43.591C39.6099 43.7497 39.2812 43.9933 38.9752 44.322V50H36.4592ZM43.6477 50V40.871H45.7217L46.1637 41.806C46.5037 41.534 46.9344 41.2847 47.4557 41.058C47.977 40.8313 48.504 40.718 49.0367 40.718C49.7847 40.718 50.3627 40.8653 50.7707 41.16C51.1787 41.4547 51.462 41.8513 51.6207 42.35C51.7907 42.8373 51.8757 43.3813 51.8757 43.982V50H49.3597V44.305C49.3597 43.863 49.2407 43.5343 49.0027 43.319C48.7647 43.0923 48.4474 42.979 48.0507 42.979C47.688 42.979 47.348 43.0413 47.0307 43.166C46.7247 43.2907 46.4357 43.455 46.1637 43.659V50H43.6477ZM59.7899 50L57.3759 40.871H59.9769L61.4219 47.671L63.2239 40.871H65.2979L67.0999 47.671L68.4089 40.871H71.0099L68.6299 50H65.8419L64.2099 44.441L62.5269 50H59.7899ZM77.1668 50.102C76.3055 50.102 75.5518 50.0227 74.9058 49.864C74.2598 49.694 73.7215 49.388 73.2908 48.946C72.8601 48.4927 72.5315 47.8467 72.3048 47.008C72.0895 46.1693 71.9818 45.0757 71.9818 43.727C71.9818 42.3783 72.0895 41.2847 72.3048 40.446C72.5315 39.596 72.8601 38.9443 73.2908 38.491C73.7328 38.0377 74.2711 37.726 74.9058 37.556C75.5518 37.386 76.3055 37.301 77.1668 37.301C78.0281 37.301 78.7818 37.386 79.4278 37.556C80.0738 37.726 80.6121 38.0377 81.0428 38.491C81.4735 38.9443 81.7965 39.596 82.0118 40.446C82.2271 41.2847 82.3348 42.3783 82.3348 43.727C82.3348 45.0757 82.2271 46.1693 82.0118 47.008C81.7965 47.8467 81.4735 48.4927 81.0428 48.946C80.6121 49.388 80.0681 49.694 79.4108 49.864C78.7648 50.0227 78.0168 50.102 77.1668 50.102ZM77.1668 47.841C77.6655 47.841 78.0848 47.79 78.4248 47.688C78.7761 47.5747 79.0481 47.3707 79.2408 47.076C79.4448 46.7813 79.5921 46.3677 79.6828 45.835C79.7735 45.291 79.8188 44.5883 79.8188 43.727C79.8188 42.8317 79.7735 42.112 79.6828 41.568C79.5921 41.0127 79.4448 40.5933 79.2408 40.31C79.0368 40.0153 78.7648 39.817 78.4248 39.715C78.0848 39.613 77.6655 39.562 77.1668 39.562C76.6681 39.562 76.2488 39.613 75.9088 39.715C75.5801 39.817 75.3081 40.0153 75.0928 40.31C74.8888 40.5933 74.7358 41.0127 74.6338 41.568C74.5431 42.112 74.4978 42.8317 74.4978 43.727C74.4978 44.5883 74.5375 45.291 74.6168 45.835C74.7075 46.3677 74.8548 46.7813 75.0588 47.076C75.2628 47.3707 75.5348 47.5747 75.8748 47.688C76.2148 47.79 76.6455 47.841 77.1668 47.841ZM84.2765 50V37.42H86.2995L91.5695 45.716V37.42H94.0855V50H92.0625L86.8095 41.704V50H84.2765ZM99.2212 50.085C98.9492 50.085 98.6376 50.0567 98.2862 50C97.9349 49.9547 97.5949 49.8413 97.2662 49.66C96.9489 49.4787 96.6826 49.2067 96.4672 48.844C96.2632 48.47 96.1612 47.96 96.1612 47.314V40.293C96.1612 39.545 96.3086 38.9613 96.6032 38.542C96.8979 38.1227 97.2662 37.8337 97.7082 37.675C98.1502 37.505 98.5922 37.42 99.0342 37.42C100.304 37.42 101.363 37.4427 102.213 37.488C103.063 37.5333 103.817 37.5843 104.474 37.641V39.749H99.7822C99.4309 39.749 99.1589 39.834 98.9662 40.004C98.7736 40.174 98.6772 40.4347 98.6772 40.786V42.605L103.658 42.741V44.73L98.6772 44.866V46.6C98.6772 47.042 98.7792 47.3423 98.9832 47.501C99.1986 47.6483 99.4479 47.722 99.7312 47.722H104.474V49.83C103.715 49.9093 102.859 49.9717 101.907 50.017C100.955 50.0623 100.06 50.085 99.2212 50.085Z" fill="white"/>
<defs>
<linearGradient id="paint0_linear_119_2" x1="-4.54486e-07" y1="31" x2="244" y2="31" gradientUnits="userSpaceOnUse">
<stop stop-color="#19C1DF" stop-opacity="0.32"/>
<stop offset="1" stop-color="#34D4D4" stop-opacity="0.07"/>
</linearGradient>
</defs>
</svg>
