<svg width="200" height="100" viewBox="0 0 200 100" fill="none" xmlns="http://www.w3.org/2000/svg">
<rect width="200" height="100" fill="url(#paint0_linear_192_7)"/>
<path d="M88.512 38.928L88.256 40.768H85.456V50H83.104V40.768H80.16V38.928H88.512ZM91.9389 41.52V50H89.6669V41.52H91.9389ZM90.7869 37.152C91.1922 37.152 91.5229 37.28 91.7789 37.536C92.0455 37.7813 92.1789 38.096 92.1789 38.48C92.1789 38.864 92.0455 39.184 91.7789 39.44C91.5229 39.6853 91.1922 39.808 90.7869 39.808C90.3815 39.808 90.0509 39.6853 89.7949 39.44C89.5389 39.184 89.4109 38.864 89.4109 38.48C89.4109 38.096 89.5389 37.7813 89.7949 37.536C90.0509 37.28 90.3815 37.152 90.7869 37.152ZM101.351 45.568C101.351 45.6747 101.335 45.968 101.303 46.448H96.0065C96.0812 47.216 96.2892 47.76 96.6305 48.08C96.9718 48.4 97.4358 48.56 98.0225 48.56C98.3852 48.56 98.7265 48.5013 99.0465 48.384C99.3665 48.2667 99.7132 48.08 100.087 47.824L101.031 49.104C100.081 49.872 99.0092 50.256 97.8145 50.256C96.4812 50.256 95.4572 49.856 94.7425 49.056C94.0278 48.256 93.6705 47.1733 93.6705 45.808C93.6705 44.944 93.8198 44.1707 94.1185 43.488C94.4278 42.7947 94.8705 42.2507 95.4465 41.856C96.0332 41.4613 96.7265 41.264 97.5265 41.264C98.7318 41.264 99.6705 41.6427 100.343 42.4C101.015 43.1573 101.351 44.2133 101.351 45.568ZM99.0945 44.928C99.0945 43.52 98.5878 42.816 97.5745 42.816C97.1052 42.816 96.7372 42.992 96.4705 43.344C96.2145 43.6853 96.0598 44.2453 96.0065 45.024H99.0945V44.928ZM107.379 41.28C107.635 41.28 107.918 41.3227 108.227 41.408L107.843 43.6C107.544 43.5253 107.294 43.488 107.091 43.488C106.59 43.488 106.2 43.664 105.923 44.016C105.646 44.368 105.427 44.9013 105.267 45.616V50H102.995V41.52H104.963L105.171 43.168C105.374 42.5707 105.667 42.1067 106.051 41.776C106.446 41.4453 106.888 41.28 107.379 41.28ZM118.013 39.216V50H115.789V41.456L113.421 42.912L112.429 41.376L116.013 39.216H118.013Z" fill="white"/>
<defs>
<linearGradient id="paint0_linear_192_7" x1="100" y1="0" x2="100" y2="100" gradientUnits="userSpaceOnUse">
<stop stop-color="white" stop-opacity="0.45"/>
<stop offset="0.755295" stop-color="white" stop-opacity="0"/>
</linearGradient>
</defs>
</svg>
